999
dxfrw 0.6.3
  0
SECTION
  2
HEADER
  9
$ACADVER
  1
AC1021
  9
$DWGCODEPAGE
  3
ANSI_1252
  9
$INSBASE
 10
0
 20
0
 30
0
  9
$EXTMIN
 10
-5
 20
-20.08276253029822
 30
0
  9
$EXTMAX
 10
150
 20
1410
 30
0
  9
$LIMMIN
 10
0
 20
0
  9
$LIMMAX
 10
420
 20
297
  9
$ORTHOMODE
 70
    0
  9
$REGENMODE
 70
    1
  9
$FILLMODE
 70
    1
  9
$QTEXTMODE
 70
    0
  9
$MIRRTEXT
 70
    0
  9
$LTSCALE
 40
1
  9
$ATTMODE
 70
    0
  9
$TEXTSIZE
 40
2.5
  9
$TRACEWID
 40
15.68
  9
$TEXTSTYLE
  7
STANDARD
  9
$CLAYER
  8
0
  9
$CELTYPE
  6
BYLAYER
  9
$CECOLOR
 62
  256
  9
$CELTSCALE
 40
1
  9
$DISPSILH
 70
    0
  9
$DIMSCALE
 40
2.5
  9
$DIMASZ
 40
2.5
  9
$DIMEXO
 40
0.625
  9
$DIMDLI
 40
3.75
  9
$DIMRND
 40
0
  9
$DIMDLE
 40
0
  9
$DIMEXE
 40
1.25
  9
$DIMTP
 40
0
  9
$DIMTM
 40
0
  9
$DIMTXT
 40
2.5
  9
$DIMCEN
 40
2.5
  9
$DIMTSZ
 40
0
  9
$DIMTOL
 70
    0
  9
$DIMLIM
 70
    0
  9
$DIMTIH
 70
    0
  9
$DIMTOH
 70
    0
  9
$DIMSE1
 70
    0
  9
$DIMSE2
 70
    0
  9
$DIMTAD
 70
    1
  9
$DIMZIN
 70
    8
  9
$DIMBLK
  1

  9
$DIMASO
 70
    1
  9
$DIMSHO
 70
    1
  9
$DIMPOST
  1

  9
$DIMAPOST
  1

  9
$DIMALT
 70
    0
  9
$DIMALTD
 70
    3
  9
$DIMALTF
 40
0.03937
  9
$DIMLFAC
 40
1
  9
$DIMTOFL
 70
    1
  9
$DIMTVP
 40
0
  9
$DIMTIX
 70
    0
  9
$DIMSOXD
 70
    0
  9
$DIMSAH
 70
    0
  9
$DIMBLK1
  1

  9
$DIMBLK2
  1

  9
$DIMSTYLE
  2
STANDARD
  9
$DIMCLRD
 70
    0
  9
$DIMCLRE
 70
    0
  9
$DIMCLRT
 70
    0
  9
$DIMTFAC
 40
1
  9
$DIMGAP
 40
0.625
  9
$DIMJUST
 70
    0
  9
$DIMSD1
 70
    0
  9
$DIMSD2
 70
    0
  9
$DIMTOLJ
 70
    0
  9
$DIMTZIN
 70
    8
  9
$DIMALTZ
 70
    0
  9
$DIMALTTZ
 70
    0
  9
$DIMUPT
 70
    0
  9
$DIMDEC
 70
    2
  9
$DIMTDEC
 70
    2
  9
$DIMALTU
 70
    2
  9
$DIMALTTD
 70
    3
  9
$DIMTXSTY
  7
STANDARD
  9
$DIMAUNIT
 70
    0
  9
$DIMADEC
 70
    0
  9
$DIMALTRND
 40
0
  9
$DIMAZIN
 70
    0
  9
$DIMDSEP
 70
   44
  9
$DIMATFIT
 70
    3
  9
$DIMFRAC
 70
    0
  9
$DIMLDRBLK
  1
STANDARD
  9
$DIMLUNIT
 70
    2
  9
$DIMLWD
 70
   -2
  9
$DIMLWE
 70
   -2
  9
$DIMTMOVE
 70
    0
  9
$DIMFXL
 40
1
  9
$DIMFXLON
 70
    0
  9
$DIMJOGANG
 40
0.7854
  9
$DIMTFILL
 70
    0
  9
$DIMTFILLCLR
 70
    0
  9
$DIMARCSYM
 70
    0
  9
$DIMLTYPE
  6

  9
$DIMLTEX1
  6

  9
$DIMLTEX2
  6

  9
$LUNITS
 70
    2
  9
$LUPREC
 70
    4
  9
$SKETCHINC
 40
1
  9
$FILLETRAD
 40
0
  9
$AUNITS
 70
    0
  9
$AUPREC
 70
    2
  9
$MENU
  1
.
  9
$ELEVATION
 40
0
  9
$PELEVATION
 40
0
  9
$THICKNESS
 40
0
  9
$LIMCHECK
 70
    0
  9
$CHAMFERA
 40
0
  9
$CHAMFERB
 40
0
  9
$CHAMFERC
 40
0
  9
$CHAMFERD
 40
0
  9
$SKPOLY
 70
    0
  9
$USRTIMER
 70
    1
  9
$ANGBASE
 50
0
  9
$ANGDIR
 70
    0
  9
$PDMODE
 70
   34
  9
$PDSIZE
 40
0
  9
$PLINEWID
 40
0
  9
$SPLFRAME
 70
    0
  9
$SPLINETYPE
 70
    2
  9
$SPLINESEGS
 70
    8
  9
$HANDSEED
  5
20000
  9
$SURFTAB1
 70
    6
  9
$SURFTAB2
 70
    6
  9
$SURFTYPE
 70
    6
  9
$SURFU
 70
    6
  9
$SURFV
 70
    6
  9
$UCSBASE
  2

  9
$UCSNAME
  2

  9
$UCSORG
 10
0
 20
0
 30
0
  9
$UCSXDIR
 10
1
 20
0
 30
0
  9
$UCSYDIR
 10
0
 20
1
 30
0
  9
$UCSORTHOREF
  2

  9
$UCSORTHOVIEW
 70
    0
  9
$UCSORGTOP
 10
0
 20
0
 30
0
  9
$UCSORGBOTTOM
 10
0
 20
0
 30
0
  9
$UCSORGLEFT
 10
0
 20
0
 30
0
  9
$UCSORGRIGHT
 10
0
 20
0
 30
0
  9
$UCSORGFRONT
 10
0
 20
0
 30
0
  9
$UCSORGBACK
 10
0
 20
0
 30
0
  9
$PUCSBASE
  2

  9
$PUCSNAME
  2

  9
$PUCSORG
 10
0
 20
0
 30
0
  9
$PUCSXDIR
 10
1
 20
0
 30
0
  9
$PUCSYDIR
 10
0
 20
1
 30
0
  9
$PUCSORTHOREF
  2

  9
$PUCSORTHOVIEW
 70
    0
  9
$PUCSORGTOP
 10
0
 20
0
 30
0
  9
$PUCSORGBOTTOM
 10
0
 20
0
 30
0
  9
$PUCSORGLEFT
 10
0
 20
0
 30
0
  9
$PUCSORGRIGHT
 10
0
 20
0
 30
0
  9
$PUCSORGFRONT
 10
0
 20
0
 30
0
  9
$PUCSORGBACK
 10
0
 20
0
 30
0
  9
$USERI1
 70
    0
  9
$USERI2
 70
    0
  9
$USERI3
 70
    0
  9
$USERI4
 70
    0
  9
$USERI5
 70
    0
  9
$USERR1
 40
0
  9
$USERR2
 40
0
  9
$USERR3
 40
0
  9
$USERR4
 40
0
  9
$USERR5
 40
0
  9
$WORLDVIEW
 70
    1
  9
$SHADEDGE
 70
    3
  9
$SHADEDIF
 70
   70
  9
$TILEMODE
 70
    1
  9
$MAXACTVP
 70
   64
  9
$PINSBASE
 10
0
 20
0
 30
0
  9
$PLIMCHECK
 70
    0
  9
$PEXTMIN
 10
0
 20
0
 30
0
  9
$PEXTMAX
 10
0
 20
0
 30
0
  9
$GRIDMODE
 70
    1
  9
$SNAPSTYLE
 70
    0
  9
$PLIMMIN
 10
0
 20
0
  9
$PLIMMAX
 10
210
 20
297
  9
$UNITMODE
 70
    0
  9
$VISRETAIN
 70
    1
  9
$PLINEGEN
 70
    0
  9
$PSLTSCALE
 70
    1
  9
$TREEDEPTH
 70
 3020
  9
$CMLSTYLE
  2
Standard
  9
$CMLJUST
 70
    0
  9
$CMLSCALE
 40
20
  9
$PROXYGRAPHICS
 70
    1
  9
$MEASUREMENT
 70
    1
  9
$CELWEIGHT
370
   -1
  9
$ENDCAPS
280
    0
  9
$JOINSTYLE
280
    0
  9
$LWDISPLAY
290
    0
  9
$INSUNITS
 70
    4
  9
$HYPERLINKBASE
  1

  9
$STYLESHEET
  1

  9
$XEDIT
290
    1
  9
$CEPSNTYPE
380
    0
  9
$PSTYLEMODE
290
    1
  9
$EXTNAMES
290
    1
  9
$PSVPSCALE
 40
1
  9
$OLESTARTUP
290
    0
  9
$SORTENTS
280
  127
  9
$INDEXCTL
280
    0
  9
$HIDETEXT
280
    1
  9
$XCLIPFRAME
290
    0
  9
$HALOGAP
280
    0
  9
$OBSCOLOR
 70
  257
  9
$OBSLTYPE
280
    0
  9
$INTERSECTIONDISPLAY
280
    0
  9
$INTERSECTIONCOLOR
 70
  257
  9
$DIMASSOC
280
    1
  9
$PROJECTNAME
  1

  9
$CAMERADISPLAY
290
    0
  9
$LENSLENGTH
 40
50
  9
$CAMERAHEIGHT
 40
0
  9
$STEPSPERSEC
 40
2
  9
$STEPSIZE
 40
50
  9
$3DDWFPREC
 40
2
  9
$PSOLWIDTH
 40
5
  9
$PSOLHEIGHT
 40
80
  9
$LOFTANG1
 40
1.570796326794897
  9
$LOFTANG2
 40
1.570796326794897
  9
$LOFTMAG1
 40
0
  9
$LOFTMAG2
 40
0
  9
$LOFTPARAM
 70
    7
  9
$LOFTNORMALS
280
    1
  9
$LATITUDE
 40
1
  9
$LONGITUDE
 40
1
  9
$NORTHDIRECTION
 40
0
  9
$TIMEZONE
 70
-8000
  9
$LIGHTGLYPHDISPLAY
280
    1
  9
$TILEMODELIGHTSYNCH
280
    1
  9
$SOLIDHIST
280
    1
  9
$SHOWHIST
280
    1
  9
$DWFFRAME
280
    2
  9
$DGNFRAME
280
    0
  9
$REALWORLDSCALE
290
    1
  9
$INTERFERECOLOR
 62
    1
  9
$CSHADOW
280
    0
  9
$SHADOWPLANELOCATION
 40
0
  0
ENDSEC
  0
SECTION
  2
CLASSES
  0
ENDSEC
  0
SECTION
  2
TABLES
  0
TABLE
  2
VPORT
  5
8
330
0
100
AcDbSymbolTable
 70
    1
  0
VPORT
  5
31
330
2
100
AcDbSymbolTableRecord
100
AcDbViewportTableRecord
  2
*ACTIVE
 70
    0
 10
0
 20
0
 11
1
 21
1
 12
125.7053244615771
 22
54.60549139202983
 13
0
 23
0
 14
10
 24
10
 15
10
 25
10
 16
0
 26
0
 36
1
 17
0
 27
0
 37
0
 40
172.3197683328221
 41
1.870392390011891
 42
50
 43
0
 44
0
 50
0
 51
0
 71
    0
 72
  100
 73
    1
 74
    3
 75
    0
 76
    1
 77
    0
 78
    0
281
    0
 65
    1
110
0
120
0
130
0
111
1
121
0
131
0
112
0
122
1
132
0
 79
    0
146
0
348
10020
 60
    7
 61
    5
292
1
282
    1
141
0
142
0
 63
  250
421
3358443
  0
ENDTAB
  0
TABLE
  2
LTYPE
  5
5
330
0
100
AcDbSymbolTable
 70
    4
  0
LTYPE
  5
14
330
5
100
AcDbSymbolTableRecord
100
AcDbLinetypeTableRecord
  2
ByBlock
 70
    0
  3

 72
   65
 73
    0
 40
0
  0
LTYPE
  5
15
330
5
100
AcDbSymbolTableRecord
100
AcDbLinetypeTableRecord
  2
ByLayer
 70
    0
  3

 72
   65
 73
    0
 40
0
  0
LTYPE
  5
16
330
5
100
AcDbSymbolTableRecord
100
AcDbLinetypeTableRecord
  2
Continuous
 70
    0
  3
Solid line
 72
   65
 73
    0
 40
0
  0
LTYPE
  5
32
330
5
100
AcDbSymbolTableRecord
100
AcDbLinetypeTableRecord
  2
DOT
 70
    0
  3
Dot . . . . . . . . . . . . . . . . . . . . . .
 72
   65
 73
    2
 40
6.35
 49
0
 74
    0
 49
-6.35
 74
    0
  0
LTYPE
  5
33
330
5
100
AcDbSymbolTableRecord
100
AcDbLinetypeTableRecord
  2
DOTTINY
 70
    0
  3
Dot (.15x) .....................................
 72
   65
 73
    2
 40
0.9525
 49
0
 74
    0
 49
-0.9525
 74
    0
  0
LTYPE
  5
34
330
5
100
AcDbSymbolTableRecord
100
AcDbLinetypeTableRecord
  2
DOT2
 70
    0
  3
Dot (.5x) .....................................
 72
   65
 73
    2
 40
3.175
 49
0
 74
    0
 49
-3.175
 74
    0
  0
LTYPE
  5
35
330
5
100
AcDbSymbolTableRecord
100
AcDbLinetypeTableRecord
  2
DOTX2
 70
    0
  3
Dot (2x) .  .  .  .  .  .  .  .  .  .  .  .  .
 72
   65
 73
    2
 40
12.7
 49
0
 74
    0
 49
-12.7
 74
    0
  0
LTYPE
  5
36
330
5
100
AcDbSymbolTableRecord
100
AcDbLinetypeTableRecord
  2
DASHED
 70
    0
  3
Dashed _ _ _ _ _ _ _ _ _ _ _ _ _ _ _ _ _
 72
   65
 73
    2
 40
19.05
 49
12.7
 74
    0
 49
-6.35
 74
    0
  0
LTYPE
  5
37
330
5
100
AcDbSymbolTableRecord
100
AcDbLinetypeTableRecord
  2
DASHEDTINY
 70
    0
  3
Dashed (.15x) _ _ _ _ _ _ _ _ _ _ _ _ _ _ _ _ _
 72
   65
 73
    2
 40
2.8575
 49
1.905
 74
    0
 49
-0.9525
 74
    0
  0
LTYPE
  5
38
330
5
100
AcDbSymbolTableRecord
100
AcDbLinetypeTableRecord
  2
DASHED2
 70
    0
  3
Dashed (.5x) _ _ _ _ _ _ _ _ _ _ _ _ _ _ _ _ _
 72
   65
 73
    2
 40
9.524999999999999
 49
6.35
 74
    0
 49
-3.175
 74
    0
  0
LTYPE
  5
39
330
5
100
AcDbSymbolTableRecord
100
AcDbLinetypeTableRecord
  2
DASHEDX2
 70
    0
  3
Dashed (2x) ____  ____  ____  ____  ____  ___
 72
   65
 73
    2
 40
38.09999999999999
 49
25.4
 74
    0
 49
-12.7
 74
    0
  0
LTYPE
  5
3A
330
5
100
AcDbSymbolTableRecord
100
AcDbLinetypeTableRecord
  2
DASHDOT
 70
    0
  3
Dash dot __ . __ . __ . __ . __ . __ . __ . __
 72
   65
 73
    4
 40
25.4
 49
12.7
 74
    0
 49
-6.35
 74
    0
 49
0
 74
    0
 49
-6.35
 74
    0
  0
LTYPE
  5
3B
330
5
100
AcDbSymbolTableRecord
100
AcDbLinetypeTableRecord
  2
DASHDOTTINY
 70
    0
  3
Dash dot (.15x) _._._._._._._._._._._._._._._.
 72
   65
 73
    4
 40
3.81
 49
1.905
 74
    0
 49
-0.9525
 74
    0
 49
0
 74
    0
 49
-0.9525
 74
    0
  0
LTYPE
  5
3C
330
5
100
AcDbSymbolTableRecord
100
AcDbLinetypeTableRecord
  2
DASHDOT2
 70
    0
  3
Dash dot (.5x) _._._._._._._._._._._._._._._.
 72
   65
 73
    4
 40
12.7
 49
6.35
 74
    0
 49
-3.175
 74
    0
 49
0
 74
    0
 49
-3.175
 74
    0
  0
LTYPE
  5
3D
330
5
100
AcDbSymbolTableRecord
100
AcDbLinetypeTableRecord
  2
DASHDOTX2
 70
    0
  3
Dash dot (2x) ____  .  ____  .  ____  .  ___
 72
   65
 73
    4
 40
50.8
 49
25.4
 74
    0
 49
-12.7
 74
    0
 49
0
 74
    0
 49
-12.7
 74
    0
  0
LTYPE
  5
3E
330
5
100
AcDbSymbolTableRecord
100
AcDbLinetypeTableRecord
  2
DIVIDE
 70
    0
  3
Divide ____ . . ____ . . ____ . . ____ . . ____
 72
   65
 73
    6
 40
31.75
 49
12.7
 74
    0
 49
-6.35
 74
    0
 49
0
 74
    0
 49
-6.35
 74
    0
 49
0
 74
    0
 49
-6.35
 74
    0
  0
LTYPE
  5
3F
330
5
100
AcDbSymbolTableRecord
100
AcDbLinetypeTableRecord
  2
DIVIDETINY
 70
    0
  3
Divide (.15x) __..__..__..__..__..__..__..__.._
 72
   65
 73
    6
 40
4.7625
 49
1.905
 74
    0
 49
-0.9525
 74
    0
 49
0
 74
    0
 49
-0.9525
 74
    0
 49
0
 74
    0
 49
-0.9525
 74
    0
  0
LTYPE
  5
40
330
5
100
AcDbSymbolTableRecord
100
AcDbLinetypeTableRecord
  2
DIVIDE2
 70
    0
  3
Divide (.5x) __..__..__..__..__..__..__..__.._
 72
   65
 73
    6
 40
15.875
 49
6.35
 74
    0
 49
-3.175
 74
    0
 49
0
 74
    0
 49
-3.175
 74
    0
 49
0
 74
    0
 49
-3.175
 74
    0
  0
LTYPE
  5
41
330
5
100
AcDbSymbolTableRecord
100
AcDbLinetypeTableRecord
  2
DIVIDEX2
 70
    0
  3
Divide (2x) ________  .  .  ________  .  .  _
 72
   65
 73
    6
 40
63.5
 49
25.4
 74
    0
 49
-12.7
 74
    0
 49
0
 74
    0
 49
-12.7
 74
    0
 49
0
 74
    0
 49
-12.7
 74
    0
  0
LTYPE
  5
42
330
5
100
AcDbSymbolTableRecord
100
AcDbLinetypeTableRecord
  2
BORDER
 70
    0
  3
Border __ __ . __ __ . __ __ . __ __ . __ __ .
 72
   65
 73
    6
 40
44.45
 49
12.7
 74
    0
 49
-6.35
 74
    0
 49
12.7
 74
    0
 49
-6.35
 74
    0
 49
0
 74
    0
 49
-6.35
 74
    0
  0
LTYPE
  5
43
330
5
100
AcDbSymbolTableRecord
100
AcDbLinetypeTableRecord
  2
BORDERTINY
 70
    0
  3
Border (.15x) __.__.__.__.__.__.__.__.__.__.__.
 72
   65
 73
    6
 40
6.6675
 49
1.905
 74
    0
 49
-0.9525
 74
    0
 49
1.905
 74
    0
 49
-0.9525
 74
    0
 49
0
 74
    0
 49
-0.9525
 74
    0
  0
LTYPE
  5
44
330
5
100
AcDbSymbolTableRecord
100
AcDbLinetypeTableRecord
  2
BORDER2
 70
    0
  3
Border (.5x) __.__.__.__.__.__.__.__.__.__.__.
 72
   65
 73
    6
 40
22.225
 49
6.35
 74
    0
 49
-3.175
 74
    0
 49
6.35
 74
    0
 49
-3.175
 74
    0
 49
0
 74
    0
 49
-3.175
 74
    0
  0
LTYPE
  5
45
330
5
100
AcDbSymbolTableRecord
100
AcDbLinetypeTableRecord
  2
BORDERX2
 70
    0
  3
Border (2x) ____  ____  .  ____  ____  .  ___
 72
   65
 73
    6
 40
88.89999999999999
 49
25.4
 74
    0
 49
-12.7
 74
    0
 49
25.4
 74
    0
 49
-12.7
 74
    0
 49
0
 74
    0
 49
-12.7
 74
    0
  0
LTYPE
  5
46
330
5
100
AcDbSymbolTableRecord
100
AcDbLinetypeTableRecord
  2
CENTER
 70
    0
  3
Center ____ _ ____ _ ____ _ ____ _ ____ _ ____
 72
   65
 73
    4
 40
50.8
 49
31.75
 74
    0
 49
-6.35
 74
    0
 49
6.35
 74
    0
 49
-6.35
 74
    0
  0
LTYPE
  5
47
330
5
100
AcDbSymbolTableRecord
100
AcDbLinetypeTableRecord
  2
CENTERTINY
 70
    0
  3
Center (.15x) ___ _ ___ _ ___ _ ___ _ ___ _ ___
 72
   65
 73
    4
 40
7.619999999999999
 49
4.7625
 74
    0
 49
-0.9525
 74
    0
 49
0.9525
 74
    0
 49
-0.9525
 74
    0
  0
LTYPE
  5
48
330
5
100
AcDbSymbolTableRecord
100
AcDbLinetypeTableRecord
  2
CENTER2
 70
    0
  3
Center (.5x) ___ _ ___ _ ___ _ ___ _ ___ _ ___
 72
   65
 73
    4
 40
28.575
 49
19.05
 74
    0
 49
-3.175
 74
    0
 49
3.175
 74
    0
 49
-3.175
 74
    0
  0
LTYPE
  5
49
330
5
100
AcDbSymbolTableRecord
100
AcDbLinetypeTableRecord
  2
CENTERX2
 70
    0
  3
Center (2x) ________  __  ________  __  _____
 72
   65
 73
    4
 40
101.6
 49
63.5
 74
    0
 49
-12.7
 74
    0
 49
12.7
 74
    0
 49
-12.7
 74
    0
  0
ENDTAB
  0
TABLE
  2
LAYER
  5
2
330
0
100
AcDbSymbolTable
 70
    1
  0
LAYER
  5
10
330
2
100
AcDbSymbolTableRecord
100
AcDbLayerTableRecord
  2
0
 70
    0
 62
    7
  6
CONTINUOUS
370
    0
390
F
  0
LAYER
  5
4A
330
2
100
AcDbSymbolTableRecord
100
AcDbLayerTableRecord
  2
SG22
 70
    0
 62
    6
  6
CONTINUOUS
370
    0
390
F
  0
LAYER
  5
4B
330
2
100
AcDbSymbolTableRecord
100
AcDbLayerTableRecord
  2
points
 70
    0
 62
    7
  6
CONTINUOUS
370
    0
390
F
  0
ENDTAB
  0
TABLE
  2
STYLE
  5
3
330
0
100
AcDbSymbolTable
 70
    3
  0
STYLE
  5
4C
330
2
100
AcDbSymbolTableRecord
100
AcDbTextStyleTableRecord
  2
Standard
 70
    0
 40
0
 41
1
 50
0
 71
    0
 42
1
  3
txt
  4

  0
ENDTAB
  0
TABLE
  2
VIEW
  5
6
330
0
100
AcDbSymbolTable
 70
    0
  0
ENDTAB
  0
TABLE
  2
UCS
  5
7
330
0
100
AcDbSymbolTable
 70
    0
  0
ENDTAB
  0
TABLE
  2
APPID
  5
9
330
0
100
AcDbSymbolTable
 70
    1
  0
APPID
  5
12
330
9
100
AcDbSymbolTableRecord
100
AcDbRegAppTableRecord
  2
ACAD
 70
    0
  0
APPID
  5
4D
330
9
100
AcDbSymbolTableRecord
100
AcDbRegAppTableRecord
  2
LibreCad
 70
    0
  0
ENDTAB
  0
TABLE
  2
DIMSTYLE
  5
A
330
0
100
AcDbSymbolTable
 70
    1
100
AcDbDimStyleTable
 71
    1
  0
DIMSTYLE
105
4E
330
A
100
AcDbSymbolTableRecord
100
AcDbDimStyleTableRecord
  2
Standard
 70
    0
 40
2.5
 41
2.5
 42
0.625
 43
0.38
 44
1.25
 45
0
 46
0
 47
0
 48
0
 49
1
140
2.5
141
0.09
142
0
143
25.4
144
1
145
0
146
1
147
0.625
148
0
 71
    0
 72
    0
 73
    0
 74
    1
 75
    0
 76
    0
 77
    0
 78
    8
 79
    0
170
    0
171
    2
172
    0
173
    0
174
    0
175
    0
176
    0
177
    0
178
    0
179
    0
271
    2
272
    4
273
    2
274
    2
275
    0
276
    0
277
    2
278
   44
279
    0
280
    0
281
    0
282
    0
283
    1
284
    0
285
    0
286
    0
288
    0
289
    3
340
STANDARD
341

371
   -2
372
   -2
  0
ENDTAB
  0
TABLE
  2
BLOCK_RECORD
  5
1
330
0
100
AcDbSymbolTable
 70
    2
  0
BLOCK_RECORD
  5
1F
330
1
100
AcDbSymbolTableRecord
100
AcDbBlockTableRecord
  2
*Model_Space
 70
    0
280
    1
281
    0
  0
BLOCK_RECORD
  5
1E
330
1
100
AcDbSymbolTableRecord
100
AcDbBlockTableRecord
  2
*Paper_Space
 70
    0
280
    1
281
    0
  0
ENDTAB
  0
ENDSEC
  0
SECTION
  2
BLOCKS
  0
BLOCK
  5
20
330
1F
100
AcDbEntity
  8
0
100
AcDbBlockBegin
  2
*Model_Space
 70
    0
 10
0
 20
0
 30
0
  3
*Model_Space
  1

  0
ENDBLK
  5
21
330
1F
100
AcDbEntity
  8
0
100
AcDbBlockEnd
  0
BLOCK
  5
1C
330
1B
100
AcDbEntity
  8
0
100
AcDbBlockBegin
  2
*Paper_Space
 70
    0
 10
0
 20
0
 30
0
  3
*Paper_Space
  1

  0
ENDBLK
  5
1D
330
1F
100
AcDbEntity
  8
0
100
AcDbBlockEnd
  0
ENDSEC
  0
SECTION
  2
ENTITIES
  0
LINE
  5
4F
100
AcDbEntity
  8
points
  6
ByLayer
 62
  256
370
   -1
100
AcDbLine
 10
0
 20
1410
 11
0
 21
1410
  0
LWPOLYLINE
  5
50
100
AcDbEntity
  8
points
  6
ByLayer
 62
  256
370
   -1
100
AcDbPolyline
 90
    4
 70
    1
 43
0
 10
0
 20
-1
 10
10
 20
-1
 10
10
 20
1
 10
0
 20
1
  0
LINE
  5
51
100
AcDbEntity
  8
points
  6
ByLayer
 62
  256
370
   -1
100
AcDbLine
 10
0
 20
-8.2572837456496e-15
 11
0
 21
-8.2572837456496e-15
  0
LINE
  5
52
100
AcDbEntity
  8
points
  6
ByLayer
 62
  256
370
   -1
100
AcDbLine
 10
0
 20
-8.2572837456496e-15
 11
0.075
 21
0.3508499999999917
  0
LINE
  5
53
100
AcDbEntity
  8
points
  6
ByLayer
 62
  256
370
   -1
100
AcDbLine
 10
0.075
 20
0.3508499999999917
 11
0.15
 21
0.5590649999999917
  0
LINE
  5
54
100
AcDbEntity
  8
points
  6
ByLayer
 62
  256
370
   -1
100
AcDbLine
 10
0.15
 20
0.5590649999999917
 11
0.3
 21
0.8703749999999919
  0
LINE
  5
55
100
AcDbEntity
  8
points
  6
ByLayer
 62
  256
370
   -1
100
AcDbLine
 10
0.3
 20
0.8703749999999919
 11
0.6
 21
1.338569999999991
  0
LINE
  5
56
100
AcDbEntity
  8
points
  6
ByLayer
 62
  256
370
   -1
100
AcDbLine
 10
0.6
 20
1.338569999999991
 11
1.2
 21
2.060249999999991
  0
LINE
  5
57
100
AcDbEntity
  8
points
  6
ByLayer
 62
  256
370
   -1
100
AcDbLine
 10
1.2
 20
2.060249999999991
 11
1.8
 21
2.678714999999992
  0
LINE
  5
58
100
AcDbEntity
  8
points
  6
ByLayer
 62
  256
370
   -1
100
AcDbLine
 10
1.8
 20
2.678714999999992
 11
3
 21
3.806024999999991
  0
LINE
  5
59
100
AcDbEntity
  8
points
  6
ByLayer
 62
  256
370
   -1
100
AcDbLine
 10
3
 20
3.806024999999991
 11
4.5
 21
4.953224999999993
  0
LINE
  5
5A
100
AcDbEntity
  8
points
  6
ByLayer
 62
  256
370
   -1
100
AcDbLine
 10
4.5
 20
4.953224999999993
 11
6
 21
5.86924499999999
  0
LINE
  5
5B
100
AcDbEntity
  8
points
  6
ByLayer
 62
  256
370
   -1
100
AcDbLine
 10
6
 20
5.86924499999999
 11
7.5
 21
6.641294999999992
  0
LINE
  5
5C
100
AcDbEntity
  8
points
  6
ByLayer
 62
  256
370
   -1
100
AcDbLine
 10
7.5
 20
6.641294999999992
 11
9
 21
7.313564999999991
  0
LINE
  5
5D
100
AcDbEntity
  8
points
  6
ByLayer
 62
  256
370
   -1
100
AcDbLine
 10
9
 20
7.313564999999991
 11
12
 21
8.464619999999991
  0
LINE
  5
5E
100
AcDbEntity
  8
points
  6
ByLayer
 62
  256
370
   -1
100
AcDbLine
 10
12
 20
8.464619999999991
 11
15
 21
9.449714999999991
  0
LINE
  5
5F
100
AcDbEntity
  8
points
  6
ByLayer
 62
  256
370
   -1
100
AcDbLine
 10
15
 20
9.449714999999991
 11
18
 21
10.29305999999999
  0
LINE
  5
60
100
AcDbEntity
  8
points
  6
ByLayer
 62
  256
370
   -1
100
AcDbLine
 10
18
 20
10.29305999999999
 11
21
 21
11.01539999999999
  0
LINE
  5
61
100
AcDbEntity
  8
points
  6
ByLayer
 62
  256
370
   -1
100
AcDbLine
 10
21
 20
11.01539999999999
 11
24
 21
11.63560499999999
  0
LINE
  5
62
100
AcDbEntity
  8
points
  6
ByLayer
 62
  256
370
   -1
100
AcDbLine
 10
24
 20
11.63560499999999
 11
27
 21
12.16030499999999
  0
LINE
  5
63
100
AcDbEntity
  8
points
  6
ByLayer
 62
  256
370
   -1
100
AcDbLine
 10
27
 20
12.16030499999999
 11
30
 21
12.58802999999999
  0
LINE
  5
64
100
AcDbEntity
  8
points
  6
ByLayer
 62
  256
370
   -1
100
AcDbLine
 10
30
 20
12.58802999999999
 11
33
 21
12.92149499999999
  0
LINE
  5
65
100
AcDbEntity
  8
points
  6
ByLayer
 62
  256
370
   -1
100
AcDbLine
 10
33
 20
12.92149499999999
 11
36
 21
13.17461999999999
  0
LINE
  5
66
100
AcDbEntity
  8
points
  6
ByLayer
 62
  256
370
   -1
100
AcDbLine
 10
36
 20
13.17461999999999
 11
39
 21
13.36259999999999
  0
LINE
  5
67
100
AcDbEntity
  8
points
  6
ByLayer
 62
  256
370
   -1
100
AcDbLine
 10
39
 20
13.36259999999999
 11
42
 21
13.50023999999999
  0
LINE
  5
68
100
AcDbEntity
  8
points
  6
ByLayer
 62
  256
370
   -1
100
AcDbLine
 10
42
 20
13.50023999999999
 11
45
 21
13.60205999999999
  0
LINE
  5
69
100
AcDbEntity
  8
points
  6
ByLayer
 62
  256
370
   -1
100
AcDbLine
 10
45
 20
13.60205999999999
 11
48
 21
13.67785499999999
  0
LINE
  5
6A
100
AcDbEntity
  8
points
  6
ByLayer
 62
  256
370
   -1
100
AcDbLine
 10
48
 20
13.67785499999999
 11
51
 21
13.72618499999999
  0
LINE
  5
6B
100
AcDbEntity
  8
points
  6
ByLayer
 62
  256
370
   -1
100
AcDbLine
 10
51
 20
13.72618499999999
 11
54
 21
13.74398999999999
  0
LINE
  5
6C
100
AcDbEntity
  8
points
  6
ByLayer
 62
  256
370
   -1
100
AcDbLine
 10
54
 20
13.74398999999999
 11
57
 21
13.72817999999999
  0
LINE
  5
6D
100
AcDbEntity
  8
points
  6
ByLayer
 62
  256
370
   -1
100
AcDbLine
 10
57
 20
13.72817999999999
 11
60
 21
13.67567999999999
  0
LINE
  5
6E
100
AcDbEntity
  8
points
  6
ByLayer
 62
  256
370
   -1
100
AcDbLine
 10
60
 20
13.67567999999999
 11
63
 21
13.58485499999999
  0
LINE
  5
6F
100
AcDbEntity
  8
points
  6
ByLayer
 62
  256
370
   -1
100
AcDbLine
 10
63
 20
13.58485499999999
 11
66
 21
13.45762499999999
  0
LINE
  5
70
100
AcDbEntity
  8
points
  6
ByLayer
 62
  256
370
   -1
100
AcDbLine
 10
66
 20
13.45762499999999
 11
69
 21
13.29640499999999
  0
LINE
  5
71
100
AcDbEntity
  8
points
  6
ByLayer
 62
  256
370
   -1
100
AcDbLine
 10
69
 20
13.29640499999999
 11
71.99999999999999
 21
13.10357999999999
  0
LINE
  5
72
100
AcDbEntity
  8
points
  6
ByLayer
 62
  256
370
   -1
100
AcDbLine
 10
71.99999999999999
 20
13.10357999999999
 11
75
 21
12.88157999999999
  0
LINE
  5
73
100
AcDbEntity
  8
points
  6
ByLayer
 62
  256
370
   -1
100
AcDbLine
 10
75
 20
12.88157999999999
 11
78.00000000000001
 21
12.63217499999999
  0
LINE
  5
74
100
AcDbEntity
  8
points
  6
ByLayer
 62
  256
370
   -1
100
AcDbLine
 10
78.00000000000001
 20
12.63217499999999
 11
81.00000000000001
 21
12.35567999999999
  0
LINE
  5
75
100
AcDbEntity
  8
points
  6
ByLayer
 62
  256
370
   -1
100
AcDbLine
 10
81.00000000000001
 20
12.35567999999999
 11
84
 21
12.05219999999999
  0
LINE
  5
76
100
AcDbEntity
  8
points
  6
ByLayer
 62
  256
370
   -1
100
AcDbLine
 10
84
 20
12.05219999999999
 11
87
 21
11.72176499999999
  0
LINE
  5
77
100
AcDbEntity
  8
points
  6
ByLayer
 62
  256
370
   -1
100
AcDbLine
 10
87
 20
11.72176499999999
 11
90
 21
11.36449499999999
  0
LINE
  5
78
100
AcDbEntity
  8
points
  6
ByLayer
 62
  256
370
   -1
100
AcDbLine
 10
90
 20
11.36449499999999
 11
93
 21
10.98082499999999
  0
LINE
  5
79
100
AcDbEntity
  8
points
  6
ByLayer
 62
  256
370
   -1
100
AcDbLine
 10
93
 20
10.98082499999999
 11
96
 21
10.57232999999999
  0
LINE
  5
7A
100
AcDbEntity
  8
points
  6
ByLayer
 62
  256
370
   -1
100
AcDbLine
 10
96
 20
10.57232999999999
 11
99
 21
10.14068999999999
  0
LINE
  5
7B
100
AcDbEntity
  8
points
  6
ByLayer
 62
  256
370
   -1
100
AcDbLine
 10
99
 20
10.14068999999999
 11
102
 21
9.687644999999991
  0
LINE
  5
7C
100
AcDbEntity
  8
points
  6
ByLayer
 62
  256
370
   -1
100
AcDbLine
 10
102
 20
9.687644999999991
 11
105
 21
9.214934999999993
  0
LINE
  5
7D
100
AcDbEntity
  8
points
  6
ByLayer
 62
  256
370
   -1
100
AcDbLine
 10
105
 20
9.214934999999993
 11
108
 21
8.723984999999994
  0
LINE
  5
7E
100
AcDbEntity
  8
points
  6
ByLayer
 62
  256
370
   -1
100
AcDbLine
 10
108
 20
8.723984999999994
 11
111
 21
8.215124999999992
  0
LINE
  5
7F
100
AcDbEntity
  8
points
  6
ByLayer
 62
  256
370
   -1
100
AcDbLine
 10
111
 20
8.215124999999992
 11
114
 21
7.688474999999992
  0
LINE
  5
80
100
AcDbEntity
  8
points
  6
ByLayer
 62
  256
370
   -1
100
AcDbLine
 10
114
 20
7.688474999999992
 11
117
 21
7.144214999999992
  0
LINE
  5
81
100
AcDbEntity
  8
points
  6
ByLayer
 62
  256
370
   -1
100
AcDbLine
 10
117
 20
7.144214999999992
 11
120
 21
6.582539999999993
  0
LINE
  5
82
100
AcDbEntity
  8
points
  6
ByLayer
 62
  256
370
   -1
100
AcDbLine
 10
120
 20
6.582539999999993
 11
123
 21
6.003674999999991
  0
LINE
  5
83
100
AcDbEntity
  8
points
  6
ByLayer
 62
  256
370
   -1
100
AcDbLine
 10
123
 20
6.003674999999991
 11
126
 21
5.408039999999992
  0
LINE
  5
84
100
AcDbEntity
  8
points
  6
ByLayer
 62
  256
370
   -1
100
AcDbLine
 10
126
 20
5.408039999999992
 11
129
 21
4.796099999999993
  0
LINE
  5
85
100
AcDbEntity
  8
points
  6
ByLayer
 62
  256
370
   -1
100
AcDbLine
 10
129
 20
4.796099999999993
 11
132
 21
4.168364999999991
  0
LINE
  5
86
100
AcDbEntity
  8
points
  6
ByLayer
 62
  256
370
   -1
100
AcDbLine
 10
132
 20
4.168364999999991
 11
135
 21
3.525374999999991
  0
LINE
  5
87
100
AcDbEntity
  8
points
  6
ByLayer
 62
  256
370
   -1
100
AcDbLine
 10
135
 20
3.525374999999991
 11
138
 21
2.867339999999991
  0
LINE
  5
88
100
AcDbEntity
  8
points
  6
ByLayer
 62
  256
370
   -1
100
AcDbLine
 10
138
 20
2.867339999999991
 11
141
 21
2.193584999999991
  0
LINE
  5
89
100
AcDbEntity
  8
points
  6
ByLayer
 62
  256
370
   -1
100
AcDbLine
 10
141
 20
2.193584999999991
 11
144
 21
1.503479999999991
  0
LINE
  5
8A
100
AcDbEntity
  8
points
  6
ByLayer
 62
  256
370
   -1
100
AcDbLine
 10
144
 20
1.503479999999991
 11
145.5
 21
1.153019999999992
  0
LINE
  5
8B
100
AcDbEntity
  8
points
  6
ByLayer
 62
  256
370
   -1
100
AcDbLine
 10
145.5
 20
1.153019999999992
 11
147
 21
0.8000249999999918
  0
LINE
  5
8C
100
AcDbEntity
  8
points
  6
ByLayer
 62
  256
370
   -1
100
AcDbLine
 10
147
 20
0.8000249999999918
 11
148.5
 21
0.4453499999999917
  0
LINE
  5
8D
100
AcDbEntity
  8
points
  6
ByLayer
 62
  256
370
   -1
100
AcDbLine
 10
148.5
 20
0.4453499999999917
 11
150
 21
0.08989499999999173
  0
LINE
  5
8E
100
AcDbEntity
  8
points
  6
ByLayer
 62
  256
370
   -1
100
AcDbLine
 10
0
 20
-8.2572837456496e-15
 11
0.075
 21
-0.7005000000000083
  0
LINE
  5
8F
100
AcDbEntity
  8
points
  6
ByLayer
 62
  256
370
   -1
100
AcDbLine
 10
0.075
 20
-0.7005000000000083
 11
0.15
 21
-0.8912700000000082
  0
LINE
  5
90
100
AcDbEntity
  8
points
  6
ByLayer
 62
  256
370
   -1
100
AcDbLine
 10
0.15
 20
-0.8912700000000082
 11
0.3
 21
-1.171695000000008
  0
LINE
  5
91
100
AcDbEntity
  8
points
  6
ByLayer
 62
  256
370
   -1
100
AcDbLine
 10
0.3
 20
-1.171695000000008
 11
0.6
 21
-1.576890000000009
  0
LINE
  5
92
100
AcDbEntity
  8
points
  6
ByLayer
 62
  256
370
   -1
100
AcDbLine
 10
0.6
 20
-1.576890000000009
 11
1.2
 21
-2.142930000000009
  0
LINE
  5
93
100
AcDbEntity
  8
points
  6
ByLayer
 62
  256
370
   -1
100
AcDbLine
 10
1.2
 20
-2.142930000000009
 11
1.8
 21
-2.545995000000008
  0
LINE
  5
94
100
AcDbEntity
  8
points
  6
ByLayer
 62
  256
370
   -1
100
AcDbLine
 10
1.8
 20
-2.545995000000008
 11
3
 21
-3.040845000000008
  0
LINE
  5
95
100
AcDbEntity
  8
points
  6
ByLayer
 62
  256
370
   -1
100
AcDbLine
 10
3
 20
-3.040845000000008
 11
4.5
 21
-3.390840000000009
  0
LINE
  5
96
100
AcDbEntity
  8
points
  6
ByLayer
 62
  256
370
   -1
100
AcDbLine
 10
4.5
 20
-3.390840000000009
 11
6
 21
-3.678165000000009
  0
LINE
  5
97
100
AcDbEntity
  8
points
  6
ByLayer
 62
  256
370
   -1
100
AcDbLine
 10
6
 20
-3.678165000000009
 11
7.5
 21
-3.906780000000008
  0
LINE
  5
98
100
AcDbEntity
  8
points
  6
ByLayer
 62
  256
370
   -1
100
AcDbLine
 10
7.5
 20
-3.906780000000008
 11
9
 21
-4.069155000000009
  0
LINE
  5
99
100
AcDbEntity
  8
points
  6
ByLayer
 62
  256
370
   -1
100
AcDbLine
 10
9
 20
-4.069155000000009
 11
12
 21
-4.268925000000007
  0
LINE
  5
9A
100
AcDbEntity
  8
points
  6
ByLayer
 62
  256
370
   -1
100
AcDbLine
 10
12
 20
-4.268925000000007
 11
15
 21
-4.406790000000009
  0
LINE
  5
9B
100
AcDbEntity
  8
points
  6
ByLayer
 62
  256
370
   -1
100
AcDbLine
 10
15
 20
-4.406790000000009
 11
18
 21
-4.494495000000009
  0
LINE
  5
9C
100
AcDbEntity
  8
points
  6
ByLayer
 62
  256
370
   -1
100
AcDbLine
 10
18
 20
-4.494495000000009
 11
21
 21
-4.536060000000009
  0
LINE
  5
9D
100
AcDbEntity
  8
points
  6
ByLayer
 62
  256
370
   -1
100
AcDbLine
 10
21
 20
-4.536060000000009
 11
24
 21
-4.538190000000007
  0
LINE
  5
9E
100
AcDbEntity
  8
points
  6
ByLayer
 62
  256
370
   -1
100
AcDbLine
 10
24
 20
-4.538190000000007
 11
27
 21
-4.507350000000009
  0
LINE
  5
9F
100
AcDbEntity
  8
points
  6
ByLayer
 62
  256
370
   -1
100
AcDbLine
 10
27
 20
-4.507350000000009
 11
30
 21
-4.449840000000009
  0
LINE
  5
A0
100
AcDbEntity
  8
points
  6
ByLayer
 62
  256
370
   -1
100
AcDbLine
 10
30
 20
-4.449840000000009
 11
33
 21
-4.371675000000009
  0
LINE
  5
A1
100
AcDbEntity
  8
points
  6
ByLayer
 62
  256
370
   -1
100
AcDbLine
 10
33
 20
-4.371675000000009
 11
36
 21
-4.277715000000009
  0
LINE
  5
A2
100
AcDbEntity
  8
points
  6
ByLayer
 62
  256
370
   -1
100
AcDbLine
 10
36
 20
-4.277715000000009
 11
39
 21
-4.172460000000009
  0
LINE
  5
A3
100
AcDbEntity
  8
points
  6
ByLayer
 62
  256
370
   -1
100
AcDbLine
 10
39
 20
-4.172460000000009
 11
42
 21
-4.060440000000009
  0
LINE
  5
A4
100
AcDbEntity
  8
points
  6
ByLayer
 62
  256
370
   -1
100
AcDbLine
 10
42
 20
-4.060440000000009
 11
45
 21
-3.946185000000009
  0
LINE
  5
A5
100
AcDbEntity
  8
points
  6
ByLayer
 62
  256
370
   -1
100
AcDbLine
 10
45
 20
-3.946185000000009
 11
48
 21
-3.833475000000009
  0
LINE
  5
A6
100
AcDbEntity
  8
points
  6
ByLayer
 62
  256
370
   -1
100
AcDbLine
 10
48
 20
-3.833475000000009
 11
51
 21
-3.722640000000009
  0
LINE
  5
A7
100
AcDbEntity
  8
points
  6
ByLayer
 62
  256
370
   -1
100
AcDbLine
 10
51
 20
-3.722640000000009
 11
54
 21
-3.613050000000009
  0
LINE
  5
A8
100
AcDbEntity
  8
points
  6
ByLayer
 62
  256
370
   -1
100
AcDbLine
 10
54
 20
-3.613050000000009
 11
57
 21
-3.504090000000008
  0
LINE
  5
A9
100
AcDbEntity
  8
points
  6
ByLayer
 62
  256
370
   -1
100
AcDbLine
 10
57
 20
-3.504090000000008
 11
60
 21
-3.395115000000009
  0
LINE
  5
AA
100
AcDbEntity
  8
points
  6
ByLayer
 62
  256
370
   -1
100
AcDbLine
 10
60
 20
-3.395115000000009
 11
63
 21
-3.285630000000009
  0
LINE
  5
AB
100
AcDbEntity
  8
points
  6
ByLayer
 62
  256
370
   -1
100
AcDbLine
 10
63
 20
-3.285630000000009
 11
66
 21
-3.175620000000009
  0
LINE
  5
AC
100
AcDbEntity
  8
points
  6
ByLayer
 62
  256
370
   -1
100
AcDbLine
 10
66
 20
-3.175620000000009
 11
69
 21
-3.065295000000009
  0
LINE
  5
AD
100
AcDbEntity
  8
points
  6
ByLayer
 62
  256
370
   -1
100
AcDbLine
 10
69
 20
-3.065295000000009
 11
71.99999999999999
 21
-2.954790000000009
  0
LINE
  5
AE
100
AcDbEntity
  8
points
  6
ByLayer
 62
  256
370
   -1
100
AcDbLine
 10
71.99999999999999
 20
-2.954790000000009
 11
75
 21
-2.844285000000009
  0
LINE
  5
AF
100
AcDbEntity
  8
points
  6
ByLayer
 62
  256
370
   -1
100
AcDbLine
 10
75
 20
-2.844285000000009
 11
78.00000000000001
 21
-2.733930000000009
  0
LINE
  5
B0
100
AcDbEntity
  8
points
  6
ByLayer
 62
  256
370
   -1
100
AcDbLine
 10
78.00000000000001
 20
-2.733930000000009
 11
81.00000000000001
 21
-2.623710000000008
  0
LINE
  5
B1
100
AcDbEntity
  8
points
  6
ByLayer
 62
  256
370
   -1
100
AcDbLine
 10
81.00000000000001
 20
-2.623710000000008
 11
84
 21
-2.513580000000009
  0
LINE
  5
B2
100
AcDbEntity
  8
points
  6
ByLayer
 62
  256
370
   -1
100
AcDbLine
 10
84
 20
-2.513580000000009
 11
87
 21
-2.403480000000008
  0
LINE
  5
B3
100
AcDbEntity
  8
points
  6
ByLayer
 62
  256
370
   -1
100
AcDbLine
 10
87
 20
-2.403480000000008
 11
90
 21
-2.293395000000009
  0
LINE
  5
B4
100
AcDbEntity
  8
points
  6
ByLayer
 62
  256
370
   -1
100
AcDbLine
 10
90
 20
-2.293395000000009
 11
93
 21
-2.183265000000008
  0
LINE
  5
B5
100
AcDbEntity
  8
points
  6
ByLayer
 62
  256
370
   -1
100
AcDbLine
 10
93
 20
-2.183265000000008
 11
96
 21
-2.073105000000009
  0
LINE
  5
B6
100
AcDbEntity
  8
points
  6
ByLayer
 62
  256
370
   -1
100
AcDbLine
 10
96
 20
-2.073105000000009
 11
99
 21
-1.962930000000009
  0
LINE
  5
B7
100
AcDbEntity
  8
points
  6
ByLayer
 62
  256
370
   -1
100
AcDbLine
 10
99
 20
-1.962930000000009
 11
102
 21
-1.852725000000009
  0
LINE
  5
B8
100
AcDbEntity
  8
points
  6
ByLayer
 62
  256
370
   -1
100
AcDbLine
 10
102
 20
-1.852725000000009
 11
105
 21
-1.742535000000009
  0
LINE
  5
B9
100
AcDbEntity
  8
points
  6
ByLayer
 62
  256
370
   -1
100
AcDbLine
 10
105
 20
-1.742535000000009
 11
108
 21
-1.632345000000007
  0
LINE
  5
BA
100
AcDbEntity
  8
points
  6
ByLayer
 62
  256
370
   -1
100
AcDbLine
 10
108
 20
-1.632345000000007
 11
111
 21
-1.522170000000009
  0
LINE
  5
BB
100
AcDbEntity
  8
points
  6
ByLayer
 62
  256
370
   -1
100
AcDbLine
 10
111
 20
-1.522170000000009
 11
114
 21
-1.411995000000008
  0
LINE
  5
BC
100
AcDbEntity
  8
points
  6
ByLayer
 62
  256
370
   -1
100
AcDbLine
 10
114
 20
-1.411995000000008
 11
117
 21
-1.301820000000009
  0
LINE
  5
BD
100
AcDbEntity
  8
points
  6
ByLayer
 62
  256
370
   -1
100
AcDbLine
 10
117
 20
-1.301820000000009
 11
120
 21
-1.191645000000008
  0
LINE
  5
BE
100
AcDbEntity
  8
points
  6
ByLayer
 62
  256
370
   -1
100
AcDbLine
 10
120
 20
-1.191645000000008
 11
123
 21
-1.081470000000008
  0
LINE
  5
BF
100
AcDbEntity
  8
points
  6
ByLayer
 62
  256
370
   -1
100
AcDbLine
 10
123
 20
-1.081470000000008
 11
126
 21
-0.9712950000000081
  0
LINE
  5
C0
100
AcDbEntity
  8
points
  6
ByLayer
 62
  256
370
   -1
100
AcDbLine
 10
126
 20
-0.9712950000000081
 11
129
 21
-0.8611200000000083
  0
LINE
  5
C1
100
AcDbEntity
  8
points
  6
ByLayer
 62
  256
370
   -1
100
AcDbLine
 10
129
 20
-0.8611200000000083
 11
132
 21
-0.7509450000000082
  0
LINE
  5
C2
100
AcDbEntity
  8
points
  6
ByLayer
 62
  256
370
   -1
100
AcDbLine
 10
132
 20
-0.7509450000000082
 11
135
 21
-0.6407700000000083
  0
LINE
  5
C3
100
AcDbEntity
  8
points
  6
ByLayer
 62
  256
370
   -1
100
AcDbLine
 10
137.5
 20
-0.2500000000000001
 11
150
 21
0.08989499999999173
  0
LINE
  5
C4
100
AcDbEntity
  8
points
  6
ByLayer
 62
  256
370
   -1
100
AcDbLine
 10
137.5
 20
-0.2500000000000003
 11
137.5
 21
-0.5000000000000006
  0
LINE
  5
C5
100
AcDbEntity
  8
points
  6
ByLayer
 62
  256
370
   -1
100
AcDbLine
 10
135
 20
-0.6407700000000083
 11
137.5
 21
-0.5
  0
CIRCLE
  5
C6
100
AcDbEntity
  8
points
  6
ByLayer
 62
  256
370
   -1
100
AcDbCircle
 10
60
 20
5
 40
4
  0
LWPOLYLINE
  5
C7
100
AcDbEntity
  8
points
  6
ByLayer
 62
  256
370
   -1
100
AcDbPolyline
 90
    4
 70
    1
 43
0
 10
-0.0375
 20
17.35025000000001
 10
9.9625
 20
17.35025000000001
 10
9.9625
 20
19.35025000000001
 10
-0.0375
 20
19.35025000000001
  0
LINE
  5
C8
100
AcDbEntity
  8
points
  6
ByLayer
 62
  256
370
   -1
100
AcDbLine
 10
-0.0375
 20
18.35025
 11
-0.0375
 21
18.35025
  0
LINE
  5
C9
100
AcDbEntity
  8
points
  6
ByLayer
 62
  256
370
   -1
100
AcDbLine
 10
-0.0375
 20
18.35025
 11
0.0375
 21
18.7011
  0
LINE
  5
CA
100
AcDbEntity
  8
points
  6
ByLayer
 62
  256
370
   -1
100
AcDbLine
 10
0.0375
 20
18.7011
 11
0.1125
 21
18.909315
  0
LINE
  5
CB
100
AcDbEntity
  8
points
  6
ByLayer
 62
  256
370
   -1
100
AcDbLine
 10
0.1125
 20
18.909315
 11
0.2625
 21
19.220625
  0
LINE
  5
CC
100
AcDbEntity
  8
points
  6
ByLayer
 62
  256
370
   -1
100
AcDbLine
 10
0.2625
 20
19.220625
 11
0.5625
 21
19.68882
  0
LINE
  5
CD
100
AcDbEntity
  8
points
  6
ByLayer
 62
  256
370
   -1
100
AcDbLine
 10
0.5625
 20
19.68882
 11
1.1625
 21
20.4105
  0
LINE
  5
CE
100
AcDbEntity
  8
points
  6
ByLayer
 62
  256
370
   -1
100
AcDbLine
 10
1.1625
 20
20.4105
 11
1.7625
 21
21.028965
  0
LINE
  5
CF
100
AcDbEntity
  8
points
  6
ByLayer
 62
  256
370
   -1
100
AcDbLine
 10
1.7625
 20
21.028965
 11
2.9625
 21
22.156275
  0
LINE
  5
D0
100
AcDbEntity
  8
points
  6
ByLayer
 62
  256
370
   -1
100
AcDbLine
 10
2.9625
 20
22.156275
 11
4.4625
 21
23.303475
  0
LINE
  5
D1
100
AcDbEntity
  8
points
  6
ByLayer
 62
  256
370
   -1
100
AcDbLine
 10
4.4625
 20
23.303475
 11
5.9625
 21
24.219495
  0
LINE
  5
D2
100
AcDbEntity
  8
points
  6
ByLayer
 62
  256
370
   -1
100
AcDbLine
 10
5.9625
 20
24.219495
 11
7.4625
 21
24.991545
  0
LINE
  5
D3
100
AcDbEntity
  8
points
  6
ByLayer
 62
  256
370
   -1
100
AcDbLine
 10
7.4625
 20
24.991545
 11
8.9625
 21
25.663815
  0
LINE
  5
D4
100
AcDbEntity
  8
points
  6
ByLayer
 62
  256
370
   -1
100
AcDbLine
 10
8.9625
 20
25.663815
 11
11.9625
 21
26.81487
  0
LINE
  5
D5
100
AcDbEntity
  8
points
  6
ByLayer
 62
  256
370
   -1
100
AcDbLine
 10
11.9625
 20
26.81487
 11
14.9625
 21
27.799965
  0
LINE
  5
D6
100
AcDbEntity
  8
points
  6
ByLayer
 62
  256
370
   -1
100
AcDbLine
 10
14.9625
 20
27.799965
 11
17.9625
 21
28.64331
  0
LINE
  5
D7
100
AcDbEntity
  8
points
  6
ByLayer
 62
  256
370
   -1
100
AcDbLine
 10
17.9625
 20
28.64331
 11
20.9625
 21
29.36565
  0
LINE
  5
D8
100
AcDbEntity
  8
points
  6
ByLayer
 62
  256
370
   -1
100
AcDbLine
 10
20.9625
 20
29.36565
 11
23.9625
 21
29.985855
  0
LINE
  5
D9
100
AcDbEntity
  8
points
  6
ByLayer
 62
  256
370
   -1
100
AcDbLine
 10
23.9625
 20
29.985855
 11
26.9625
 21
30.510555
  0
LINE
  5
DA
100
AcDbEntity
  8
points
  6
ByLayer
 62
  256
370
   -1
100
AcDbLine
 10
26.9625
 20
30.510555
 11
29.9625
 21
30.93828
  0
LINE
  5
DB
100
AcDbEntity
  8
points
  6
ByLayer
 62
  256
370
   -1
100
AcDbLine
 10
29.9625
 20
30.93828
 11
32.9625
 21
31.271745
  0
LINE
  5
DC
100
AcDbEntity
  8
points
  6
ByLayer
 62
  256
370
   -1
100
AcDbLine
 10
32.9625
 20
31.271745
 11
35.9625
 21
31.52487
  0
LINE
  5
DD
100
AcDbEntity
  8
points
  6
ByLayer
 62
  256
370
   -1
100
AcDbLine
 10
35.9625
 20
31.52487
 11
38.9625
 21
31.71285
  0
LINE
  5
DE
100
AcDbEntity
  8
points
  6
ByLayer
 62
  256
370
   -1
100
AcDbLine
 10
38.9625
 20
31.71285
 11
41.9625
 21
31.85049
  0
LINE
  5
DF
100
AcDbEntity
  8
points
  6
ByLayer
 62
  256
370
   -1
100
AcDbLine
 10
41.9625
 20
31.85049
 11
44.9625
 21
31.95231
  0
LINE
  5
E0
100
AcDbEntity
  8
points
  6
ByLayer
 62
  256
370
   -1
100
AcDbLine
 10
44.9625
 20
31.95231
 11
47.9625
 21
32.028105
  0
LINE
  5
E1
100
AcDbEntity
  8
points
  6
ByLayer
 62
  256
370
   -1
100
AcDbLine
 10
47.9625
 20
32.028105
 11
50.9625
 21
32.076435
  0
LINE
  5
E2
100
AcDbEntity
  8
points
  6
ByLayer
 62
  256
370
   -1
100
AcDbLine
 10
50.9625
 20
32.076435
 11
53.9625
 21
32.09424
  0
LINE
  5
E3
100
AcDbEntity
  8
points
  6
ByLayer
 62
  256
370
   -1
100
AcDbLine
 10
53.9625
 20
32.09424
 11
56.9625
 21
32.07843
  0
LINE
  5
E4
100
AcDbEntity
  8
points
  6
ByLayer
 62
  256
370
   -1
100
AcDbLine
 10
56.9625
 20
32.07843
 11
59.9625
 21
32.02593
  0
LINE
  5
E5
100
AcDbEntity
  8
points
  6
ByLayer
 62
  256
370
   -1
100
AcDbLine
 10
59.9625
 20
32.02593
 11
62.9625
 21
31.935105
  0
LINE
  5
E6
100
AcDbEntity
  8
points
  6
ByLayer
 62
  256
370
   -1
100
AcDbLine
 10
62.9625
 20
31.935105
 11
65.96250000000001
 21
31.807875
  0
LINE
  5
E7
100
AcDbEntity
  8
points
  6
ByLayer
 62
  256
370
   -1
100
AcDbLine
 10
65.96250000000001
 20
31.807875
 11
68.96250000000001
 21
31.646655
  0
LINE
  5
E8
100
AcDbEntity
  8
points
  6
ByLayer
 62
  256
370
   -1
100
AcDbLine
 10
68.96250000000001
 20
31.646655
 11
71.96249999999999
 21
31.45383
  0
LINE
  5
E9
100
AcDbEntity
  8
points
  6
ByLayer
 62
  256
370
   -1
100
AcDbLine
 10
71.96249999999999
 20
31.45383
 11
74.96250000000001
 21
31.23183
  0
LINE
  5
EA
100
AcDbEntity
  8
points
  6
ByLayer
 62
  256
370
   -1
100
AcDbLine
 10
74.96250000000001
 20
31.23183
 11
77.96250000000002
 21
30.982425
  0
LINE
  5
EB
100
AcDbEntity
  8
points
  6
ByLayer
 62
  256
370
   -1
100
AcDbLine
 10
77.96250000000002
 20
30.982425
 11
80.96250000000002
 21
30.70593
  0
LINE
  5
EC
100
AcDbEntity
  8
points
  6
ByLayer
 62
  256
370
   -1
100
AcDbLine
 10
80.96250000000002
 20
30.70593
 11
83.96250000000001
 21
30.40245
  0
LINE
  5
ED
100
AcDbEntity
  8
points
  6
ByLayer
 62
  256
370
   -1
100
AcDbLine
 10
83.96250000000001
 20
30.40245
 11
86.96250000000001
 21
30.072015
  0
LINE
  5
EE
100
AcDbEntity
  8
points
  6
ByLayer
 62
  256
370
   -1
100
AcDbLine
 10
86.96250000000001
 20
30.072015
 11
89.96250000000001
 21
29.714745
  0
LINE
  5
EF
100
AcDbEntity
  8
points
  6
ByLayer
 62
  256
370
   -1
100
AcDbLine
 10
101.9625
 20
28.037895
 11
104.9625
 21
27.565185
  0
LINE
  5
F0
100
AcDbEntity
  8
points
  6
ByLayer
 62
  256
370
   -1
100
AcDbLine
 10
104.9625
 20
27.565185
 11
107.9625
 21
27.074235
  0
LINE
  5
F1
100
AcDbEntity
  8
points
  6
ByLayer
 62
  256
370
   -1
100
AcDbLine
 10
107.9625
 20
27.074235
 11
110.9625
 21
26.565375
  0
LINE
  5
F2
100
AcDbEntity
  8
points
  6
ByLayer
 62
  256
370
   -1
100
AcDbLine
 10
110.9625
 20
26.565375
 11
113.9625
 21
26.038725
  0
LINE
  5
F3
100
AcDbEntity
  8
points
  6
ByLayer
 62
  256
370
   -1
100
AcDbLine
 10
113.9625
 20
26.038725
 11
116.9625
 21
25.494465
  0
LINE
  5
F4
100
AcDbEntity
  8
points
  6
ByLayer
 62
  256
370
   -1
100
AcDbLine
 10
116.9625
 20
25.494465
 11
119.9625
 21
24.93279
  0
LINE
  5
F5
100
AcDbEntity
  8
points
  6
ByLayer
 62
  256
370
   -1
100
AcDbLine
 10
119.9625
 20
24.93279
 11
122.9625
 21
24.353925
  0
LINE
  5
F6
100
AcDbEntity
  8
points
  6
ByLayer
 62
  256
370
   -1
100
AcDbLine
 10
122.9625
 20
24.353925
 11
125.9625
 21
23.75829
  0
LINE
  5
F7
100
AcDbEntity
  8
points
  6
ByLayer
 62
  256
370
   -1
100
AcDbLine
 10
125.9625
 20
23.75829
 11
128.9625
 21
23.14635
  0
LINE
  5
F8
100
AcDbEntity
  8
points
  6
ByLayer
 62
  256
370
   -1
100
AcDbLine
 10
128.9625
 20
23.14635
 11
131.9625
 21
22.518615
  0
LINE
  5
F9
100
AcDbEntity
  8
points
  6
ByLayer
 62
  256
370
   -1
100
AcDbLine
 10
131.9625
 20
22.518615
 11
134.9625
 21
21.875625
  0
LINE
  5
FA
100
AcDbEntity
  8
points
  6
ByLayer
 62
  256
370
   -1
100
AcDbLine
 10
134.9625
 20
21.875625
 11
137.9625
 21
21.21759
  0
LINE
  5
FB
100
AcDbEntity
  8
points
  6
ByLayer
 62
  256
370
   -1
100
AcDbLine
 10
137.9625
 20
21.21759
 11
140.9625
 21
20.543835
  0
LINE
  5
FC
100
AcDbEntity
  8
points
  6
ByLayer
 62
  256
370
   -1
100
AcDbLine
 10
140.9625
 20
20.543835
 11
143.9625
 21
19.85373
  0
LINE
  5
FD
100
AcDbEntity
  8
points
  6
ByLayer
 62
  256
370
   -1
100
AcDbLine
 10
143.9625
 20
19.85373
 11
145.4625
 21
19.50327
  0
LINE
  5
FE
100
AcDbEntity
  8
points
  6
ByLayer
 62
  256
370
   -1
100
AcDbLine
 10
145.4625
 20
19.50327
 11
146.9625
 21
19.150275
  0
LINE
  5
FF
100
AcDbEntity
  8
points
  6
ByLayer
 62
  256
370
   -1
100
AcDbLine
 10
146.9625
 20
19.150275
 11
148.4625
 21
18.7956
  0
LINE
  5
100
100
AcDbEntity
  8
points
  6
ByLayer
 62
  256
370
   -1
100
AcDbLine
 10
148.4625
 20
18.7956
 11
149.9625
 21
18.440145
  0
LINE
  5
101
100
AcDbEntity
  8
points
  6
ByLayer
 62
  256
370
   -1
100
AcDbLine
 10
-0.0375
 20
18.35025
 11
0.0375
 21
17.64975
  0
LINE
  5
102
100
AcDbEntity
  8
points
  6
ByLayer
 62
  256
370
   -1
100
AcDbLine
 10
0.0375
 20
17.64975
 11
0.1125
 21
17.45898
  0
LINE
  5
103
100
AcDbEntity
  8
points
  6
ByLayer
 62
  256
370
   -1
100
AcDbLine
 10
0.1125
 20
17.45898
 11
0.2625
 21
17.178555
  0
LINE
  5
104
100
AcDbEntity
  8
points
  6
ByLayer
 62
  256
370
   -1
100
AcDbLine
 10
0.2625
 20
17.178555
 11
0.5625
 21
16.77336
  0
LINE
  5
105
100
AcDbEntity
  8
points
  6
ByLayer
 62
  256
370
   -1
100
AcDbLine
 10
0.5625
 20
16.77336
 11
1.1625
 21
16.20732
  0
LINE
  5
106
100
AcDbEntity
  8
points
  6
ByLayer
 62
  256
370
   -1
100
AcDbLine
 10
1.1625
 20
16.20732
 11
1.7625
 21
15.804255
  0
LINE
  5
107
100
AcDbEntity
  8
points
  6
ByLayer
 62
  256
370
   -1
100
AcDbLine
 10
1.7625
 20
15.804255
 11
2.9625
 21
15.309405
  0
LINE
  5
108
100
AcDbEntity
  8
points
  6
ByLayer
 62
  256
370
   -1
100
AcDbLine
 10
2.9625
 20
15.309405
 11
4.4625
 21
14.95941
  0
LINE
  5
109
100
AcDbEntity
  8
points
  6
ByLayer
 62
  256
370
   -1
100
AcDbLine
 10
4.4625
 20
14.95941
 11
5.9625
 21
14.672085
  0
LINE
  5
10A
100
AcDbEntity
  8
points
  6
ByLayer
 62
  256
370
   -1
100
AcDbLine
 10
5.9625
 20
14.672085
 11
7.4625
 21
14.44347
  0
LINE
  5
10B
100
AcDbEntity
  8
points
  6
ByLayer
 62
  256
370
   -1
100
AcDbLine
 10
7.4625
 20
14.44347
 11
8.9625
 21
14.281095
  0
LINE
  5
10C
100
AcDbEntity
  8
points
  6
ByLayer
 62
  256
370
   -1
100
AcDbLine
 10
8.9625
 20
14.281095
 11
11.9625
 21
14.081325
  0
LINE
  5
10D
100
AcDbEntity
  8
points
  6
ByLayer
 62
  256
370
   -1
100
AcDbLine
 10
11.9625
 20
14.081325
 11
14.9625
 21
13.94346
  0
LINE
  5
10E
100
AcDbEntity
  8
points
  6
ByLayer
 62
  256
370
   -1
100
AcDbLine
 10
14.9625
 20
13.94346
 11
17.9625
 21
13.855755
  0
LINE
  5
10F
100
AcDbEntity
  8
points
  6
ByLayer
 62
  256
370
   -1
100
AcDbLine
 10
17.9625
 20
13.855755
 11
20.9625
 21
13.81419
  0
LINE
  5
110
100
AcDbEntity
  8
points
  6
ByLayer
 62
  256
370
   -1
100
AcDbLine
 10
20.9625
 20
13.81419
 11
23.9625
 21
13.81206
  0
LINE
  5
111
100
AcDbEntity
  8
points
  6
ByLayer
 62
  256
370
   -1
100
AcDbLine
 10
23.9625
 20
13.81206
 11
26.9625
 21
13.8429
  0
LINE
  5
112
100
AcDbEntity
  8
points
  6
ByLayer
 62
  256
370
   -1
100
AcDbLine
 10
26.9625
 20
13.8429
 11
29.9625
 21
13.90041
  0
LINE
  5
113
100
AcDbEntity
  8
points
  6
ByLayer
 62
  256
370
   -1
100
AcDbLine
 10
29.9625
 20
13.90041
 11
32.9625
 21
13.978575
  0
LINE
  5
114
100
AcDbEntity
  8
points
  6
ByLayer
 62
  256
370
   -1
100
AcDbLine
 10
32.9625
 20
13.978575
 11
35.9625
 21
14.072535
  0
LINE
  5
115
100
AcDbEntity
  8
points
  6
ByLayer
 62
  256
370
   -1
100
AcDbLine
 10
35.9625
 20
14.072535
 11
38.9625
 21
14.17779
  0
LINE
  5
116
100
AcDbEntity
  8
points
  6
ByLayer
 62
  256
370
   -1
100
AcDbLine
 10
38.9625
 20
14.17779
 11
41.9625
 21
14.28981
  0
LINE
  5
117
100
AcDbEntity
  8
points
  6
ByLayer
 62
  256
370
   -1
100
AcDbLine
 10
41.9625
 20
14.28981
 11
44.9625
 21
14.404065
  0
LINE
  5
118
100
AcDbEntity
  8
points
  6
ByLayer
 62
  256
370
   -1
100
AcDbLine
 10
44.9625
 20
14.404065
 11
47.9625
 21
14.516775
  0
LINE
  5
119
100
AcDbEntity
  8
points
  6
ByLayer
 62
  256
370
   -1
100
AcDbLine
 10
47.9625
 20
14.516775
 11
50.9625
 21
14.62761
  0
LINE
  5
11A
100
AcDbEntity
  8
points
  6
ByLayer
 62
  256
370
   -1
100
AcDbLine
 10
50.9625
 20
14.62761
 11
53.9625
 21
14.7372
  0
LINE
  5
11B
100
AcDbEntity
  8
points
  6
ByLayer
 62
  256
370
   -1
100
AcDbLine
 10
53.9625
 20
14.7372
 11
56.9625
 21
14.84616
  0
LINE
  5
11C
100
AcDbEntity
  8
points
  6
ByLayer
 62
  256
370
   -1
100
AcDbLine
 10
56.9625
 20
14.84616
 11
59.9625
 21
14.955135
  0
LINE
  5
11D
100
AcDbEntity
  8
points
  6
ByLayer
 62
  256
370
   -1
100
AcDbLine
 10
59.9625
 20
14.955135
 11
62.9625
 21
15.06462
  0
LINE
  5
11E
100
AcDbEntity
  8
points
  6
ByLayer
 62
  256
370
   -1
100
AcDbLine
 10
62.9625
 20
15.06462
 11
65.96250000000001
 21
15.17463
  0
LINE
  5
11F
100
AcDbEntity
  8
points
  6
ByLayer
 62
  256
370
   -1
100
AcDbLine
 10
65.96250000000001
 20
15.17463
 11
68.96250000000001
 21
15.284955
  0
LINE
  5
120
100
AcDbEntity
  8
points
  6
ByLayer
 62
  256
370
   -1
100
AcDbLine
 10
68.96250000000001
 20
15.284955
 11
71.96249999999999
 21
15.39546
  0
LINE
  5
121
100
AcDbEntity
  8
points
  6
ByLayer
 62
  256
370
   -1
100
AcDbLine
 10
71.96249999999999
 20
15.39546
 11
74.96250000000001
 21
15.505965
  0
LINE
  5
122
100
AcDbEntity
  8
points
  6
ByLayer
 62
  256
370
   -1
100
AcDbLine
 10
74.96250000000001
 20
15.505965
 11
77.96250000000002
 21
15.61632
  0
LINE
  5
123
100
AcDbEntity
  8
points
  6
ByLayer
 62
  256
370
   -1
100
AcDbLine
 10
77.96250000000002
 20
15.61632
 11
80.96250000000002
 21
15.72654
  0
LINE
  5
124
100
AcDbEntity
  8
points
  6
ByLayer
 62
  256
370
   -1
100
AcDbLine
 10
80.96250000000002
 20
15.72654
 11
83.96250000000001
 21
15.83667
  0
LINE
  5
125
100
AcDbEntity
  8
points
  6
ByLayer
 62
  256
370
   -1
100
AcDbLine
 10
83.96250000000001
 20
15.83667
 11
86.96250000000001
 21
15.94677
  0
LINE
  5
126
100
AcDbEntity
  8
points
  6
ByLayer
 62
  256
370
   -1
100
AcDbLine
 10
95.96250000000001
 20
16.277145
 11
98.96250000000001
 21
16.38732
  0
LINE
  5
127
100
AcDbEntity
  8
points
  6
ByLayer
 62
  256
370
   -1
100
AcDbLine
 10
98.96250000000001
 20
16.38732
 11
101.9625
 21
16.497525
  0
LINE
  5
128
100
AcDbEntity
  8
points
  6
ByLayer
 62
  256
370
   -1
100
AcDbLine
 10
101.9625
 20
16.497525
 11
104.9625
 21
16.607715
  0
LINE
  5
129
100
AcDbEntity
  8
points
  6
ByLayer
 62
  256
370
   -1
100
AcDbLine
 10
104.9625
 20
16.607715
 11
107.9625
 21
16.717905
  0
LINE
  5
12A
100
AcDbEntity
  8
points
  6
ByLayer
 62
  256
370
   -1
100
AcDbLine
 10
107.9625
 20
16.717905
 11
110.9625
 21
16.82808
  0
LINE
  5
12B
100
AcDbEntity
  8
points
  6
ByLayer
 62
  256
370
   -1
100
AcDbLine
 10
110.9625
 20
16.82808
 11
113.9625
 21
16.938255
  0
LINE
  5
12C
100
AcDbEntity
  8
points
  6
ByLayer
 62
  256
370
   -1
100
AcDbLine
 10
113.9625
 20
16.938255
 11
116.9625
 21
17.04843
  0
LINE
  5
12D
100
AcDbEntity
  8
points
  6
ByLayer
 62
  256
370
   -1
100
AcDbLine
 10
116.9625
 20
17.04843
 11
119.9625
 21
17.158605
  0
LINE
  5
12E
100
AcDbEntity
  8
points
  6
ByLayer
 62
  256
370
   -1
100
AcDbLine
 10
119.9625
 20
17.158605
 11
122.9625
 21
17.26878
  0
LINE
  5
12F
100
AcDbEntity
  8
points
  6
ByLayer
 62
  256
370
   -1
100
AcDbLine
 10
122.9625
 20
17.26878
 11
125.9625
 21
17.378955
  0
LINE
  5
130
100
AcDbEntity
  8
points
  6
ByLayer
 62
  256
370
   -1
100
AcDbLine
 10
125.9625
 20
17.378955
 11
128.9625
 21
17.48913
  0
LINE
  5
131
100
AcDbEntity
  8
points
  6
ByLayer
 62
  256
370
   -1
100
AcDbLine
 10
128.9625
 20
17.48913
 11
131.9625
 21
17.599305
  0
LINE
  5
132
100
AcDbEntity
  8
points
  6
ByLayer
 62
  256
370
   -1
100
AcDbLine
 10
131.9625
 20
17.599305
 11
134.9625
 21
17.70948
  0
LINE
  5
133
100
AcDbEntity
  8
points
  6
ByLayer
 62
  256
370
   -1
100
AcDbLine
 10
137.4625
 20
18.10025000000001
 11
149.9625
 21
18.440145
  0
LINE
  5
134
100
AcDbEntity
  8
points
  6
ByLayer
 62
  256
370
   -1
100
AcDbLine
 10
137.4625
 20
18.10025000000001
 11
137.4625
 21
17.85025000000001
  0
LINE
  5
135
100
AcDbEntity
  8
points
  6
ByLayer
 62
  256
370
   -1
100
AcDbLine
 10
134.9625
 20
17.70948
 11
137.4625
 21
17.85025000000001
  0
CIRCLE
  5
136
100
AcDbEntity
  8
points
  6
ByLayer
 62
  256
370
   -1
100
AcDbCircle
 10
59.9625
 20
23.35025000000001
 40
4
  0
ARC
  5
137
100
AcDbEntity
  8
0
  6
ByLayer
 62
  256
370
   -1
100
AcDbCircle
 10
92
 20
22
 40
7.542087318382096
100
AcDbArc
 50
94.08674799261513
 51
230.1944289077348
  0
LWPOLYLINE
  5
138
100
AcDbEntity
  8
SG22
  6
ByLayer
 62
  256
370
   -1
100
AcDbPolyline
 90
    4
 70
    1
 43
0
 10
76
 20
-2
 10
98
 20
-2
 10
98
 20
10
 10
76
 20
10
  0
LWPOLYLINE
  5
139
100
AcDbEntity
  8
SG22
  6
ByLayer
 62
  256
370
   -1
100
AcDbPolyline
 90
    4
 70
    1
 43
0
 10
71
 20
-2
 10
104
 20
-2
 10
104
 20
10
 10
71
 20
10
  0
CIRCLE
  5
13A
100
AcDbEntity
  8
SG22
  6
ByLayer
 62
  256
370
   -1
100
AcDbCircle
 10
92
 20
4
 40
6.082762530298219
  0
ARC
  5
13B
100
AcDbEntity
  8
0
  6
ByLayer
 62
  256
370
   -1
100
AcDbCircle
 10
91.96250000000001
 20
22.35025000000001
 40
6.082762530298218
100
AcDbArc
 50
90
 51
270.3383436489588
  0
LINE
  5
13C
100
AcDbEntity
  8
0
  6
ByLayer
 62
  256
370
   -1
100
AcDbLine
 10
91.99841978547916
 20
16.26759352696036
 11
95.96250000000001
 21
16.277145
  0
LINE
  5
13D
100
AcDbEntity
  8
0
  6
ByLayer
 62
  256
370
   -1
100
AcDbLine
 10
91.96250000000001
 20
28.43301253029823
 11
102
 21
28
  0
LINE
  5
13E
100
AcDbEntity
  8
0
  6
ByLayer
 62
  256
370
   -1
100
AcDbLine
 10
89.96250000000001
 20
29.714745
 11
91.46250000000001
 21
29.52291
  0
LINE
  5
13F
100
AcDbEntity
  8
0
  6
ByLayer
 62
  256
370
   -1
100
AcDbLine
 10
86.96250000000001
 20
15.94677
 11
87.40000000000002
 21
16
  0
LINE
  5
140
100
AcDbEntity
  8
0
  6
ByLayer
 62
  256
370
   -1
100
AcDbLine
 10
87.40000000000002
 20
16
 11
87.20000000000002
 21
16.2
  0
ENDSEC
  0
SECTION
  2
OBJECTS
  0
DICTIONARY
  5
C
330
0
100
AcDbDictionary
281
    1
  3
ACAD_GROUP
350
D
  0
DICTIONARY
  5
D
330
C
100
AcDbDictionary
281
    1
  0
ENDSEC
  0
EOF
