999
dxfrw 0.6.3
  0
SECTION
  2
HEADER
  9
$ACADVER
  1
AC1021
  9
$DWGCODEPAGE
  3
ANSI_1252
  9
$INSBASE
 10
0
 20
0
 30
0
  9
$EXTMIN
 10
-7
 20
-7
 30
0
  9
$EXTMAX
 10
7
 20
7
 30
0
  9
$LIMMIN
 10
0
 20
0
  9
$LIMMAX
 10
420
 20
297
  9
$ORTHOMODE
 70
    0
  9
$REGENMODE
 70
    1
  9
$FILLMODE
 70
    1
  9
$QTEXTMODE
 70
    0
  9
$MIRRTEXT
 70
    0
  9
$LTSCALE
 40
1
  9
$ATTMODE
 70
    0
  9
$TEXTSIZE
 40
2.5
  9
$TRACEWID
 40
15.68
  9
$TEXTSTYLE
  7
STANDARD
  9
$CLAYER
  8
0
  9
$CELTYPE
  6
BYLAYER
  9
$CECOLOR
 62
  256
  9
$CELTSCALE
 40
1
  9
$DISPSILH
 70
    0
  9
$DIMSCALE
 40
2.5
  9
$DIMASZ
 40
2.5
  9
$DIMEXO
 40
0.625
  9
$DIMDLI
 40
3.75
  9
$DIMRND
 40
0
  9
$DIMDLE
 40
0
  9
$DIMEXE
 40
1.25
  9
$DIMTP
 40
0
  9
$DIMTM
 40
0
  9
$DIMTXT
 40
2.5
  9
$DIMCEN
 40
2.5
  9
$DIMTSZ
 40
0
  9
$DIMTOL
 70
    0
  9
$DIMLIM
 70
    0
  9
$DIMTIH
 70
    0
  9
$DIMTOH
 70
    0
  9
$DIMSE1
 70
    0
  9
$DIMSE2
 70
    0
  9
$DIMTAD
 70
    1
  9
$DIMZIN
 70
    8
  9
$DIMBLK
  1

  9
$DIMASO
 70
    1
  9
$DIMSHO
 70
    1
  9
$DIMPOST
  1

  9
$DIMAPOST
  1

  9
$DIMALT
 70
    0
  9
$DIMALTD
 70
    3
  9
$DIMALTF
 40
0.03937
  9
$DIMLFAC
 40
1
  9
$DIMTOFL
 70
    1
  9
$DIMTVP
 40
0
  9
$DIMTIX
 70
    0
  9
$DIMSOXD
 70
    0
  9
$DIMSAH
 70
    0
  9
$DIMBLK1
  1

  9
$DIMBLK2
  1

  9
$DIMSTYLE
  2
STANDARD
  9
$DIMCLRD
 70
    0
  9
$DIMCLRE
 70
    0
  9
$DIMCLRT
 70
    0
  9
$DIMTFAC
 40
1
  9
$DIMGAP
 40
0.625
  9
$DIMJUST
 70
    0
  9
$DIMSD1
 70
    0
  9
$DIMSD2
 70
    0
  9
$DIMTOLJ
 70
    0
  9
$DIMTZIN
 70
    8
  9
$DIMALTZ
 70
    0
  9
$DIMALTTZ
 70
    0
  9
$DIMUPT
 70
    0
  9
$DIMDEC
 70
    2
  9
$DIMTDEC
 70
    2
  9
$DIMALTU
 70
    2
  9
$DIMALTTD
 70
    3
  9
$DIMTXSTY
  7
STANDARD
  9
$DIMAUNIT
 70
    0
  9
$DIMADEC
 70
    0
  9
$DIMALTRND
 40
0
  9
$DIMAZIN
 70
    0
  9
$DIMDSEP
 70
   44
  9
$DIMATFIT
 70
    3
  9
$DIMFRAC
 70
    0
  9
$DIMLDRBLK
  1
STANDARD
  9
$DIMLUNIT
 70
    2
  9
$DIMLWD
 70
   -2
  9
$DIMLWE
 70
   -2
  9
$DIMTMOVE
 70
    0
  9
$DIMFXL
 40
1
  9
$DIMFXLON
 70
    0
  9
$DIMJOGANG
 40
0.7854
  9
$DIMTFILL
 70
    0
  9
$DIMTFILLCLR
 70
    0
  9
$DIMARCSYM
 70
    0
  9
$DIMLTYPE
  6

  9
$DIMLTEX1
  6

  9
$DIMLTEX2
  6

  9
$LUNITS
 70
    2
  9
$LUPREC
 70
    4
  9
$SKETCHINC
 40
1
  9
$FILLETRAD
 40
0
  9
$AUNITS
 70
    0
  9
$AUPREC
 70
    2
  9
$MENU
  1
.
  9
$ELEVATION
 40
0
  9
$PELEVATION
 40
0
  9
$THICKNESS
 40
0
  9
$LIMCHECK
 70
    0
  9
$CHAMFERA
 40
0
  9
$CHAMFERB
 40
0
  9
$CHAMFERC
 40
0
  9
$CHAMFERD
 40
0
  9
$SKPOLY
 70
    0
  9
$USRTIMER
 70
    1
  9
$ANGBASE
 50
0
  9
$ANGDIR
 70
    0
  9
$PDMODE
 70
   34
  9
$PDSIZE
 40
0
  9
$PLINEWID
 40
0
  9
$SPLFRAME
 70
    0
  9
$SPLINETYPE
 70
    2
  9
$SPLINESEGS
 70
    8
  9
$HANDSEED
  5
20000
  9
$SURFTAB1
 70
    6
  9
$SURFTAB2
 70
    6
  9
$SURFTYPE
 70
    6
  9
$SURFU
 70
    6
  9
$SURFV
 70
    6
  9
$UCSBASE
  2

  9
$UCSNAME
  2

  9
$UCSORG
 10
0
 20
0
 30
0
  9
$UCSXDIR
 10
1
 20
0
 30
0
  9
$UCSYDIR
 10
0
 20
1
 30
0
  9
$UCSORTHOREF
  2

  9
$UCSORTHOVIEW
 70
    0
  9
$UCSORGTOP
 10
0
 20
0
 30
0
  9
$UCSORGBOTTOM
 10
0
 20
0
 30
0
  9
$UCSORGLEFT
 10
0
 20
0
 30
0
  9
$UCSORGRIGHT
 10
0
 20
0
 30
0
  9
$UCSORGFRONT
 10
0
 20
0
 30
0
  9
$UCSORGBACK
 10
0
 20
0
 30
0
  9
$PUCSBASE
  2

  9
$PUCSNAME
  2

  9
$PUCSORG
 10
0
 20
0
 30
0
  9
$PUCSXDIR
 10
1
 20
0
 30
0
  9
$PUCSYDIR
 10
0
 20
1
 30
0
  9
$PUCSORTHOREF
  2

  9
$PUCSORTHOVIEW
 70
    0
  9
$PUCSORGTOP
 10
0
 20
0
 30
0
  9
$PUCSORGBOTTOM
 10
0
 20
0
 30
0
  9
$PUCSORGLEFT
 10
0
 20
0
 30
0
  9
$PUCSORGRIGHT
 10
0
 20
0
 30
0
  9
$PUCSORGFRONT
 10
0
 20
0
 30
0
  9
$PUCSORGBACK
 10
0
 20
0
 30
0
  9
$USERI1
 70
    0
  9
$USERI2
 70
    0
  9
$USERI3
 70
    0
  9
$USERI4
 70
    0
  9
$USERI5
 70
    0
  9
$USERR1
 40
0
  9
$USERR2
 40
0
  9
$USERR3
 40
0
  9
$USERR4
 40
0
  9
$USERR5
 40
0
  9
$WORLDVIEW
 70
    1
  9
$SHADEDGE
 70
    3
  9
$SHADEDIF
 70
   70
  9
$TILEMODE
 70
    1
  9
$MAXACTVP
 70
   64
  9
$PINSBASE
 10
0
 20
0
 30
0
  9
$PLIMCHECK
 70
    0
  9
$PEXTMIN
 10
0
 20
0
 30
0
  9
$PEXTMAX
 10
0
 20
0
 30
0
  9
$SNAPSTYLE
 70
    0
  9
$PLIMMIN
 10
0
 20
0
  9
$PLIMMAX
 10
210
 20
297
  9
$UNITMODE
 70
    0
  9
$VISRETAIN
 70
    1
  9
$PLINEGEN
 70
    0
  9
$PSLTSCALE
 70
    1
  9
$TREEDEPTH
 70
 3020
  9
$CMLSTYLE
  2
Standard
  9
$CMLJUST
 70
    0
  9
$CMLSCALE
 40
20
  9
$PROXYGRAPHICS
 70
    1
  9
$MEASUREMENT
 70
    1
  9
$CELWEIGHT
370
   -1
  9
$ENDCAPS
280
    0
  9
$JOINSTYLE
280
    0
  9
$LWDISPLAY
290
    0
  9
$INSUNITS
 70
    4
  9
$HYPERLINKBASE
  1

  9
$STYLESHEET
  1

  9
$XEDIT
290
    1
  9
$CEPSNTYPE
380
    0
  9
$PSTYLEMODE
290
    1
  9
$EXTNAMES
290
    1
  9
$PSVPSCALE
 40
1
  9
$OLESTARTUP
290
    0
  9
$SORTENTS
280
  127
  9
$INDEXCTL
280
    0
  9
$HIDETEXT
280
    1
  9
$XCLIPFRAME
290
    0
  9
$HALOGAP
280
    0
  9
$OBSCOLOR
 70
  257
  9
$OBSLTYPE
280
    0
  9
$INTERSECTIONDISPLAY
280
    0
  9
$INTERSECTIONCOLOR
 70
  257
  9
$DIMASSOC
280
    1
  9
$PROJECTNAME
  1

  9
$CAMERADISPLAY
290
    0
  9
$LENSLENGTH
 40
50
  9
$CAMERAHEIGHT
 40
0
  9
$STEPSPERSEC
 40
2
  9
$STEPSIZE
 40
50
  9
$3DDWFPREC
 40
2
  9
$PSOLWIDTH
 40
5
  9
$PSOLHEIGHT
 40
80
  9
$LOFTANG1
 40
1.570796326794897
  9
$LOFTANG2
 40
1.570796326794897
  9
$LOFTMAG1
 40
0
  9
$LOFTMAG2
 40
0
  9
$LOFTPARAM
 70
    7
  9
$LOFTNORMALS
280
    1
  9
$LATITUDE
 40
1
  9
$LONGITUDE
 40
1
  9
$NORTHDIRECTION
 40
0
  9
$TIMEZONE
 70
-8000
  9
$LIGHTGLYPHDISPLAY
280
    1
  9
$TILEMODELIGHTSYNCH
280
    1
  9
$SOLIDHIST
280
    1
  9
$SHOWHIST
280
    1
  9
$DWFFRAME
280
    2
  9
$DGNFRAME
280
    0
  9
$REALWORLDSCALE
290
    1
  9
$INTERFERECOLOR
 62
    1
  9
$CSHADOW
280
    0
  9
$SHADOWPLANELOCATION
 40
0
  0
ENDSEC
  0
SECTION
  2
CLASSES
  0
ENDSEC
  0
SECTION
  2
TABLES
  0
TABLE
  2
VPORT
  5
8
330
0
100
AcDbSymbolTable
 70
    1
  0
VPORT
  5
31
330
2
100
AcDbSymbolTableRecord
100
AcDbViewportTableRecord
  2
*ACTIVE
 70
    0
 10
0
 20
0
 11
1
 21
1
 12
13.58498449938278
 22
5.594646106073613
 13
0
 23
0
 14
10
 24
10
 15
10
 25
10
 16
0
 26
0
 36
1
 17
0
 27
0
 37
0
 40
23.39323056947657
 41
1.456626506024096
 42
50
 43
0
 44
0
 50
0
 51
0
 71
    0
 72
  100
 73
    1
 74
    3
 75
    0
 76
    1
 77
    0
 78
    0
281
    0
 65
    1
110
0
120
0
130
0
111
1
121
0
131
0
112
0
122
1
132
0
 79
    0
146
0
348
10020
 60
    7
 61
    5
292
1
282
    1
141
0
142
0
 63
  250
421
3358443
  0
ENDTAB
  0
TABLE
  2
LTYPE
  5
5
330
0
100
AcDbSymbolTable
 70
    4
  0
LTYPE
  5
14
330
5
100
AcDbSymbolTableRecord
100
AcDbLinetypeTableRecord
  2
ByBlock
 70
    0
  3

 72
   65
 73
    0
 40
0
  0
LTYPE
  5
15
330
5
100
AcDbSymbolTableRecord
100
AcDbLinetypeTableRecord
  2
ByLayer
 70
    0
  3

 72
   65
 73
    0
 40
0
  0
LTYPE
  5
16
330
5
100
AcDbSymbolTableRecord
100
AcDbLinetypeTableRecord
  2
Continuous
 70
    0
  3
Solid line
 72
   65
 73
    0
 40
0
  0
LTYPE
  5
32
330
5
100
AcDbSymbolTableRecord
100
AcDbLinetypeTableRecord
  2
DOT
 70
    0
  3
Dot . . . . . . . . . . . . . . . . . . . . . .
 72
   65
 73
    2
 40
6.35
 49
0
 74
    0
 49
-6.35
 74
    0
  0
LTYPE
  5
33
330
5
100
AcDbSymbolTableRecord
100
AcDbLinetypeTableRecord
  2
DOTTINY
 70
    0
  3
Dot (.15x) .....................................
 72
   65
 73
    2
 40
0.9525
 49
0
 74
    0
 49
-0.9525
 74
    0
  0
LTYPE
  5
34
330
5
100
AcDbSymbolTableRecord
100
AcDbLinetypeTableRecord
  2
DOT2
 70
    0
  3
Dot (.5x) .....................................
 72
   65
 73
    2
 40
3.175
 49
0
 74
    0
 49
-3.175
 74
    0
  0
LTYPE
  5
35
330
5
100
AcDbSymbolTableRecord
100
AcDbLinetypeTableRecord
  2
DOTX2
 70
    0
  3
Dot (2x) .  .  .  .  .  .  .  .  .  .  .  .  .
 72
   65
 73
    2
 40
12.7
 49
0
 74
    0
 49
-12.7
 74
    0
  0
LTYPE
  5
36
330
5
100
AcDbSymbolTableRecord
100
AcDbLinetypeTableRecord
  2
DASHED
 70
    0
  3
Dashed _ _ _ _ _ _ _ _ _ _ _ _ _ _ _ _ _
 72
   65
 73
    2
 40
19.05
 49
12.7
 74
    0
 49
-6.35
 74
    0
  0
LTYPE
  5
37
330
5
100
AcDbSymbolTableRecord
100
AcDbLinetypeTableRecord
  2
DASHEDTINY
 70
    0
  3
Dashed (.15x) _ _ _ _ _ _ _ _ _ _ _ _ _ _ _ _ _
 72
   65
 73
    2
 40
2.8575
 49
1.905
 74
    0
 49
-0.9525
 74
    0
  0
LTYPE
  5
38
330
5
100
AcDbSymbolTableRecord
100
AcDbLinetypeTableRecord
  2
DASHED2
 70
    0
  3
Dashed (.5x) _ _ _ _ _ _ _ _ _ _ _ _ _ _ _ _ _
 72
   65
 73
    2
 40
9.524999999999999
 49
6.35
 74
    0
 49
-3.175
 74
    0
  0
LTYPE
  5
39
330
5
100
AcDbSymbolTableRecord
100
AcDbLinetypeTableRecord
  2
DASHEDX2
 70
    0
  3
Dashed (2x) ____  ____  ____  ____  ____  ___
 72
   65
 73
    2
 40
38.09999999999999
 49
25.4
 74
    0
 49
-12.7
 74
    0
  0
LTYPE
  5
3A
330
5
100
AcDbSymbolTableRecord
100
AcDbLinetypeTableRecord
  2
DASHDOT
 70
    0
  3
Dash dot __ . __ . __ . __ . __ . __ . __ . __
 72
   65
 73
    4
 40
25.4
 49
12.7
 74
    0
 49
-6.35
 74
    0
 49
0
 74
    0
 49
-6.35
 74
    0
  0
LTYPE
  5
3B
330
5
100
AcDbSymbolTableRecord
100
AcDbLinetypeTableRecord
  2
DASHDOTTINY
 70
    0
  3
Dash dot (.15x) _._._._._._._._._._._._._._._.
 72
   65
 73
    4
 40
3.81
 49
1.905
 74
    0
 49
-0.9525
 74
    0
 49
0
 74
    0
 49
-0.9525
 74
    0
  0
LTYPE
  5
3C
330
5
100
AcDbSymbolTableRecord
100
AcDbLinetypeTableRecord
  2
DASHDOT2
 70
    0
  3
Dash dot (.5x) _._._._._._._._._._._._._._._.
 72
   65
 73
    4
 40
12.7
 49
6.35
 74
    0
 49
-3.175
 74
    0
 49
0
 74
    0
 49
-3.175
 74
    0
  0
LTYPE
  5
3D
330
5
100
AcDbSymbolTableRecord
100
AcDbLinetypeTableRecord
  2
DASHDOTX2
 70
    0
  3
Dash dot (2x) ____  .  ____  .  ____  .  ___
 72
   65
 73
    4
 40
50.8
 49
25.4
 74
    0
 49
-12.7
 74
    0
 49
0
 74
    0
 49
-12.7
 74
    0
  0
LTYPE
  5
3E
330
5
100
AcDbSymbolTableRecord
100
AcDbLinetypeTableRecord
  2
DIVIDE
 70
    0
  3
Divide ____ . . ____ . . ____ . . ____ . . ____
 72
   65
 73
    6
 40
31.75
 49
12.7
 74
    0
 49
-6.35
 74
    0
 49
0
 74
    0
 49
-6.35
 74
    0
 49
0
 74
    0
 49
-6.35
 74
    0
  0
LTYPE
  5
3F
330
5
100
AcDbSymbolTableRecord
100
AcDbLinetypeTableRecord
  2
DIVIDETINY
 70
    0
  3
Divide (.15x) __..__..__..__..__..__..__..__.._
 72
   65
 73
    6
 40
4.7625
 49
1.905
 74
    0
 49
-0.9525
 74
    0
 49
0
 74
    0
 49
-0.9525
 74
    0
 49
0
 74
    0
 49
-0.9525
 74
    0
  0
LTYPE
  5
40
330
5
100
AcDbSymbolTableRecord
100
AcDbLinetypeTableRecord
  2
DIVIDE2
 70
    0
  3
Divide (.5x) __..__..__..__..__..__..__..__.._
 72
   65
 73
    6
 40
15.875
 49
6.35
 74
    0
 49
-3.175
 74
    0
 49
0
 74
    0
 49
-3.175
 74
    0
 49
0
 74
    0
 49
-3.175
 74
    0
  0
LTYPE
  5
41
330
5
100
AcDbSymbolTableRecord
100
AcDbLinetypeTableRecord
  2
DIVIDEX2
 70
    0
  3
Divide (2x) ________  .  .  ________  .  .  _
 72
   65
 73
    6
 40
63.5
 49
25.4
 74
    0
 49
-12.7
 74
    0
 49
0
 74
    0
 49
-12.7
 74
    0
 49
0
 74
    0
 49
-12.7
 74
    0
  0
LTYPE
  5
42
330
5
100
AcDbSymbolTableRecord
100
AcDbLinetypeTableRecord
  2
BORDER
 70
    0
  3
Border __ __ . __ __ . __ __ . __ __ . __ __ .
 72
   65
 73
    6
 40
44.45
 49
12.7
 74
    0
 49
-6.35
 74
    0
 49
12.7
 74
    0
 49
-6.35
 74
    0
 49
0
 74
    0
 49
-6.35
 74
    0
  0
LTYPE
  5
43
330
5
100
AcDbSymbolTableRecord
100
AcDbLinetypeTableRecord
  2
BORDERTINY
 70
    0
  3
Border (.15x) __.__.__.__.__.__.__.__.__.__.__.
 72
   65
 73
    6
 40
6.6675
 49
1.905
 74
    0
 49
-0.9525
 74
    0
 49
1.905
 74
    0
 49
-0.9525
 74
    0
 49
0
 74
    0
 49
-0.9525
 74
    0
  0
LTYPE
  5
44
330
5
100
AcDbSymbolTableRecord
100
AcDbLinetypeTableRecord
  2
BORDER2
 70
    0
  3
Border (.5x) __.__.__.__.__.__.__.__.__.__.__.
 72
   65
 73
    6
 40
22.225
 49
6.35
 74
    0
 49
-3.175
 74
    0
 49
6.35
 74
    0
 49
-3.175
 74
    0
 49
0
 74
    0
 49
-3.175
 74
    0
  0
LTYPE
  5
45
330
5
100
AcDbSymbolTableRecord
100
AcDbLinetypeTableRecord
  2
BORDERX2
 70
    0
  3
Border (2x) ____  ____  .  ____  ____  .  ___
 72
   65
 73
    6
 40
88.89999999999999
 49
25.4
 74
    0
 49
-12.7
 74
    0
 49
25.4
 74
    0
 49
-12.7
 74
    0
 49
0
 74
    0
 49
-12.7
 74
    0
  0
LTYPE
  5
46
330
5
100
AcDbSymbolTableRecord
100
AcDbLinetypeTableRecord
  2
CENTER
 70
    0
  3
Center ____ _ ____ _ ____ _ ____ _ ____ _ ____
 72
   65
 73
    4
 40
50.8
 49
31.75
 74
    0
 49
-6.35
 74
    0
 49
6.35
 74
    0
 49
-6.35
 74
    0
  0
LTYPE
  5
47
330
5
100
AcDbSymbolTableRecord
100
AcDbLinetypeTableRecord
  2
CENTERTINY
 70
    0
  3
Center (.15x) ___ _ ___ _ ___ _ ___ _ ___ _ ___
 72
   65
 73
    4
 40
7.619999999999999
 49
4.7625
 74
    0
 49
-0.9525
 74
    0
 49
0.9525
 74
    0
 49
-0.9525
 74
    0
  0
LTYPE
  5
48
330
5
100
AcDbSymbolTableRecord
100
AcDbLinetypeTableRecord
  2
CENTER2
 70
    0
  3
Center (.5x) ___ _ ___ _ ___ _ ___ _ ___ _ ___
 72
   65
 73
    4
 40
28.575
 49
19.05
 74
    0
 49
-3.175
 74
    0
 49
3.175
 74
    0
 49
-3.175
 74
    0
  0
LTYPE
  5
49
330
5
100
AcDbSymbolTableRecord
100
AcDbLinetypeTableRecord
  2
CENTERX2
 70
    0
  3
Center (2x) ________  __  ________  __  _____
 72
   65
 73
    4
 40
101.6
 49
63.5
 74
    0
 49
-12.7
 74
    0
 49
12.7
 74
    0
 49
-12.7
 74
    0
  0
ENDTAB
  0
TABLE
  2
LAYER
  5
2
330
0
100
AcDbSymbolTable
 70
    1
  0
LAYER
  5
10
330
2
100
AcDbSymbolTableRecord
100
AcDbLayerTableRecord
  2
0
 70
    0
 62
    7
  6
CONTINUOUS
370
    0
390
F
  0
LAYER
  5
4A
330
2
100
AcDbSymbolTableRecord
100
AcDbLayerTableRecord
  2
gear_M1.0000_action_lines
 70
    0
 62
    7
  6
CONTINUOUS
370
    0
390
F
  0
LAYER
  5
4B
330
2
100
AcDbSymbolTableRecord
100
AcDbLayerTableRecord
  2
gear_M1.0000_base_lines
 70
    0
 62
    7
  6
CONTINUOUS
370
    0
390
F
  0
LAYER
  5
4C
330
2
100
AcDbSymbolTableRecord
100
AcDbLayerTableRecord
  2
gear_M1.0000_pitch_circles
 70
    0
 62
    7
  6
CONTINUOUS
370
    0
390
F
  0
LAYER
  5
4D
330
2
100
AcDbSymbolTableRecord
100
AcDbLayerTableRecord
  2
gear_M1.0000_shapes
 70
    0
 62
    7
  6
CONTINUOUS
370
    0
390
F
  0
ENDTAB
  0
TABLE
  2
STYLE
  5
3
330
0
100
AcDbSymbolTable
 70
    3
  0
STYLE
  5
4E
330
2
100
AcDbSymbolTableRecord
100
AcDbTextStyleTableRecord
  2
Standard
 70
    0
 40
0
 41
1
 50
0
 71
    0
 42
1
  3
txt
  4

  0
ENDTAB
  0
TABLE
  2
VIEW
  5
6
330
0
100
AcDbSymbolTable
 70
    0
  0
ENDTAB
  0
TABLE
  2
UCS
  5
7
330
0
100
AcDbSymbolTable
 70
    0
  0
ENDTAB
  0
TABLE
  2
APPID
  5
9
330
0
100
AcDbSymbolTable
 70
    1
  0
APPID
  5
12
330
9
100
AcDbSymbolTableRecord
100
AcDbRegAppTableRecord
  2
ACAD
 70
    0
  0
APPID
  5
4F
330
9
100
AcDbSymbolTableRecord
100
AcDbRegAppTableRecord
  2
LibreCad
 70
    0
  0
ENDTAB
  0
TABLE
  2
DIMSTYLE
  5
A
330
0
100
AcDbSymbolTable
 70
    1
100
AcDbDimStyleTable
 71
    1
  0
DIMSTYLE
105
50
330
A
100
AcDbSymbolTableRecord
100
AcDbDimStyleTableRecord
  2
Standard
 70
    0
 40
1
 41
2.5
 42
0.625
 43
0.38
 44
1.25
 45
0
 46
0
 47
0
 48
0
 49
1
140
2.5
141
0.09
142
2.5
143
25.4
144
1
145
0
146
1
147
0.625
148
0
 71
    0
 72
    0
 73
    0
 74
    1
 75
    0
 76
    0
 77
    0
 78
    1
 79
    0
170
    0
171
    2
172
    0
173
    0
174
    0
175
    0
176
    0
177
    0
178
    0
179
    0
271
    2
272
    4
273
    2
274
    2
275
    0
276
    0
277
    2
278
    0
279
    0
280
    0
281
    0
282
    0
283
    1
284
    0
285
    0
286
    0
288
    0
289
    3
340
standard
341

371
   -2
372
   -2
  0
ENDTAB
  0
TABLE
  2
BLOCK_RECORD
  5
1
330
0
100
AcDbSymbolTable
 70
    2
  0
BLOCK_RECORD
  5
1F
330
1
100
AcDbSymbolTableRecord
100
AcDbBlockTableRecord
  2
*Model_Space
 70
    0
280
    1
281
    0
  0
BLOCK_RECORD
  5
1E
330
1
100
AcDbSymbolTableRecord
100
AcDbBlockTableRecord
  2
*Paper_Space
 70
    0
280
    1
281
    0
  0
ENDTAB
  0
ENDSEC
  0
SECTION
  2
BLOCKS
  0
BLOCK
  5
20
330
1F
100
AcDbEntity
  8
0
100
AcDbBlockBegin
  2
*Model_Space
 70
    0
 10
0
 20
0
 30
0
  3
*Model_Space
  1

  0
ENDBLK
  5
21
330
1F
100
AcDbEntity
  8
0
100
AcDbBlockEnd
  0
BLOCK
  5
1C
330
1B
100
AcDbEntity
  8
0
100
AcDbBlockBegin
  2
*Paper_Space
 70
    0
 10
0
 20
0
 30
0
  3
*Paper_Space
  1

  0
ENDBLK
  5
1D
330
1F
100
AcDbEntity
  8
0
100
AcDbBlockEnd
  0
ENDSEC
  0
SECTION
  2
ENTITIES
  0
LWPOLYLINE
  5
51
100
AcDbEntity
  8
gear_M1.0000_shapes
  6
ByLayer
 62
  256
370
   -1
100
AcDbPolyline
 90
  560
 70
    1
 43
0
 10
2.749694562248852
 20
-0.04098553817010864
 10
3.758353002996924
 20
-0.05602008403984039
 10
3.759325529231775
 20
-0.05601983015496247
 10
3.762242477464142
 20
-0.05596007797022964
 10
3.767100637930175
 20
-0.05575239035851066
 10
3.773893784505026
 20
-0.05530846830880373
 10
3.782612679845514
 20
-0.05454024236347225
 10
3.793245083131009
 20
-0.05335996388116691
 10
3.805775760397032
 20
-0.05168029605456863
 10
3.820186497454108
 20
-0.04941440461224913
 10
3.836456115382626
 20
-0.04647604813416972
 10
3.854560488592504
 20
-0.04277966791059868
 10
3.874472565434682
 20
-0.03824047727454281
 10
3.896162391349539
 20
-0.03277455033815306
 10
3.919597134535534
 20
-0.02629891006397102
 10
3.944741114119533
 20
-0.0187316156023414
 10
3.971555830808442
 20
-0.009991848826826313
 10
4
 20
-1.179611963664229e-16
 10
4.042792517772051
 20
0.01636815679769533
 10
4.0886044298487
 20
0.03559632567311532
 10
4.13729264329674
 20
0.05789348262383381
 10
4.188703818519513
 20
0.08346225083267894
 10
4.242674633248363
 20
0.112498460122076
 10
4.299032064193241
 20
0.1451907169240642
 10
4.357593685945838
 20
0.1817199854435825
 10
4.418167986703319
 20
0.2222591806772129
 10
4.480554700356085
 20
0.2669727739332886
 10
4.544545154458972
 20
0.3160164114820456
 10
4.609922633581814
 20
0.3695365469464373
 10
4.676462757512612
 20
0.4276700880252853
 10
4.743933873764486
 20
0.4905440581206863
 10
4.812097463816223
 20
0.5582752734210242
 10
4.880708562495731
 20
0.6309700359696043
 10
4.949516189895918
 20
0.7087238432268315
 10
4.903926402016152
 20
0.9754516100806412
 10
4.843973576603108
 20
1.239322391135944
 10
4.750648524126762
 20
1.284826003209322
 10
4.659441053106598
 20
1.325730875707709
 10
4.570546493445915
 20
1.362221282632481
 10
4.48415048342259
 20
1.394489178378577
 10
4.400428681796572
 20
1.422733764117893
 10
4.319546497807637
 20
1.44716104374057
 10
4.241658839433049
 20
1.467983370057075
 10
4.166909880248003
 20
1.485418981976779
 10
4.09543284520466
 20
1.499691533390621
 10
4.027349815617932
 20
1.511029614496264
 10
3.962771553618296
 20
1.519666266313959
 10
3.901797346303615
 20
1.52583848915017
 10
3.844514869793435
 20
1.529786745773674
 10
3.791000073360366
 20
1.531754460075614
 10
3.741317083784203
 20
1.531987511990586
 10
3.695518130045147
 20
1.530733729460359
 10
3.665415429305055
 20
1.529079881786412
 10
3.637297297438359
 20
1.526892825608823
 10
3.611171411116527
 20
1.524261909667887
 10
3.587042411290442
 20
1.521276533218098
 10
3.564911905382899
 20
1.518026054212332
 10
3.544778472085853
 20
1.514599697623669
 10
3.526637668757018
 20
1.511086463975831
 10
3.510482041408538
 20
1.507575038152997
 10
3.49630113727859
 20
1.504153698559535
 10
3.484081519974891
 20
1.500910226699927
 10
3.473806787177261
 20
1.497931817248809
 10
3.465457590884486
 20
1.495304988680715
 10
3.459011660188946
 20
1.493115494528646
 10
3.454443826560611
 20
1.491448235340148
 10
3.451726051620188
 20
1.490387171399052
 10
3.450827457379441
 20
1.490015236280476
 10
2.524702040295029
 20
1.090128252881337
 10
2.286541433831999
 20
1.527818140803906
 10
1.973308823128603
 20
1.915346519187274
 10
2.697169075819161
 20
2.617944713204738
 10
2.697856576190988
 20
2.618632572624002
 10
2.699876918891449
 20
2.620737417674494
 10
2.703165299782458
 20
2.624319513202733
 10
2.707654879499464
 20
2.629436893503071
 10
2.713276851743751
 20
2.636145301298213
 10
2.719960513288708
 20
2.644498128680223
 10
2.727633335646044
 20
2.654546360058216
 10
2.736221038336703
 20
2.666338517157468
 10
2.745647663710078
 20
2.679920606113231
 10
2.755835653253984
 20
2.695336066700998
 10
2.766705925336743
 20
2.712625723743463
 10
2.778177954321702
 20
2.731827740732806
 10
2.790169850993486
 20
2.752977575705387
 10
2.802598444234294
 20
2.776107939404302
 10
2.815379363887662
 20
2.801248755763582
 10
2.82842712474619
 20
2.828427124746189
 10
2.847111969579679
 20
2.870260038914028
 10
2.865909514666589
 20
2.916250321204158
 10
2.884570809678522
 20
2.966444557978159
 10
2.902844150920254
 20
3.020877597994013
 10
2.920475579512702
 20
3.07957242756343
 10
2.9372093846271
 20
3.142540065631784
 10
2.952788611003707
 20
3.209779478972262
 10
2.96695556998141
 20
3.281277517657056
 10
2.979452353258636
 20
3.357008870939458
 10
2.990021348601212
 20
3.436936043651598
 10
2.998405756708962
 20
3.521009353193135
 10
3.004350108450182
 20
3.609166947156836
 10
3.00760078167153
 20
3.70133484160734
 10
3.007906516790259
 20
3.797426979999818
 10
3.005018930376351
 20
3.897345312695605
 10
2.998693025933723
 20
4.000979897002291
 10
2.777851165098012
 20
4.157348061512725
 10
2.548873297055959
 20
4.301539830753064
 10
2.450706606929777
 20
4.267724965958018
 10
2.357289072949363
 20
4.232155657431965
 10
2.268628512817939
 20
4.195100325670066
 10
2.1847204603663
 20
4.156825969011798
 10
2.105548268595313
 20
4.11759765345696
 10
2.031083232752424
 20
4.077678007748341
 10
1.961284733206532
 20
4.037326724479408
 10
1.896100397857589
 20
3.996800067975586
 10
1.835466283789772
 20
3.956350389686891
 10
1.779307077849829
 20
3.916225651817834
 10
1.727536315805606
 20
3.876668959907689
 10
1.680056619713441
 20
3.837918105060483
 10
1.63675995309759
 20
3.80020511650932
 10
1.597527893519609
 20
3.76375582518402
 10
1.562231922091238
 20
3.728789438934538
 10
1.530733729460359
 20
3.695518130045146
 10
1.510617352540309
 20
3.673062859314501
 10
1.492281313077079
 20
3.651633855343254
 10
1.475667860196971
 20
3.631299725458009
 10
1.460717060728737
 20
3.612126966125696
 10
1.447366865677506
 20
3.594179899580301
 10
1.435553178443205
 20
3.577520612388786
 10
1.425209924729493
 20
3.562208896002517
 10
1.41626912408802
 20
3.548302189339124
 10
1.408660963041656
 20
3.535855523438203
 10
1.402313869729223
 20
3.524921468232736
 10
1.397154590013175
 20
3.515550081476616
 10
1.393108264990609
 20
3.507788859867023
 10
1.390098509847031
 20
3.501682692398853
 10
1.388047493991286
 20
3.497273815986742
 10
1.386876022409195
 20
3.494601773388609
 10
1.386503618172535
 20
3.493703373462935
 10
1.01439685319269
 20
2.556071013143564
 10
0.536498385544353
 20
2.697159521108883
 10
0.0409855381701088
 20
2.749694562248852
 10
0.05602008403984062
 20
3.758353002996924
 10
0.0560198301549627
 20
3.759325529231775
 10
0.05596007797022987
 20
3.762242477464142
 10
0.05575239035851089
 20
3.767100637930175
 10
0.05530846830880395
 20
3.773893784505026
 10
0.05454024236347248
 20
3.782612679845514
 10
0.05335996388116714
 20
3.793245083131009
 10
0.05168029605456887
 20
3.805775760397032
 10
0.04941440461224936
 20
3.820186497454108
 10
0.04647604813416996
 20
3.836456115382626
 10
0.04277966791059892
 20
3.854560488592504
 10
0.03824047727454305
 20
3.874472565434682
 10
0.0327745503381533
 20
3.896162391349539
 10
0.02629891006397126
 20
3.919597134535534
 10
0.01873161560234164
 20
3.944741114119533
 10
0.009991848826826556
 20
3.971555830808442
 10
3.628905561958935e-16
 20
4
 10
-0.01636815679769508
 20
4.042792517772051
 10
-0.03559632567311507
 20
4.0886044298487
 10
-0.05789348262383355
 20
4.13729264329674
 10
-0.08346225083267869
 20
4.188703818519513
 10
-0.1124984601220757
 20
4.242674633248363
 10
-0.145190716924064
 20
4.299032064193241
 10
-0.1817199854435822
 20
4.357593685945838
 10
-0.2222591806772126
 20
4.418167986703319
 10
-0.2669727739332883
 20
4.480554700356085
 10
-0.3160164114820453
 20
4.544545154458972
 10
-0.369536546946437
 20
4.609922633581814
 10
-0.427670088025285
 20
4.676462757512612
 10
-0.490544058120686
 20
4.743933873764486
 10
-0.5582752734210239
 20
4.812097463816223
 10
-0.630970035969604
 20
4.880708562495731
 10
-0.7087238432268311
 20
4.949516189895918
 10
-0.9754516100806409
 20
4.903926402016152
 10
-1.239322391135943
 20
4.843973576603108
 10
-1.284826003209322
 20
4.750648524126762
 10
-1.325730875707709
 20
4.659441053106598
 10
-1.362221282632481
 20
4.570546493445915
 10
-1.394489178378577
 20
4.48415048342259
 10
-1.422733764117893
 20
4.400428681796572
 10
-1.44716104374057
 20
4.319546497807637
 10
-1.467983370057075
 20
4.241658839433049
 10
-1.485418981976779
 20
4.166909880248003
 10
-1.499691533390621
 20
4.09543284520466
 10
-1.511029614496263
 20
4.027349815617932
 10
-1.519666266313959
 20
3.962771553618296
 10
-1.52583848915017
 20
3.901797346303615
 10
-1.529786745773673
 20
3.844514869793435
 10
-1.531754460075614
 20
3.791000073360366
 10
-1.531987511990585
 20
3.741317083784203
 10
-1.530733729460359
 20
3.695518130045147
 10
-1.529079881786412
 20
3.665415429305055
 10
-1.526892825608823
 20
3.637297297438359
 10
-1.524261909667886
 20
3.611171411116527
 10
-1.521276533218098
 20
3.587042411290442
 10
-1.518026054212332
 20
3.564911905382899
 10
-1.514599697623669
 20
3.544778472085853
 10
-1.511086463975831
 20
3.526637668757018
 10
-1.507575038152997
 20
3.510482041408538
 10
-1.504153698559535
 20
3.49630113727859
 10
-1.500910226699926
 20
3.484081519974891
 10
-1.497931817248809
 20
3.473806787177261
 10
-1.495304988680715
 20
3.465457590884486
 10
-1.493115494528646
 20
3.459011660188946
 10
-1.491448235340147
 20
3.454443826560611
 10
-1.490387171399052
 20
3.451726051620188
 10
-1.490015236280476
 20
3.450827457379441
 10
-1.090128252881337
 20
2.524702040295029
 10
-1.527818140803906
 20
2.286541433831999
 10
-1.915346519187274
 20
1.973308823128603
 10
-2.617944713204738
 20
2.697169075819161
 10
-2.618632572624002
 20
2.697856576190988
 10
-2.620737417674494
 20
2.699876918891449
 10
-2.624319513202733
 20
2.703165299782458
 10
-2.629436893503071
 20
2.707654879499464
 10
-2.636145301298213
 20
2.713276851743751
 10
-2.644498128680223
 20
2.719960513288708
 10
-2.654546360058216
 20
2.727633335646044
 10
-2.666338517157468
 20
2.736221038336703
 10
-2.679920606113231
 20
2.745647663710078
 10
-2.695336066700998
 20
2.755835653253984
 10
-2.712625723743463
 20
2.766705925336743
 10
-2.731827740732806
 20
2.778177954321702
 10
-2.752977575705387
 20
2.790169850993486
 10
-2.776107939404302
 20
2.802598444234294
 10
-2.801248755763582
 20
2.815379363887662
 10
-2.828427124746189
 20
2.82842712474619
 10
-2.870260038914028
 20
2.847111969579679
 10
-2.916250321204158
 20
2.865909514666589
 10
-2.966444557978159
 20
2.884570809678522
 10
-3.020877597994013
 20
2.902844150920254
 10
-3.07957242756343
 20
2.920475579512702
 10
-3.142540065631784
 20
2.9372093846271
 10
-3.209779478972262
 20
2.952788611003707
 10
-3.281277517657056
 20
2.96695556998141
 10
-3.357008870939458
 20
2.979452353258636
 10
-3.436936043651598
 20
2.990021348601212
 10
-3.521009353193135
 20
2.998405756708962
 10
-3.609166947156836
 20
3.004350108450182
 10
-3.70133484160734
 20
3.00760078167153
 10
-3.797426979999818
 20
3.007906516790259
 10
-3.897345312695605
 20
3.005018930376351
 10
-4.000979897002291
 20
2.998693025933723
 10
-4.157348061512725
 20
2.777851165098012
 10
-4.301539830753064
 20
2.548873297055959
 10
-4.267724965958018
 20
2.450706606929777
 10
-4.232155657431965
 20
2.357289072949363
 10
-4.195100325670066
 20
2.268628512817939
 10
-4.156825969011798
 20
2.1847204603663
 10
-4.11759765345696
 20
2.105548268595313
 10
-4.077678007748341
 20
2.031083232752424
 10
-4.037326724479408
 20
1.961284733206532
 10
-3.996800067975586
 20
1.896100397857589
 10
-3.956350389686891
 20
1.835466283789772
 10
-3.916225651817834
 20
1.779307077849829
 10
-3.876668959907689
 20
1.727536315805606
 10
-3.837918105060483
 20
1.680056619713441
 10
-3.80020511650932
 20
1.63675995309759
 10
-3.76375582518402
 20
1.597527893519609
 10
-3.728789438934538
 20
1.562231922091238
 10
-3.695518130045146
 20
1.530733729460359
 10
-3.673062859314501
 20
1.510617352540309
 10
-3.651633855343254
 20
1.492281313077079
 10
-3.631299725458009
 20
1.475667860196971
 10
-3.612126966125696
 20
1.460717060728737
 10
-3.594179899580301
 20
1.447366865677506
 10
-3.577520612388786
 20
1.435553178443205
 10
-3.562208896002517
 20
1.425209924729493
 10
-3.548302189339124
 20
1.41626912408802
 10
-3.535855523438203
 20
1.408660963041656
 10
-3.524921468232736
 20
1.402313869729223
 10
-3.515550081476616
 20
1.397154590013175
 10
-3.507788859867023
 20
1.393108264990609
 10
-3.501682692398853
 20
1.390098509847031
 10
-3.497273815986742
 20
1.388047493991286
 10
-3.494601773388609
 20
1.386876022409195
 10
-3.493703373462935
 20
1.386503618172535
 10
-2.556071013143564
 20
1.01439685319269
 10
-2.697159521108883
 20
0.536498385544353
 10
-2.749694562248852
 20
0.04098553817010898
 10
-3.758353002996924
 20
0.05602008403984085
 10
-3.759325529231775
 20
0.05601983015496293
 10
-3.762242477464142
 20
0.05596007797023009
 10
-3.767100637930175
 20
0.05575239035851112
 10
-3.773893784505026
 20
0.05530846830880419
 10
-3.782612679845514
 20
0.05454024236347271
 10
-3.793245083131009
 20
0.05335996388116738
 10
-3.805775760397032
 20
0.0516802960545691
 10
-3.820186497454108
 20
0.04941440461224959
 10
-3.836456115382626
 20
0.04647604813417019
 10
-3.854560488592504
 20
0.04277966791059915
 10
-3.874472565434682
 20
0.03824047727454329
 10
-3.896162391349539
 20
0.03277455033815354
 10
-3.919597134535534
 20
0.0262989100639715
 10
-3.944741114119533
 20
0.01873161560234188
 10
-3.971555830808442
 20
0.009991848826826799
 10
-4
 20
6.078199160253641e-16
 10
-4.042792517772051
 20
-0.01636815679769483
 10
-4.0886044298487
 20
-0.03559632567311482
 10
-4.13729264329674
 20
-0.0578934826238333
 10
-4.188703818519513
 20
-0.08346225083267843
 10
-4.242674633248363
 20
-0.1124984601220755
 10
-4.299032064193241
 20
-0.1451907169240637
 10
-4.357593685945838
 20
-0.1817199854435819
 10
-4.418167986703319
 20
-0.2222591806772124
 10
-4.480554700356085
 20
-0.266972773933288
 10
-4.544545154458972
 20
-0.3160164114820451
 10
-4.609922633581814
 20
-0.3695365469464367
 10
-4.676462757512612
 20
-0.4276700880252847
 10
-4.743933873764486
 20
-0.4905440581206857
 10
-4.812097463816223
 20
-0.5582752734210237
 10
-4.880708562495731
 20
-0.6309700359696038
 10
-4.949516189895918
 20
-0.7087238432268309
 10
-4.903926402016152
 20
-0.9754516100806406
 10
-4.843973576603108
 20
-1.239322391135943
 10
-4.750648524126762
 20
-1.284826003209321
 10
-4.659441053106598
 20
-1.325730875707708
 10
-4.570546493445915
 20
-1.36222128263248
 10
-4.48415048342259
 20
-1.394489178378577
 10
-4.400428681796572
 20
-1.422733764117893
 10
-4.319546497807637
 20
-1.447161043740569
 10
-4.241658839433049
 20
-1.467983370057074
 10
-4.166909880248003
 20
-1.485418981976779
 10
-4.09543284520466
 20
-1.499691533390621
 10
-4.027349815617932
 20
-1.511029614496263
 10
-3.962771553618296
 20
-1.519666266313958
 10
-3.901797346303615
 20
-1.52583848915017
 10
-3.844514869793435
 20
-1.529786745773673
 10
-3.791000073360366
 20
-1.531754460075614
 10
-3.741317083784203
 20
-1.531987511990585
 10
-3.695518130045147
 20
-1.530733729460358
 10
-3.665415429305055
 20
-1.529079881786412
 10
-3.637297297438359
 20
-1.526892825608823
 10
-3.611171411116527
 20
-1.524261909667886
 10
-3.587042411290442
 20
-1.521276533218098
 10
-3.564911905382899
 20
-1.518026054212332
 10
-3.544778472085853
 20
-1.514599697623668
 10
-3.526637668757018
 20
-1.511086463975831
 10
-3.510482041408538
 20
-1.507575038152996
 10
-3.49630113727859
 20
-1.504153698559535
 10
-3.484081519974891
 20
-1.500910226699926
 10
-3.473806787177261
 20
-1.497931817248808
 10
-3.465457590884486
 20
-1.495304988680714
 10
-3.459011660188946
 20
-1.493115494528646
 10
-3.454443826560611
 20
-1.491448235340147
 10
-3.451726051620188
 20
-1.490387171399052
 10
-3.450827457379441
 20
-1.490015236280475
 10
-2.524702040295029
 20
-1.090128252881337
 10
-2.286541433831999
 20
-1.527818140803906
 10
-1.973308823128603
 20
-1.915346519187274
 10
-2.697169075819161
 20
-2.617944713204738
 10
-2.697856576190988
 20
-2.618632572624002
 10
-2.699876918891449
 20
-2.620737417674494
 10
-2.703165299782459
 20
-2.624319513202733
 10
-2.707654879499464
 20
-2.629436893503071
 10
-2.713276851743752
 20
-2.636145301298213
 10
-2.719960513288708
 20
-2.644498128680223
 10
-2.727633335646045
 20
-2.654546360058216
 10
-2.736221038336704
 20
-2.666338517157468
 10
-2.745647663710079
 20
-2.67992060611323
 10
-2.755835653253985
 20
-2.695336066700998
 10
-2.766705925336743
 20
-2.712625723743463
 10
-2.778177954321702
 20
-2.731827740732806
 10
-2.790169850993486
 20
-2.752977575705387
 10
-2.802598444234294
 20
-2.776107939404302
 10
-2.815379363887662
 20
-2.801248755763582
 10
-2.82842712474619
 20
-2.828427124746189
 10
-2.847111969579679
 20
-2.870260038914028
 10
-2.86590951466659
 20
-2.916250321204158
 10
-2.884570809678523
 20
-2.966444557978159
 10
-2.902844150920254
 20
-3.020877597994013
 10
-2.920475579512703
 20
-3.07957242756343
 10
-2.937209384627101
 20
-3.142540065631784
 10
-2.952788611003707
 20
-3.209779478972262
 10
-2.96695556998141
 20
-3.281277517657056
 10
-2.979452353258636
 20
-3.357008870939458
 10
-2.990021348601213
 20
-3.436936043651598
 10
-2.998405756708963
 20
-3.521009353193135
 10
-3.004350108450183
 20
-3.609166947156836
 10
-3.007600781671531
 20
-3.70133484160734
 10
-3.007906516790259
 20
-3.797426979999819
 10
-3.005018930376352
 20
-3.897345312695605
 10
-2.998693025933724
 20
-4.000979897002291
 10
-2.777851165098012
 20
-4.157348061512725
 10
-2.54887329705596
 20
-4.301539830753064
 10
-2.450706606929778
 20
-4.267724965958018
 10
-2.357289072949363
 20
-4.232155657431965
 10
-2.268628512817939
 20
-4.195100325670066
 10
-2.184720460366301
 20
-4.156825969011798
 10
-2.105548268595313
 20
-4.11759765345696
 10
-2.031083232752424
 20
-4.077678007748341
 10
-1.961284733206532
 20
-4.037326724479408
 10
-1.89610039785759
 20
-3.996800067975586
 10
-1.835466283789772
 20
-3.956350389686891
 10
-1.77930707784983
 20
-3.916225651817835
 10
-1.727536315805606
 20
-3.87666895990769
 10
-1.680056619713441
 20
-3.837918105060484
 10
-1.63675995309759
 20
-3.80020511650932
 10
-1.597527893519609
 20
-3.76375582518402
 10
-1.562231922091239
 20
-3.728789438934539
 10
-1.530733729460359
 20
-3.695518130045146
 10
-1.510617352540309
 20
-3.673062859314501
 10
-1.49228131307708
 20
-3.651633855343254
 10
-1.475667860196971
 20
-3.631299725458009
 10
-1.460717060728738
 20
-3.612126966125696
 10
-1.447366865677507
 20
-3.594179899580301
 10
-1.435553178443205
 20
-3.577520612388786
 10
-1.425209924729494
 20
-3.562208896002517
 10
-1.41626912408802
 20
-3.548302189339124
 10
-1.408660963041657
 20
-3.535855523438203
 10
-1.402313869729224
 20
-3.524921468232736
 10
-1.397154590013175
 20
-3.515550081476617
 10
-1.393108264990609
 20
-3.507788859867023
 10
-1.390098509847032
 20
-3.501682692398853
 10
-1.388047493991286
 20
-3.497273815986742
 10
-1.386876022409196
 20
-3.494601773388609
 10
-1.386503618172535
 20
-3.493703373462935
 10
-1.014396853192691
 20
-2.556071013143564
 10
-0.5364983855443533
 20
-2.697159521108884
 10
-0.04098553817010914
 20
-2.749694562248852
 10
-0.05602008403984108
 20
-3.758353002996924
 10
-0.05601983015496317
 20
-3.759325529231775
 10
-0.05596007797023033
 20
-3.762242477464142
 10
-0.05575239035851135
 20
-3.767100637930175
 10
-0.05530846830880442
 20
-3.773893784505026
 10
-0.05454024236347294
 20
-3.782612679845514
 10
-0.05335996388116761
 20
-3.793245083131009
 10
-0.05168029605456934
 20
-3.805775760397032
 10
-0.04941440461224983
 20
-3.820186497454108
 10
-0.04647604813417043
 20
-3.836456115382626
 10
-0.04277966791059939
 20
-3.854560488592504
 10
-0.03824047727454353
 20
-3.874472565434682
 10
-0.03277455033815378
 20
-3.896162391349539
 10
-0.02629891006397174
 20
-3.919597134535534
 10
-0.01873161560234212
 20
-3.944741114119533
 10
-0.009991848826827044
 20
-3.971555830808442
 10
-8.527492758548347e-16
 20
-4
 10
0.01636815679769459
 20
-4.042792517772051
 10
0.03559632567311457
 20
-4.0886044298487
 10
0.05789348262383304
 20
-4.13729264329674
 10
0.08346225083267818
 20
-4.188703818519513
 10
0.1124984601220752
 20
-4.242674633248363
 10
0.1451907169240634
 20
-4.299032064193241
 10
0.1817199854435817
 20
-4.357593685945838
 10
0.2222591806772121
 20
-4.418167986703319
 10
0.2669727739332877
 20
-4.480554700356085
 10
0.3160164114820448
 20
-4.544545154458972
 10
0.3695365469464365
 20
-4.609922633581814
 10
0.4276700880252844
 20
-4.676462757512612
 10
0.4905440581206854
 20
-4.743933873764486
 10
0.5582752734210233
 20
-4.812097463816223
 10
0.6309700359696034
 20
-4.880708562495731
 10
0.7087238432268306
 20
-4.949516189895918
 10
0.9754516100806403
 20
-4.903926402016152
 10
1.239322391135943
 20
-4.843973576603108
 10
1.284826003209321
 20
-4.750648524126762
 10
1.325730875707708
 20
-4.659441053106598
 10
1.36222128263248
 20
-4.570546493445915
 10
1.394489178378576
 20
-4.48415048342259
 10
1.422733764117892
 20
-4.400428681796572
 10
1.447161043740569
 20
-4.319546497807637
 10
1.467983370057074
 20
-4.241658839433049
 10
1.485418981976779
 20
-4.166909880248003
 10
1.499691533390621
 20
-4.09543284520466
 10
1.511029614496263
 20
-4.027349815617932
 10
1.519666266313958
 20
-3.962771553618296
 10
1.52583848915017
 20
-3.901797346303615
 10
1.529786745773673
 20
-3.844514869793436
 10
1.531754460075613
 20
-3.791000073360367
 10
1.531987511990585
 20
-3.741317083784203
 10
1.530733729460358
 20
-3.695518130045147
 10
1.529079881786411
 20
-3.665415429305056
 10
1.526892825608823
 20
-3.63729729743836
 10
1.524261909667886
 20
-3.611171411116527
 10
1.521276533218098
 20
-3.587042411290442
 10
1.518026054212331
 20
-3.564911905382899
 10
1.514599697623668
 20
-3.544778472085853
 10
1.51108646397583
 20
-3.526637668757019
 10
1.507575038152996
 20
-3.510482041408539
 10
1.504153698559535
 20
-3.496301137278591
 10
1.500910226699926
 20
-3.484081519974892
 10
1.497931817248808
 20
-3.473806787177262
 10
1.495304988680714
 20
-3.465457590884486
 10
1.493115494528645
 20
-3.459011660188947
 10
1.491448235340147
 20
-3.454443826560611
 10
1.490387171399051
 20
-3.451726051620188
 10
1.490015236280475
 20
-3.450827457379442
 10
1.090128252881337
 20
-2.524702040295029
 10
1.527818140803906
 20
-2.286541433832
 10
1.915346519187274
 20
-1.973308823128603
 10
2.617944713204738
 20
-2.697169075819161
 10
2.618632572624002
 20
-2.697856576190988
 10
2.620737417674493
 20
-2.699876918891449
 10
2.624319513202732
 20
-2.703165299782459
 10
2.629436893503071
 20
-2.707654879499464
 10
2.636145301298212
 20
-2.713276851743752
 10
2.644498128680222
 20
-2.719960513288708
 10
2.654546360058216
 20
-2.727633335646045
 10
2.666338517157468
 20
-2.736221038336704
 10
2.67992060611323
 20
-2.745647663710079
 10
2.695336066700998
 20
-2.755835653253985
 10
2.712625723743463
 20
-2.766705925336743
 10
2.731827740732806
 20
-2.778177954321702
 10
2.752977575705386
 20
-2.790169850993486
 10
2.776107939404302
 20
-2.802598444234294
 10
2.801248755763581
 20
-2.815379363887662
 10
2.828427124746189
 20
-2.82842712474619
 10
2.870260038914028
 20
-2.847111969579679
 10
2.916250321204158
 20
-2.86590951466659
 10
2.966444557978158
 20
-2.884570809678523
 10
3.020877597994013
 20
-2.902844150920254
 10
3.07957242756343
 20
-2.920475579512703
 10
3.142540065631783
 20
-2.937209384627101
 10
3.209779478972262
 20
-2.952788611003707
 10
3.281277517657055
 20
-2.96695556998141
 10
3.357008870939458
 20
-2.979452353258636
 10
3.436936043651597
 20
-2.990021348601213
 10
3.521009353193134
 20
-2.998405756708963
 10
3.609166947156835
 20
-3.004350108450183
 10
3.701334841607339
 20
-3.007600781671531
 10
3.797426979999818
 20
-3.007906516790259
 10
3.897345312695604
 20
-3.005018930376352
 10
4.00097989700229
 20
-2.998693025933724
 10
4.157348061512725
 20
-2.777851165098012
 10
4.301539830753064
 20
-2.54887329705596
 10
4.267724965958017
 20
-2.450706606929778
 10
4.232155657431964
 20
-2.357289072949363
 10
4.195100325670065
 20
-2.268628512817939
 10
4.156825969011797
 20
-2.184720460366301
 10
4.11759765345696
 20
-2.105548268595313
 10
4.07767800774834
 20
-2.031083232752425
 10
4.037326724479408
 20
-1.961284733206532
 10
3.996800067975586
 20
-1.89610039785759
 10
3.956350389686891
 20
-1.835466283789772
 10
3.916225651817834
 20
-1.77930707784983
 10
3.876668959907689
 20
-1.727536315805606
 10
3.837918105060483
 20
-1.680056619713441
 10
3.80020511650932
 20
-1.63675995309759
 10
3.763755825184019
 20
-1.597527893519609
 10
3.728789438934538
 20
-1.562231922091239
 10
3.695518130045146
 20
-1.53073372946036
 10
3.673062859314501
 20
-1.510617352540309
 10
3.651633855343253
 20
-1.49228131307708
 10
3.631299725458009
 20
-1.475667860196971
 10
3.612126966125695
 20
-1.460717060728738
 10
3.5941798995803
 20
-1.447366865677507
 10
3.577520612388786
 20
-1.435553178443205
 10
3.562208896002516
 20
-1.425209924729494
 10
3.548302189339124
 20
-1.416269124088021
 10
3.535855523438203
 20
-1.408660963041657
 10
3.524921468232735
 20
-1.402313869729224
 10
3.515550081476616
 20
-1.397154590013175
 10
3.507788859867023
 20
-1.39310826499061
 10
3.501682692398852
 20
-1.390098509847032
 10
3.497273815986741
 20
-1.388047493991286
 10
3.494601773388609
 20
-1.386876022409196
 10
3.493703373462935
 20
-1.386503618172535
 10
2.556071013143564
 20
-1.014396853192691
 10
2.697159521108883
 20
-0.5364983855443533
  0
CIRCLE
  5
52
100
AcDbEntity
  8
0
  6
ByLayer
 62
  256
370
   -1
100
AcDbCircle
 10
0
 20
0
 40
1
  0
ENDSEC
  0
SECTION
  2
OBJECTS
  0
DICTIONARY
  5
C
330
0
100
AcDbDictionary
281
    1
  3
ACAD_GROUP
350
D
  0
DICTIONARY
  5
D
330
C
100
AcDbDictionary
281
    1
  0
ENDSEC
  0
EOF
