999
dxfrw 0.6.3
  0
SECTION
  2
HEADER
  9
$ACADVER
  1
AC1021
  9
$DWGCODEPAGE
  3
ANSI_1252
  9
$INSBASE
 10
0
 20
0
 30
0
  9
$EXTMIN
 10
-7.999997258443472
 20
-14.00000000000019
 30
0
  9
$EXTMAX
 10
58.50000154286244
 20
19
 30
0
  9
$LIMMIN
 10
0
 20
0
  9
$LIMMAX
 10
420
 20
297
  9
$ORTHOMODE
 70
    0
  9
$REGENMODE
 70
    1
  9
$FILLMODE
 70
    1
  9
$QTEXTMODE
 70
    0
  9
$MIRRTEXT
 70
    0
  9
$LTSCALE
 40
1
  9
$ATTMODE
 70
    0
  9
$TEXTSIZE
 40
2.5
  9
$TRACEWID
 40
15.68
  9
$TEXTSTYLE
  7
STANDARD
  9
$CLAYER
  8
0
  9
$CELTYPE
  6
BYLAYER
  9
$CECOLOR
 62
  256
  9
$CELTSCALE
 40
1
  9
$DISPSILH
 70
    0
  9
$DIMSCALE
 40
2.5
  9
$DIMASZ
 40
2.5
  9
$DIMEXO
 40
0.625
  9
$DIMDLI
 40
3.75
  9
$DIMRND
 40
0
  9
$DIMDLE
 40
0
  9
$DIMEXE
 40
1.25
  9
$DIMTP
 40
0
  9
$DIMTM
 40
0
  9
$DIMTXT
 40
2.5
  9
$DIMCEN
 40
2.5
  9
$DIMTSZ
 40
0
  9
$DIMTOL
 70
    0
  9
$DIMLIM
 70
    0
  9
$DIMTIH
 70
    0
  9
$DIMTOH
 70
    0
  9
$DIMSE1
 70
    0
  9
$DIMSE2
 70
    0
  9
$DIMTAD
 70
    1
  9
$DIMZIN
 70
    8
  9
$DIMBLK
  1

  9
$DIMASO
 70
    1
  9
$DIMSHO
 70
    1
  9
$DIMPOST
  1

  9
$DIMAPOST
  1

  9
$DIMALT
 70
    0
  9
$DIMALTD
 70
    3
  9
$DIMALTF
 40
0.03937
  9
$DIMLFAC
 40
1
  9
$DIMTOFL
 70
    1
  9
$DIMTVP
 40
0
  9
$DIMTIX
 70
    0
  9
$DIMSOXD
 70
    0
  9
$DIMSAH
 70
    0
  9
$DIMBLK1
  1

  9
$DIMBLK2
  1

  9
$DIMSTYLE
  2
STANDARD
  9
$DIMCLRD
 70
    0
  9
$DIMCLRE
 70
    0
  9
$DIMCLRT
 70
    0
  9
$DIMTFAC
 40
1
  9
$DIMGAP
 40
0.625
  9
$DIMJUST
 70
    0
  9
$DIMSD1
 70
    0
  9
$DIMSD2
 70
    0
  9
$DIMTOLJ
 70
    0
  9
$DIMTZIN
 70
    8
  9
$DIMALTZ
 70
    0
  9
$DIMALTTZ
 70
    0
  9
$DIMUPT
 70
    0
  9
$DIMDEC
 70
    2
  9
$DIMTDEC
 70
    2
  9
$DIMALTU
 70
    2
  9
$DIMALTTD
 70
    3
  9
$DIMTXSTY
  7
STANDARD
  9
$DIMAUNIT
 70
    0
  9
$DIMADEC
 70
    0
  9
$DIMALTRND
 40
0
  9
$DIMAZIN
 70
    0
  9
$DIMDSEP
 70
   44
  9
$DIMATFIT
 70
    3
  9
$DIMFRAC
 70
    0
  9
$DIMLDRBLK
  1
STANDARD
  9
$DIMLUNIT
 70
    2
  9
$DIMLWD
 70
   -2
  9
$DIMLWE
 70
   -2
  9
$DIMTMOVE
 70
    0
  9
$DIMFXL
 40
1
  9
$DIMFXLON
 70
    0
  9
$DIMJOGANG
 40
0.7854
  9
$DIMTFILL
 70
    0
  9
$DIMTFILLCLR
 70
    0
  9
$DIMARCSYM
 70
    0
  9
$DIMLTYPE
  6

  9
$DIMLTEX1
  6

  9
$DIMLTEX2
  6

  9
$LUNITS
 70
    2
  9
$LUPREC
 70
    4
  9
$SKETCHINC
 40
1
  9
$FILLETRAD
 40
0
  9
$AUNITS
 70
    0
  9
$AUPREC
 70
    2
  9
$MENU
  1
.
  9
$ELEVATION
 40
0
  9
$PELEVATION
 40
0
  9
$THICKNESS
 40
0
  9
$LIMCHECK
 70
    0
  9
$CHAMFERA
 40
0
  9
$CHAMFERB
 40
0
  9
$CHAMFERC
 40
0
  9
$CHAMFERD
 40
0
  9
$SKPOLY
 70
    0
  9
$USRTIMER
 70
    1
  9
$ANGBASE
 50
0
  9
$ANGDIR
 70
    0
  9
$PDMODE
 70
   34
  9
$PDSIZE
 40
0
  9
$PLINEWID
 40
0
  9
$SPLFRAME
 70
    0
  9
$SPLINETYPE
 70
    2
  9
$SPLINESEGS
 70
    8
  9
$HANDSEED
  5
20000
  9
$SURFTAB1
 70
    6
  9
$SURFTAB2
 70
    6
  9
$SURFTYPE
 70
    6
  9
$SURFU
 70
    6
  9
$SURFV
 70
    6
  9
$UCSBASE
  2

  9
$UCSNAME
  2

  9
$UCSORG
 10
0
 20
0
 30
0
  9
$UCSXDIR
 10
1
 20
0
 30
0
  9
$UCSYDIR
 10
0
 20
1
 30
0
  9
$UCSORTHOREF
  2

  9
$UCSORTHOVIEW
 70
    0
  9
$UCSORGTOP
 10
0
 20
0
 30
0
  9
$UCSORGBOTTOM
 10
0
 20
0
 30
0
  9
$UCSORGLEFT
 10
0
 20
0
 30
0
  9
$UCSORGRIGHT
 10
0
 20
0
 30
0
  9
$UCSORGFRONT
 10
0
 20
0
 30
0
  9
$UCSORGBACK
 10
0
 20
0
 30
0
  9
$PUCSBASE
  2

  9
$PUCSNAME
  2

  9
$PUCSORG
 10
0
 20
0
 30
0
  9
$PUCSXDIR
 10
1
 20
0
 30
0
  9
$PUCSYDIR
 10
0
 20
1
 30
0
  9
$PUCSORTHOREF
  2

  9
$PUCSORTHOVIEW
 70
    0
  9
$PUCSORGTOP
 10
0
 20
0
 30
0
  9
$PUCSORGBOTTOM
 10
0
 20
0
 30
0
  9
$PUCSORGLEFT
 10
0
 20
0
 30
0
  9
$PUCSORGRIGHT
 10
0
 20
0
 30
0
  9
$PUCSORGFRONT
 10
0
 20
0
 30
0
  9
$PUCSORGBACK
 10
0
 20
0
 30
0
  9
$USERI1
 70
    0
  9
$USERI2
 70
    0
  9
$USERI3
 70
    0
  9
$USERI4
 70
    0
  9
$USERI5
 70
    0
  9
$USERR1
 40
0
  9
$USERR2
 40
0
  9
$USERR3
 40
0
  9
$USERR4
 40
0
  9
$USERR5
 40
0
  9
$WORLDVIEW
 70
    1
  9
$SHADEDGE
 70
    3
  9
$SHADEDIF
 70
   70
  9
$TILEMODE
 70
    1
  9
$MAXACTVP
 70
   64
  9
$PINSBASE
 10
0
 20
0
 30
0
  9
$PLIMCHECK
 70
    0
  9
$PEXTMIN
 10
0
 20
0
 30
0
  9
$PEXTMAX
 10
0
 20
0
 30
0
  9
$SNAPSTYLE
 70
    0
  9
$PLIMMIN
 10
0
 20
0
  9
$PLIMMAX
 10
210
 20
297
  9
$UNITMODE
 70
    0
  9
$VISRETAIN
 70
    1
  9
$PLINEGEN
 70
    0
  9
$PSLTSCALE
 70
    1
  9
$TREEDEPTH
 70
 3020
  9
$CMLSTYLE
  2
Standard
  9
$CMLJUST
 70
    0
  9
$CMLSCALE
 40
20
  9
$PROXYGRAPHICS
 70
    1
  9
$MEASUREMENT
 70
    1
  9
$CELWEIGHT
370
   -1
  9
$ENDCAPS
280
    0
  9
$JOINSTYLE
280
    0
  9
$LWDISPLAY
290
    0
  9
$INSUNITS
 70
    4
  9
$HYPERLINKBASE
  1

  9
$STYLESHEET
  1

  9
$XEDIT
290
    1
  9
$CEPSNTYPE
380
    0
  9
$PSTYLEMODE
290
    1
  9
$EXTNAMES
290
    1
  9
$PSVPSCALE
 40
1
  9
$OLESTARTUP
290
    0
  9
$SORTENTS
280
  127
  9
$INDEXCTL
280
    0
  9
$HIDETEXT
280
    1
  9
$XCLIPFRAME
290
    0
  9
$HALOGAP
280
    0
  9
$OBSCOLOR
 70
  257
  9
$OBSLTYPE
280
    0
  9
$INTERSECTIONDISPLAY
280
    0
  9
$INTERSECTIONCOLOR
 70
  257
  9
$DIMASSOC
280
    1
  9
$PROJECTNAME
  1

  9
$CAMERADISPLAY
290
    0
  9
$LENSLENGTH
 40
50
  9
$CAMERAHEIGHT
 40
0
  9
$STEPSPERSEC
 40
2
  9
$STEPSIZE
 40
50
  9
$3DDWFPREC
 40
2
  9
$PSOLWIDTH
 40
5
  9
$PSOLHEIGHT
 40
80
  9
$LOFTANG1
 40
1.570796326794897
  9
$LOFTANG2
 40
1.570796326794897
  9
$LOFTMAG1
 40
0
  9
$LOFTMAG2
 40
0
  9
$LOFTPARAM
 70
    7
  9
$LOFTNORMALS
280
    1
  9
$LATITUDE
 40
1
  9
$LONGITUDE
 40
1
  9
$NORTHDIRECTION
 40
0
  9
$TIMEZONE
 70
-8000
  9
$LIGHTGLYPHDISPLAY
280
    1
  9
$TILEMODELIGHTSYNCH
280
    1
  9
$SOLIDHIST
280
    1
  9
$SHOWHIST
280
    1
  9
$DWFFRAME
280
    2
  9
$DGNFRAME
280
    0
  9
$REALWORLDSCALE
290
    1
  9
$INTERFERECOLOR
 62
    1
  9
$CSHADOW
280
    0
  9
$SHADOWPLANELOCATION
 40
0
  0
ENDSEC
  0
SECTION
  2
CLASSES
  0
ENDSEC
  0
SECTION
  2
TABLES
  0
TABLE
  2
VPORT
  5
8
330
0
100
AcDbSymbolTable
 70
    1
  0
VPORT
  5
31
330
2
100
AcDbSymbolTableRecord
100
AcDbViewportTableRecord
  2
*ACTIVE
 70
    0
 10
0
 20
0
 11
1
 21
1
 12
27.61485657430007
 22
18.91784925480314
 13
0
 23
0
 14
10
 24
10
 15
10
 25
10
 16
0
 26
0
 36
1
 17
0
 27
0
 37
0
 40
64.07538725988333
 41
1.689095127610209
 42
50
 43
0
 44
0
 50
0
 51
0
 71
    0
 72
  100
 73
    1
 74
    3
 75
    0
 76
    1
 77
    0
 78
    0
281
    0
 65
    1
110
0
120
0
130
0
111
1
121
0
131
0
112
0
122
1
132
0
 79
    0
146
0
348
10020
 60
    7
 61
    5
292
1
282
    1
141
0
142
0
 63
  250
421
3358443
  0
ENDTAB
  0
TABLE
  2
LTYPE
  5
5
330
0
100
AcDbSymbolTable
 70
    4
  0
LTYPE
  5
14
330
5
100
AcDbSymbolTableRecord
100
AcDbLinetypeTableRecord
  2
ByBlock
 70
    0
  3

 72
   65
 73
    0
 40
0
  0
LTYPE
  5
15
330
5
100
AcDbSymbolTableRecord
100
AcDbLinetypeTableRecord
  2
ByLayer
 70
    0
  3

 72
   65
 73
    0
 40
0
  0
LTYPE
  5
16
330
5
100
AcDbSymbolTableRecord
100
AcDbLinetypeTableRecord
  2
Continuous
 70
    0
  3
Solid line
 72
   65
 73
    0
 40
0
  0
LTYPE
  5
32
330
5
100
AcDbSymbolTableRecord
100
AcDbLinetypeTableRecord
  2
DOT
 70
    0
  3
Dot . . . . . . . . . . . . . . . . . . . . . .
 72
   65
 73
    2
 40
6.35
 49
0
 74
    0
 49
-6.35
 74
    0
  0
LTYPE
  5
33
330
5
100
AcDbSymbolTableRecord
100
AcDbLinetypeTableRecord
  2
DOTTINY
 70
    0
  3
Dot (.15x) .....................................
 72
   65
 73
    2
 40
0.9525
 49
0
 74
    0
 49
-0.9525
 74
    0
  0
LTYPE
  5
34
330
5
100
AcDbSymbolTableRecord
100
AcDbLinetypeTableRecord
  2
DOT2
 70
    0
  3
Dot (.5x) .....................................
 72
   65
 73
    2
 40
3.175
 49
0
 74
    0
 49
-3.175
 74
    0
  0
LTYPE
  5
35
330
5
100
AcDbSymbolTableRecord
100
AcDbLinetypeTableRecord
  2
DOTX2
 70
    0
  3
Dot (2x) .  .  .  .  .  .  .  .  .  .  .  .  .
 72
   65
 73
    2
 40
12.7
 49
0
 74
    0
 49
-12.7
 74
    0
  0
LTYPE
  5
36
330
5
100
AcDbSymbolTableRecord
100
AcDbLinetypeTableRecord
  2
DASHED
 70
    0
  3
Dashed _ _ _ _ _ _ _ _ _ _ _ _ _ _ _ _ _
 72
   65
 73
    2
 40
19.05
 49
12.7
 74
    0
 49
-6.35
 74
    0
  0
LTYPE
  5
37
330
5
100
AcDbSymbolTableRecord
100
AcDbLinetypeTableRecord
  2
DASHEDTINY
 70
    0
  3
Dashed (.15x) _ _ _ _ _ _ _ _ _ _ _ _ _ _ _ _ _
 72
   65
 73
    2
 40
2.8575
 49
1.905
 74
    0
 49
-0.9525
 74
    0
  0
LTYPE
  5
38
330
5
100
AcDbSymbolTableRecord
100
AcDbLinetypeTableRecord
  2
DASHED2
 70
    0
  3
Dashed (.5x) _ _ _ _ _ _ _ _ _ _ _ _ _ _ _ _ _
 72
   65
 73
    2
 40
9.524999999999999
 49
6.35
 74
    0
 49
-3.175
 74
    0
  0
LTYPE
  5
39
330
5
100
AcDbSymbolTableRecord
100
AcDbLinetypeTableRecord
  2
DASHEDX2
 70
    0
  3
Dashed (2x) ____  ____  ____  ____  ____  ___
 72
   65
 73
    2
 40
38.09999999999999
 49
25.4
 74
    0
 49
-12.7
 74
    0
  0
LTYPE
  5
3A
330
5
100
AcDbSymbolTableRecord
100
AcDbLinetypeTableRecord
  2
DASHDOT
 70
    0
  3
Dash dot __ . __ . __ . __ . __ . __ . __ . __
 72
   65
 73
    4
 40
25.4
 49
12.7
 74
    0
 49
-6.35
 74
    0
 49
0
 74
    0
 49
-6.35
 74
    0
  0
LTYPE
  5
3B
330
5
100
AcDbSymbolTableRecord
100
AcDbLinetypeTableRecord
  2
DASHDOTTINY
 70
    0
  3
Dash dot (.15x) _._._._._._._._._._._._._._._.
 72
   65
 73
    4
 40
3.81
 49
1.905
 74
    0
 49
-0.9525
 74
    0
 49
0
 74
    0
 49
-0.9525
 74
    0
  0
LTYPE
  5
3C
330
5
100
AcDbSymbolTableRecord
100
AcDbLinetypeTableRecord
  2
DASHDOT2
 70
    0
  3
Dash dot (.5x) _._._._._._._._._._._._._._._.
 72
   65
 73
    4
 40
12.7
 49
6.35
 74
    0
 49
-3.175
 74
    0
 49
0
 74
    0
 49
-3.175
 74
    0
  0
LTYPE
  5
3D
330
5
100
AcDbSymbolTableRecord
100
AcDbLinetypeTableRecord
  2
DASHDOTX2
 70
    0
  3
Dash dot (2x) ____  .  ____  .  ____  .  ___
 72
   65
 73
    4
 40
50.8
 49
25.4
 74
    0
 49
-12.7
 74
    0
 49
0
 74
    0
 49
-12.7
 74
    0
  0
LTYPE
  5
3E
330
5
100
AcDbSymbolTableRecord
100
AcDbLinetypeTableRecord
  2
DIVIDE
 70
    0
  3
Divide ____ . . ____ . . ____ . . ____ . . ____
 72
   65
 73
    6
 40
31.75
 49
12.7
 74
    0
 49
-6.35
 74
    0
 49
0
 74
    0
 49
-6.35
 74
    0
 49
0
 74
    0
 49
-6.35
 74
    0
  0
LTYPE
  5
3F
330
5
100
AcDbSymbolTableRecord
100
AcDbLinetypeTableRecord
  2
DIVIDETINY
 70
    0
  3
Divide (.15x) __..__..__..__..__..__..__..__.._
 72
   65
 73
    6
 40
4.7625
 49
1.905
 74
    0
 49
-0.9525
 74
    0
 49
0
 74
    0
 49
-0.9525
 74
    0
 49
0
 74
    0
 49
-0.9525
 74
    0
  0
LTYPE
  5
40
330
5
100
AcDbSymbolTableRecord
100
AcDbLinetypeTableRecord
  2
DIVIDE2
 70
    0
  3
Divide (.5x) __..__..__..__..__..__..__..__.._
 72
   65
 73
    6
 40
15.875
 49
6.35
 74
    0
 49
-3.175
 74
    0
 49
0
 74
    0
 49
-3.175
 74
    0
 49
0
 74
    0
 49
-3.175
 74
    0
  0
LTYPE
  5
41
330
5
100
AcDbSymbolTableRecord
100
AcDbLinetypeTableRecord
  2
DIVIDEX2
 70
    0
  3
Divide (2x) ________  .  .  ________  .  .  _
 72
   65
 73
    6
 40
63.5
 49
25.4
 74
    0
 49
-12.7
 74
    0
 49
0
 74
    0
 49
-12.7
 74
    0
 49
0
 74
    0
 49
-12.7
 74
    0
  0
LTYPE
  5
42
330
5
100
AcDbSymbolTableRecord
100
AcDbLinetypeTableRecord
  2
BORDER
 70
    0
  3
Border __ __ . __ __ . __ __ . __ __ . __ __ .
 72
   65
 73
    6
 40
44.45
 49
12.7
 74
    0
 49
-6.35
 74
    0
 49
12.7
 74
    0
 49
-6.35
 74
    0
 49
0
 74
    0
 49
-6.35
 74
    0
  0
LTYPE
  5
43
330
5
100
AcDbSymbolTableRecord
100
AcDbLinetypeTableRecord
  2
BORDERTINY
 70
    0
  3
Border (.15x) __.__.__.__.__.__.__.__.__.__.__.
 72
   65
 73
    6
 40
6.6675
 49
1.905
 74
    0
 49
-0.9525
 74
    0
 49
1.905
 74
    0
 49
-0.9525
 74
    0
 49
0
 74
    0
 49
-0.9525
 74
    0
  0
LTYPE
  5
44
330
5
100
AcDbSymbolTableRecord
100
AcDbLinetypeTableRecord
  2
BORDER2
 70
    0
  3
Border (.5x) __.__.__.__.__.__.__.__.__.__.__.
 72
   65
 73
    6
 40
22.225
 49
6.35
 74
    0
 49
-3.175
 74
    0
 49
6.35
 74
    0
 49
-3.175
 74
    0
 49
0
 74
    0
 49
-3.175
 74
    0
  0
LTYPE
  5
45
330
5
100
AcDbSymbolTableRecord
100
AcDbLinetypeTableRecord
  2
BORDERX2
 70
    0
  3
Border (2x) ____  ____  .  ____  ____  .  ___
 72
   65
 73
    6
 40
88.89999999999999
 49
25.4
 74
    0
 49
-12.7
 74
    0
 49
25.4
 74
    0
 49
-12.7
 74
    0
 49
0
 74
    0
 49
-12.7
 74
    0
  0
LTYPE
  5
46
330
5
100
AcDbSymbolTableRecord
100
AcDbLinetypeTableRecord
  2
CENTER
 70
    0
  3
Center ____ _ ____ _ ____ _ ____ _ ____ _ ____
 72
   65
 73
    4
 40
50.8
 49
31.75
 74
    0
 49
-6.35
 74
    0
 49
6.35
 74
    0
 49
-6.35
 74
    0
  0
LTYPE
  5
47
330
5
100
AcDbSymbolTableRecord
100
AcDbLinetypeTableRecord
  2
CENTERTINY
 70
    0
  3
Center (.15x) ___ _ ___ _ ___ _ ___ _ ___ _ ___
 72
   65
 73
    4
 40
7.619999999999999
 49
4.7625
 74
    0
 49
-0.9525
 74
    0
 49
0.9525
 74
    0
 49
-0.9525
 74
    0
  0
LTYPE
  5
48
330
5
100
AcDbSymbolTableRecord
100
AcDbLinetypeTableRecord
  2
CENTER2
 70
    0
  3
Center (.5x) ___ _ ___ _ ___ _ ___ _ ___ _ ___
 72
   65
 73
    4
 40
28.575
 49
19.05
 74
    0
 49
-3.175
 74
    0
 49
3.175
 74
    0
 49
-3.175
 74
    0
  0
LTYPE
  5
49
330
5
100
AcDbSymbolTableRecord
100
AcDbLinetypeTableRecord
  2
CENTERX2
 70
    0
  3
Center (2x) ________  __  ________  __  _____
 72
   65
 73
    4
 40
101.6
 49
63.5
 74
    0
 49
-12.7
 74
    0
 49
12.7
 74
    0
 49
-12.7
 74
    0
  0
ENDTAB
  0
TABLE
  2
LAYER
  5
2
330
0
100
AcDbSymbolTable
 70
    1
  0
LAYER
  5
10
330
2
100
AcDbSymbolTableRecord
100
AcDbLayerTableRecord
  2
0
 70
    0
 62
    7
  6
CONTINUOUS
370
    0
390
F
  0
LAYER
  5
4A
330
2
100
AcDbSymbolTableRecord
100
AcDbLayerTableRecord
  2
gear_M1.0000_action_lines
 70
    0
 62
    7
  6
CONTINUOUS
370
    0
390
F
  0
LAYER
  5
4B
330
2
100
AcDbSymbolTableRecord
100
AcDbLayerTableRecord
  2
gear_M1.0000_addendums
 70
    0
 62
    7
  6
CONTINUOUS
370
    0
390
F
  0
LAYER
  5
4C
330
2
100
AcDbSymbolTableRecord
100
AcDbLayerTableRecord
  2
gear_M1.0000_base_lines
 70
    0
 62
    7
  6
CONTINUOUS
370
    0
390
F
  0
LAYER
  5
4D
330
2
100
AcDbSymbolTableRecord
100
AcDbLayerTableRecord
  2
gear_M1.0000_dedendums
 70
    0
 62
    7
  6
CONTINUOUS
370
    0
390
F
  0
LAYER
  5
4E
330
2
100
AcDbSymbolTableRecord
100
AcDbLayerTableRecord
  2
gear_M1.0000_pitch_circles
 70
    0
 62
    7
  6
CONTINUOUS
370
    0
390
F
  0
LAYER
  5
4F
330
2
100
AcDbSymbolTableRecord
100
AcDbLayerTableRecord
  2
gear_M1.0000_shapes
 70
    0
 62
    7
  6
CONTINUOUS
370
    0
390
F
  0
ENDTAB
  0
TABLE
  2
STYLE
  5
3
330
0
100
AcDbSymbolTable
 70
    3
  0
STYLE
  5
50
330
2
100
AcDbSymbolTableRecord
100
AcDbTextStyleTableRecord
  2
standard
 70
    0
 40
0
 41
1
 50
0
 71
    0
 42
1
  3
standard
  4

  0
ENDTAB
  0
TABLE
  2
VIEW
  5
6
330
0
100
AcDbSymbolTable
 70
    0
  0
ENDTAB
  0
TABLE
  2
UCS
  5
7
330
0
100
AcDbSymbolTable
 70
    0
  0
ENDTAB
  0
TABLE
  2
APPID
  5
9
330
0
100
AcDbSymbolTable
 70
    1
  0
APPID
  5
12
330
9
100
AcDbSymbolTableRecord
100
AcDbRegAppTableRecord
  2
ACAD
 70
    0
  0
APPID
  5
51
330
9
100
AcDbSymbolTableRecord
100
AcDbRegAppTableRecord
  2
LibreCad
 70
    0
  0
ENDTAB
  0
TABLE
  2
DIMSTYLE
  5
A
330
0
100
AcDbSymbolTable
 70
    1
100
AcDbDimStyleTable
 71
    1
  0
DIMSTYLE
105
52
330
A
100
AcDbSymbolTableRecord
100
AcDbDimStyleTableRecord
  2
Standard
 70
    0
 40
1
 41
2.5
 42
0.625
 43
0.38
 44
1.25
 45
0
 46
0
 47
0
 48
0
 49
1
140
2.5
141
0.09
142
2.5
143
25.4
144
1
145
0
146
1
147
0.625
148
0
 71
    0
 72
    0
 73
    0
 74
    1
 75
    0
 76
    0
 77
    0
 78
    1
 79
    0
170
    0
171
    2
172
    0
173
    0
174
    0
175
    0
176
    0
177
    0
178
    0
179
    0
271
    2
272
    4
273
    2
274
    2
275
    0
276
    0
277
    2
278
    0
279
    0
280
    0
281
    0
282
    0
283
    1
284
    0
285
    0
286
    0
288
    0
289
    3
340
standard
341

371
   -2
372
   -2
  0
ENDTAB
  0
TABLE
  2
BLOCK_RECORD
  5
1
330
0
100
AcDbSymbolTable
 70
    2
  0
BLOCK_RECORD
  5
1F
330
1
100
AcDbSymbolTableRecord
100
AcDbBlockTableRecord
  2
*Model_Space
 70
    0
280
    1
281
    0
  0
BLOCK_RECORD
  5
1E
330
1
100
AcDbSymbolTableRecord
100
AcDbBlockTableRecord
  2
*Paper_Space
 70
    0
280
    1
281
    0
  0
ENDTAB
  0
ENDSEC
  0
SECTION
  2
BLOCKS
  0
BLOCK
  5
20
330
1F
100
AcDbEntity
  8
0
100
AcDbBlockBegin
  2
*Model_Space
 70
    0
 10
0
 20
0
 30
0
  3
*Model_Space
  1

  0
ENDBLK
  5
21
330
1F
100
AcDbEntity
  8
0
100
AcDbBlockEnd
  0
BLOCK
  5
1C
330
1B
100
AcDbEntity
  8
0
100
AcDbBlockBegin
  2
*Paper_Space
 70
    0
 10
0
 20
0
 30
0
  3
*Paper_Space
  1

  0
ENDBLK
  5
1D
330
1F
100
AcDbEntity
  8
0
100
AcDbBlockEnd
  0
ENDSEC
  0
SECTION
  2
ENTITIES
  0
LWPOLYLINE
  5
53
100
AcDbEntity
  8
gear_M1.0000_shapes
  6
ByLayer
 62
  256
370
   -1
100
AcDbPolyline
 90
  560
 70
    1
 43
0
 10
7.704855834098089
 20
5.496240785048478
 10
8.697066280133363
 20
5.678274623771725
 10
8.698020070018829
 20
5.678464603234603
 10
8.700869312835872
 20
5.679092275667817
 10
8.705593607267746
 20
5.680243752710037
 10
8.712169620540354
 20
5.682004422074828
 10
8.720571111304626
 20
5.684458858873633
 10
8.730768955033167
 20
5.687690737616627
 10
8.742731171911995
 20
5.691782744959831
 10
8.756422957206201
 20
5.696816493266404
 10
8.771806714076769
 20
5.702872435049436
 10
8.788842088823834
 20
5.710029778362903
 10
8.80748600853002
 20
5.718366403206841
 10
8.827692721075682
 20
5.727958779012015
 10
8.849413837496185
 20
5.73888188326864
 10
8.87259837664962
 20
5.751209121362892
 10
8.897192812161705
 20
5.765012247684085
 10
8.923141121612922
 20
5.780361288064513
 10
8.961918124174669
 20
5.804763341391055
 10
9.003098543548887
 20
5.832559507072382
 10
9.046501267098296
 20
5.863926829644456
 10
9.091936371781603
 20
5.899034123871171
 10
9.139205469018634
 20
5.938041594165844
 10
9.188102064823779
 20
5.981100467771435
 10
9.23841193467678
 20
6.028352642284776
 10
9.289913512578032
 20
6.079930348089992
 10
9.342378293714571
 20
6.135955826245534
 10
9.395571250142773
 20
6.196541022347677
 10
9.449251258874229
 20
6.261787296871017
 10
9.503171541732751
 20
6.33178515246352
 10
9.557080116332621
 20
6.406613978649968
 10
9.610720257511318
 20
6.486341814373331
 10
9.663830968533986
 20
6.571025128778651
 10
9.716147461371765
 20
6.660708620618518
 10
9.619397662556434
 20
6.913417161825448
 10
9.509118178226009
 20
7.160521523797385
 10
9.408709026132058
 20
7.186943982184351
 10
9.311273936344936
 20
7.209269184135939
 10
9.216968535484359
 20
7.227715969853995
 10
9.125937446396023
 20
7.242508821614994
 10
9.03831409038529
 20
7.253877382320211
 10
8.95422050903451
 20
7.262055967294657
 10
8.873767205829427
 20
7.267283070096258
 10
8.797053007791309
 20
7.269800863104146
 10
8.724164947282615
 20
7.269854693661276
 10
8.65517816412475
 20
7.2676925765518
 10
8.590155828137227
 20
7.263564683597813
 10
8.529149082178062
 20
7.257722831163238
 10
8.472197005735753
 20
7.250419966354572
 10
8.419326599093623
 20
7.2419096527092
 10
8.370552788057754
 20
7.232445556161836
 10
8.32587844921018
 20
7.222280932078409
 10
8.296676813099191
 20
7.214786117042832
 10
8.269525636745852
 20
7.207155509136073
 10
8.244415018242025
 20
7.199478237931741
 10
8.221332068434679
 20
7.191842890307328
 10
8.200260930988625
 20
7.184337420820331
 10
8.181182804977126
 20
7.177049062727546
 10
8.164075969981189
 20
7.170064239716076
 10
8.148915813676634
 20
7.163468478414025
 10
8.135674861886185
 20
7.157346321748306
 10
8.124322811072098
 20
7.151781243216307
 10
8.114826563243021
 20
7.146855562137517
 10
8.1071502632471
 20
7.142650359950455
 10
8.101255338421595
 20
7.13924539761949
 10
8.097100540567562
 20
7.136719034215326
 10
8.094641990216495
 20
7.135148146732038
 10
8.093833223154167
 20
7.134608051202685
 10
7.263517126631869
 20
6.561726678213639
 10
6.944543648263005
 20
6.944543648263005
 10
6.56172667821364
 20
7.263517126631869
 10
7.134608051202685
 20
8.093833223154167
 10
7.135148146732038
 20
8.094641990216495
 10
7.136719034215327
 20
8.097100540567562
 10
7.13924539761949
 20
8.101255338421595
 10
7.142650359950455
 20
8.1071502632471
 10
7.146855562137517
 20
8.114826563243021
 10
7.151781243216307
 20
8.124322811072098
 10
7.157346321748306
 20
8.135674861886185
 10
7.163468478414025
 20
8.148915813676634
 10
7.170064239716076
 20
8.164075969981189
 10
7.177049062727546
 20
8.181182804977126
 10
7.184337420820331
 20
8.200260930988623
 10
7.191842890307329
 20
8.221332068434677
 10
7.199478237931741
 20
8.244415018242025
 10
7.207155509136074
 20
8.269525636745851
 10
7.214786117042833
 20
8.296676813099191
 10
7.222280932078409
 20
8.32587844921018
 10
7.232445556161837
 20
8.370552788057754
 10
7.2419096527092
 20
8.419326599093623
 10
7.250419966354572
 20
8.472197005735751
 10
7.257722831163239
 20
8.529149082178062
 10
7.263564683597814
 20
8.590155828137227
 10
7.2676925765518
 20
8.65517816412475
 10
7.269854693661276
 20
8.724164947282613
 10
7.269800863104146
 20
8.797053007791309
 10
7.267283070096258
 20
8.873767205829427
 10
7.262055967294657
 20
8.95422050903451
 10
7.253877382320212
 20
9.03831409038529
 10
7.242508821614994
 20
9.125937446396025
 10
7.227715969853996
 20
9.216968535484359
 10
7.20926918413594
 20
9.311273936344936
 10
7.186943982184351
 20
9.408709026132058
 10
7.160521523797386
 20
9.509118178226007
 10
6.91341716182545
 20
9.619397662556434
 10
6.660708620618518
 20
9.716147461371765
 10
6.571025128778651
 20
9.663830968533986
 10
6.486341814373331
 20
9.61072025751132
 10
6.406613978649968
 20
9.557080116332621
 10
6.331785152463521
 20
9.503171541732751
 10
6.261787296871018
 20
9.449251258874231
 10
6.196541022347677
 20
9.395571250142773
 10
6.135955826245535
 20
9.342378293714571
 10
6.079930348089992
 20
9.289913512578032
 10
6.028352642284776
 20
9.23841193467678
 10
5.981100467771435
 20
9.188102064823777
 10
5.938041594165845
 20
9.139205469018634
 10
5.899034123871171
 20
9.091936371781603
 10
5.863926829644456
 20
9.046501267098296
 10
5.832559507072383
 20
9.003098543548887
 10
5.804763341391055
 20
8.961918124174669
 10
5.780361288064513
 20
8.92314112161292
 10
5.765012247684085
 20
8.897192812161704
 10
5.751209121362892
 20
8.87259837664962
 10
5.73888188326864
 20
8.849413837496186
 10
5.727958779012015
 20
8.827692721075682
 10
5.718366403206841
 20
8.80748600853002
 10
5.710029778362903
 20
8.788842088823833
 10
5.702872435049436
 20
8.771806714076769
 10
5.696816493266404
 20
8.756422957206201
 10
5.691782744959831
 20
8.742731171911995
 10
5.687690737616627
 20
8.730768955033167
 10
5.684458858873633
 20
8.720571111304626
 10
5.682004422074828
 20
8.712169620540353
 10
5.680243752710038
 20
8.705593607267744
 10
5.679092275667817
 20
8.700869312835872
 10
5.678464603234603
 20
8.698020070018829
 10
5.678274623771725
 20
8.697066280133363
 10
5.496240785048478
 20
7.704855834098089
 10
5
 20
7.75
 10
4.503759214951522
 20
7.704855834098089
 10
4.321725376228275
 20
8.697066280133363
 10
4.321535396765397
 20
8.698020070018829
 10
4.320907724332183
 20
8.700869312835872
 10
4.319756247289963
 20
8.705593607267746
 10
4.317995577925173
 20
8.712169620540354
 10
4.315541141126367
 20
8.720571111304626
 10
4.312309262383373
 20
8.730768955033167
 10
4.30821725504017
 20
8.742731171911995
 10
4.303183506733596
 20
8.756422957206201
 10
4.297127564950565
 20
8.771806714076769
 10
4.289970221637097
 20
8.788842088823834
 10
4.281633596793159
 20
8.80748600853002
 10
4.272041220987986
 20
8.827692721075682
 10
4.26111811673136
 20
8.849413837496185
 10
4.248790878637108
 20
8.87259837664962
 10
4.234987752315915
 20
8.897192812161705
 10
4.219638711935487
 20
8.923141121612922
 10
4.195236658608946
 20
8.961918124174669
 10
4.167440492927618
 20
9.003098543548887
 10
4.136073170355544
 20
9.046501267098296
 10
4.100965876128829
 20
9.091936371781603
 10
4.061958405834156
 20
9.139205469018634
 10
4.018899532228566
 20
9.188102064823779
 10
3.971647357715224
 20
9.23841193467678
 10
3.920069651910008
 20
9.289913512578032
 10
3.864044173754466
 20
9.342378293714571
 10
3.803458977652324
 20
9.395571250142773
 10
3.738212703128983
 20
9.449251258874231
 10
3.66821484753648
 20
9.503171541732751
 10
3.593386021350032
 20
9.557080116332621
 10
3.51365818562667
 20
9.610720257511318
 10
3.428974871221349
 20
9.663830968533986
 10
3.339291379381482
 20
9.716147461371765
 10
3.086582838174552
 20
9.619397662556434
 10
2.839478476202615
 20
9.509118178226009
 10
2.813056017815649
 20
9.408709026132058
 10
2.790730815864061
 20
9.311273936344936
 10
2.772284030146005
 20
9.216968535484359
 10
2.757491178385007
 20
9.125937446396023
 10
2.746122617679789
 20
9.038314090385292
 10
2.737944032705343
 20
8.95422050903451
 10
2.732716929903743
 20
8.873767205829427
 10
2.730199136895854
 20
8.797053007791309
 10
2.730145306338724
 20
8.724164947282615
 10
2.7323074234482
 20
8.65517816412475
 10
2.736435316402188
 20
8.590155828137227
 10
2.742277168836762
 20
8.529149082178062
 10
2.749580033645428
 20
8.472197005735753
 10
2.758090347290801
 20
8.419326599093623
 10
2.767554443838164
 20
8.370552788057754
 10
2.777719067921592
 20
8.32587844921018
 10
2.785213882957168
 20
8.296676813099191
 10
2.792844490863927
 20
8.269525636745852
 10
2.800521762068259
 20
8.244415018242025
 10
2.808157109692672
 20
8.221332068434679
 10
2.81566257917967
 20
8.200260930988625
 10
2.822950937272454
 20
8.181182804977126
 10
2.829935760283925
 20
8.164075969981189
 10
2.836531521585975
 20
8.148915813676634
 10
2.842653678251695
 20
8.135674861886185
 10
2.848218756783694
 20
8.124322811072098
 10
2.853144437862483
 20
8.114826563243021
 10
2.857349640049546
 20
8.1071502632471
 10
2.86075460238051
 20
8.101255338421595
 10
2.863280965784675
 20
8.097100540567562
 10
2.864851853267962
 20
8.094641990216495
 10
2.865391948797316
 20
8.093833223154167
 10
3.438273321786361
 20
7.263517126631869
 10
3.055456351736995
 20
6.944543648263005
 10
2.736482873368131
 20
6.56172667821364
 10
1.906166776845833
 20
7.134608051202685
 10
1.905358009783506
 20
7.135148146732038
 10
1.902899459432439
 20
7.136719034215327
 10
1.898744661578405
 20
7.13924539761949
 10
1.8928497367529
 20
7.142650359950455
 10
1.885173436756979
 20
7.146855562137517
 10
1.875677188927902
 20
7.151781243216307
 10
1.864325138113815
 20
7.157346321748306
 10
1.851084186323367
 20
7.163468478414025
 10
1.83592403001881
 20
7.170064239716076
 10
1.818817195022874
 20
7.177049062727546
 10
1.799739069011376
 20
7.184337420820331
 10
1.778667931565322
 20
7.191842890307329
 10
1.755584981757975
 20
7.199478237931741
 10
1.730474363254149
 20
7.207155509136074
 10
1.703323186900809
 20
7.214786117042833
 10
1.67412155078982
 20
7.222280932078409
 10
1.629447211942245
 20
7.232445556161837
 10
1.580673400906378
 20
7.2419096527092
 10
1.527802994264248
 20
7.250419966354572
 10
1.470850917821938
 20
7.257722831163239
 10
1.409844171862773
 20
7.263564683597814
 10
1.34482183587525
 20
7.2676925765518
 10
1.275835052717386
 20
7.269854693661276
 10
1.20294699220869
 20
7.269800863104146
 10
1.126232794170573
 20
7.267283070096258
 10
1.04577949096549
 20
7.262055967294657
 10
0.9616859096147099
 20
7.253877382320212
 10
0.8740625536039754
 20
7.242508821614994
 10
0.7830314645156404
 20
7.227715969853996
 10
0.6887260636550634
 20
7.20926918413594
 10
0.5912909738679417
 20
7.186943982184351
 10
0.4908818217739919
 20
7.160521523797386
 10
0.380602337443567
 20
6.91341716182545
 10
0.283852538628234
 20
6.660708620618518
 10
0.3361690314660146
 20
6.571025128778651
 10
0.3892797424886805
 20
6.486341814373331
 10
0.4429198836673791
 20
6.406613978649968
 10
0.496828458267248
 20
6.331785152463521
 10
0.5507487411257701
 20
6.261787296871018
 10
0.6044287498572283
 20
6.196541022347677
 10
0.6576217062854299
 20
6.135955826245535
 10
0.7100864874219681
 20
6.079930348089992
 10
0.7615880653232194
 20
6.028352642284776
 10
0.8118979351762219
 20
5.981100467771435
 10
0.8607945309813658
 20
5.938041594165845
 10
0.9080636282183967
 20
5.899034123871171
 10
0.9534987329017035
 20
5.863926829644456
 10
0.9969014564511118
 20
5.832559507072383
 10
1.03808187582533
 20
5.804763341391055
 10
1.07685887838708
 20
5.780361288064513
 10
1.102807187838296
 20
5.765012247684085
 10
1.127401623350379
 20
5.751209121362892
 10
1.150586162503815
 20
5.73888188326864
 10
1.172307278924317
 20
5.727958779012015
 10
1.192513991469981
 20
5.718366403206841
 10
1.211157911176167
 20
5.710029778362903
 10
1.228193285923231
 20
5.702872435049436
 10
1.243577042793798
 20
5.696816493266404
 10
1.257268828088005
 20
5.691782744959831
 10
1.269231044966832
 20
5.687690737616627
 10
1.279428888695375
 20
5.684458858873633
 10
1.287830379459647
 20
5.682004422074828
 10
1.294406392732255
 20
5.680243752710038
 10
1.299130687164128
 20
5.679092275667817
 10
1.301979929981171
 20
5.678464603234603
 10
1.302933719866636
 20
5.678274623771725
 10
2.295144165901911
 20
5.496240785048478
 10
2.25
 20
5
 10
2.295144165901911
 20
4.503759214951522
 10
1.302933719866636
 20
4.321725376228275
 10
1.30197992998117
 20
4.321535396765398
 10
1.299130687164127
 20
4.320907724332184
 10
1.294406392732255
 20
4.319756247289963
 10
1.287830379459646
 20
4.317995577925173
 10
1.279428888695375
 20
4.315541141126368
 10
1.269231044966832
 20
4.312309262383374
 10
1.257268828088005
 20
4.30821725504017
 10
1.243577042793799
 20
4.303183506733597
 10
1.228193285923231
 20
4.297127564950565
 10
1.211157911176166
 20
4.289970221637097
 10
1.192513991469981
 20
4.28163359679316
 10
1.172307278924317
 20
4.272041220987986
 10
1.150586162503815
 20
4.26111811673136
 10
1.127401623350379
 20
4.248790878637108
 10
1.102807187838295
 20
4.234987752315916
 10
1.076858878387079
 20
4.219638711935488
 10
1.038081875825329
 20
4.195236658608946
 10
0.9969014564511118
 20
4.167440492927618
 10
0.9534987329017026
 20
4.136073170355544
 10
0.9080636282183958
 20
4.100965876128829
 10
0.8607945309813658
 20
4.061958405834156
 10
0.811897935176221
 20
4.018899532228566
 10
0.7615880653232194
 20
3.971647357715225
 10
0.7100864874219672
 20
3.920069651910008
 10
0.657621706285429
 20
3.864044173754466
 10
0.6044287498572283
 20
3.803458977652324
 10
0.5507487411257701
 20
3.738212703128983
 10
0.496828458267248
 20
3.66821484753648
 10
0.4429198836673782
 20
3.593386021350033
 10
0.3892797424886814
 20
3.51365818562667
 10
0.3361690314660146
 20
3.428974871221349
 10
0.2838525386282349
 20
3.339291379381483
 10
0.3806023374435661
 20
3.086582838174552
 10
0.490881821773991
 20
2.839478476202616
 10
0.5912909738679417
 20
2.81305601781565
 10
0.6887260636550634
 20
2.790730815864061
 10
0.7830314645156404
 20
2.772284030146006
 10
0.8740625536039763
 20
2.757491178385007
 10
0.961685909614709
 20
2.746122617679789
 10
1.045779490965489
 20
2.737944032705343
 10
1.126232794170573
 20
2.732716929903743
 10
1.20294699220869
 20
2.730199136895854
 10
1.275835052717385
 20
2.730145306338724
 10
1.34482183587525
 20
2.7323074234482
 10
1.409844171862772
 20
2.736435316402188
 10
1.470850917821938
 20
2.742277168836762
 10
1.527802994264247
 20
2.749580033645428
 10
1.580673400906378
 20
2.758090347290801
 10
1.629447211942245
 20
2.767554443838165
 10
1.67412155078982
 20
2.777719067921592
 10
1.703323186900808
 20
2.785213882957168
 10
1.730474363254148
 20
2.792844490863927
 10
1.755584981757975
 20
2.800521762068259
 10
1.778667931565322
 20
2.808157109692672
 10
1.799739069011375
 20
2.81566257917967
 10
1.818817195022874
 20
2.822950937272454
 10
1.83592403001881
 20
2.829935760283925
 10
1.851084186323367
 20
2.836531521585975
 10
1.864325138113814
 20
2.842653678251695
 10
1.875677188927901
 20
2.848218756783694
 10
1.885173436756979
 20
2.853144437862484
 10
1.8928497367529
 20
2.857349640049546
 10
1.898744661578405
 20
2.86075460238051
 10
1.902899459432439
 20
2.863280965784675
 10
1.905358009783506
 20
2.864851853267962
 10
1.906166776845833
 20
2.865391948797316
 10
2.736482873368131
 20
3.438273321786361
 10
3.055456351736995
 20
3.055456351736995
 10
3.43827332178636
 20
2.736482873368131
 10
2.865391948797315
 20
1.906166776845833
 10
2.864851853267962
 20
1.905358009783506
 10
2.863280965784673
 20
1.902899459432438
 10
2.860754602380509
 20
1.898744661578405
 10
2.857349640049545
 20
1.8928497367529
 10
2.853144437862482
 20
1.885173436756979
 10
2.848218756783693
 20
1.875677188927901
 10
2.842653678251694
 20
1.864325138113815
 10
2.836531521585974
 20
1.851084186323367
 10
2.829935760283924
 20
1.835924030018811
 10
2.822950937272453
 20
1.818817195022874
 10
2.815662579179668
 20
1.799739069011376
 10
2.808157109692671
 20
1.778667931565322
 10
2.800521762068258
 20
1.755584981757975
 10
2.792844490863926
 20
1.730474363254149
 10
2.785213882957166
 20
1.703323186900809
 10
2.777719067921591
 20
1.67412155078982
 10
2.767554443838163
 20
1.629447211942245
 10
2.758090347290799
 20
1.580673400906378
 10
2.749580033645427
 20
1.527802994264248
 10
2.742277168836761
 20
1.470850917821938
 10
2.736435316402186
 20
1.409844171862772
 10
2.732307423448199
 20
1.34482183587525
 10
2.730145306338723
 20
1.275835052717386
 10
2.730199136895854
 20
1.20294699220869
 10
2.732716929903742
 20
1.126232794170573
 10
2.737944032705342
 20
1.04577949096549
 10
2.746122617679788
 20
0.9616859096147099
 10
2.757491178385005
 20
0.8740625536039754
 10
2.772284030146004
 20
0.7830314645156404
 10
2.790730815864059
 20
0.6887260636550625
 10
2.813056017815648
 20
0.5912909738679417
 10
2.839478476202614
 20
0.4908818217739919
 10
3.08658283817455
 20
0.380602337443567
 10
3.339291379381481
 20
0.283852538628234
 10
3.428974871221348
 20
0.3361690314660146
 10
3.513658185626669
 20
0.3892797424886805
 10
3.593386021350031
 20
0.4429198836673791
 10
3.668214847536479
 20
0.496828458267248
 10
3.738212703128982
 20
0.5507487411257701
 10
3.803458977652322
 20
0.6044287498572283
 10
3.864044173754464
 20
0.657621706285429
 10
3.920069651910008
 20
0.7100864874219681
 10
3.971647357715223
 20
0.7615880653232194
 10
4.018899532228565
 20
0.8118979351762219
 10
4.061958405834155
 20
0.8607945309813658
 10
4.100965876128828
 20
0.9080636282183958
 10
4.136073170355544
 20
0.9534987329017035
 10
4.167440492927617
 20
0.9969014564511118
 10
4.195236658608945
 20
1.03808187582533
 10
4.219638711935486
 20
1.076858878387079
 10
4.234987752315914
 20
1.102807187838296
 10
4.248790878637107
 20
1.127401623350379
 10
4.26111811673136
 20
1.150586162503815
 10
4.272041220987985
 20
1.172307278924317
 10
4.281633596793158
 20
1.192513991469981
 10
4.289970221637097
 20
1.211157911176167
 10
4.297127564950564
 20
1.228193285923231
 10
4.303183506733596
 20
1.243577042793798
 10
4.308217255040169
 20
1.257268828088005
 10
4.312309262383372
 20
1.269231044966832
 10
4.315541141126367
 20
1.279428888695375
 10
4.317995577925172
 20
1.287830379459646
 10
4.319756247289962
 20
1.294406392732255
 10
4.320907724332182
 20
1.299130687164127
 10
4.321535396765396
 20
1.301979929981171
 10
4.321725376228274
 20
1.302933719866636
 10
4.503759214951521
 20
2.295144165901911
 10
4.999999999999999
 20
2.25
 10
5.496240785048478
 20
2.295144165901911
 10
5.678274623771724
 20
1.302933719866636
 10
5.678464603234602
 20
1.30197992998117
 10
5.679092275667816
 20
1.299130687164127
 10
5.680243752710037
 20
1.294406392732255
 10
5.682004422074827
 20
1.287830379459646
 10
5.684458858873632
 20
1.279428888695375
 10
5.687690737616626
 20
1.269231044966832
 10
5.69178274495983
 20
1.257268828088005
 10
5.696816493266403
 20
1.243577042793799
 10
5.702872435049435
 20
1.228193285923231
 10
5.710029778362902
 20
1.211157911176166
 10
5.71836640320684
 20
1.192513991469981
 10
5.727958779012014
 20
1.172307278924317
 10
5.738881883268639
 20
1.150586162503815
 10
5.751209121362892
 20
1.127401623350379
 10
5.765012247684084
 20
1.102807187838295
 10
5.780361288064512
 20
1.076858878387079
 10
5.804763341391054
 20
1.038081875825329
 10
5.832559507072382
 20
0.9969014564511118
 10
5.863926829644456
 20
0.9534987329017026
 10
5.899034123871171
 20
0.9080636282183958
 10
5.938041594165843
 20
0.8607945309813658
 10
5.981100467771434
 20
0.811897935176221
 10
6.028352642284775
 20
0.7615880653232194
 10
6.079930348089992
 20
0.7100864874219672
 10
6.135955826245533
 20
0.657621706285429
 10
6.196541022347676
 20
0.6044287498572283
 10
6.261787296871017
 20
0.5507487411257701
 10
6.331785152463519
 20
0.496828458267248
 10
6.406613978649967
 20
0.4429198836673782
 10
6.486341814373329
 20
0.3892797424886814
 10
6.571025128778651
 20
0.3361690314660137
 10
6.660708620618517
 20
0.283852538628234
 10
6.913417161825448
 20
0.3806023374435661
 10
7.160521523797384
 20
0.490881821773991
 10
7.18694398218435
 20
0.5912909738679417
 10
7.209269184135938
 20
0.6887260636550634
 10
7.227715969853994
 20
0.7830314645156404
 10
7.242508821614993
 20
0.8740625536039763
 10
7.25387738232021
 20
0.961685909614709
 10
7.262055967294657
 20
1.045779490965489
 10
7.267283070096257
 20
1.126232794170573
 10
7.269800863104146
 20
1.20294699220869
 10
7.269854693661276
 20
1.275835052717385
 10
7.267692576551799
 20
1.34482183587525
 10
7.263564683597812
 20
1.409844171862772
 10
7.257722831163237
 20
1.470850917821938
 10
7.250419966354572
 20
1.527802994264247
 10
7.241909652709199
 20
1.580673400906377
 10
7.232445556161835
 20
1.629447211942244
 10
7.222280932078408
 20
1.674121550789819
 10
7.214786117042832
 20
1.703323186900808
 10
7.207155509136072
 20
1.730474363254147
 10
7.199478237931741
 20
1.755584981757974
 10
7.191842890307328
 20
1.778667931565321
 10
7.18433742082033
 20
1.799739069011375
 10
7.177049062727546
 20
1.818817195022874
 10
7.170064239716075
 20
1.83592403001881
 10
7.163468478414025
 20
1.851084186323366
 10
7.157346321748305
 20
1.864325138113814
 10
7.151781243216306
 20
1.875677188927901
 10
7.146855562137516
 20
1.885173436756979
 10
7.142650359950454
 20
1.8928497367529
 10
7.139245397619489
 20
1.898744661578404
 10
7.136719034215325
 20
1.902899459432438
 10
7.135148146732037
 20
1.905358009783506
 10
7.134608051202684
 20
1.906166776845833
 10
6.561726678213638
 20
2.736482873368131
 10
6.944543648263005
 20
3.055456351736994
 10
7.263517126631868
 20
3.43827332178636
 10
8.093833223154167
 20
2.865391948797315
 10
8.094641990216493
 20
2.864851853267961
 10
8.09710054056756
 20
2.863280965784673
 10
8.101255338421595
 20
2.860754602380509
 10
8.1071502632471
 20
2.857349640049545
 10
8.114826563243021
 20
2.853144437862482
 10
8.124322811072098
 20
2.848218756783693
 10
8.135674861886185
 20
2.842653678251694
 10
8.148915813676632
 20
2.836531521585974
 10
8.164075969981189
 20
2.829935760283923
 10
8.181182804977126
 20
2.822950937272453
 10
8.200260930988623
 20
2.815662579179668
 10
8.221332068434677
 20
2.808157109692671
 10
8.244415018242025
 20
2.800521762068258
 10
8.269525636745851
 20
2.792844490863926
 10
8.296676813099191
 20
2.785213882957166
 10
8.32587844921018
 20
2.777719067921591
 10
8.370552788057754
 20
2.767554443838163
 10
8.419326599093623
 20
2.758090347290799
 10
8.472197005735751
 20
2.749580033645427
 10
8.529149082178062
 20
2.742277168836761
 10
8.590155828137227
 20
2.736435316402186
 10
8.655178164124749
 20
2.732307423448199
 10
8.724164947282613
 20
2.730145306338723
 10
8.797053007791309
 20
2.730199136895853
 10
8.873767205829427
 20
2.732716929903741
 10
8.95422050903451
 20
2.737944032705342
 10
9.038314090385288
 20
2.746122617679788
 10
9.125937446396023
 20
2.757491178385005
 10
9.216968535484359
 20
2.772284030146004
 10
9.311273936344936
 20
2.790730815864059
 10
9.408709026132058
 20
2.813056017815648
 10
9.509118178226007
 20
2.839478476202614
 10
9.619397662556434
 20
3.08658283817455
 10
9.716147461371765
 20
3.339291379381481
 10
9.663830968533984
 20
3.428974871221348
 10
9.610720257511318
 20
3.513658185626669
 10
9.557080116332621
 20
3.593386021350031
 10
9.503171541732751
 20
3.668214847536478
 10
9.449251258874229
 20
3.738212703128982
 10
9.395571250142771
 20
3.803458977652322
 10
9.342378293714571
 20
3.864044173754464
 10
9.289913512578032
 20
3.920069651910008
 10
9.23841193467678
 20
3.971647357715223
 10
9.188102064823777
 20
4.018899532228565
 10
9.139205469018634
 20
4.061958405834154
 10
9.091936371781603
 20
4.100965876128828
 10
9.046501267098296
 20
4.136073170355543
 10
9.003098543548887
 20
4.167440492927617
 10
8.961918124174669
 20
4.195236658608944
 10
8.923141121612922
 20
4.219638711935486
 10
8.897192812161704
 20
4.234987752315914
 10
8.87259837664962
 20
4.248790878637107
 10
8.849413837496185
 20
4.261118116731359
 10
8.827692721075682
 20
4.272041220987984
 10
8.807486008530018
 20
4.281633596793158
 10
8.788842088823834
 20
4.289970221637097
 10
8.771806714076769
 20
4.297127564950564
 10
8.756422957206201
 20
4.303183506733596
 10
8.742731171911995
 20
4.308217255040169
 10
8.730768955033167
 20
4.312309262383372
 10
8.720571111304624
 20
4.315541141126366
 10
8.712169620540353
 20
4.317995577925172
 10
8.705593607267744
 20
4.319756247289961
 10
8.700869312835872
 20
4.320907724332182
 10
8.698020070018829
 20
4.321535396765396
 10
8.697066280133363
 20
4.321725376228274
 10
7.704855834098089
 20
4.503759214951521
 10
7.75
 20
4.999999999999999
  0
CIRCLE
  5
54
100
AcDbEntity
  8
gear_M1.0000_pitch_circles
  6
ByLayer
 62
  256
370
   -1
100
AcDbCircle
 10
5
 20
5
 40
4
  0
CIRCLE
  5
55
100
AcDbEntity
  8
gear_M1.0000_addendums
  6
ByLayer
 62
  256
370
   -1
100
AcDbCircle
 10
5
 20
5
 40
5
  0
CIRCLE
  5
56
100
AcDbEntity
  8
gear_M1.0000_base_lines
  6
ByLayer
 62
  256
370
   -1
100
AcDbCircle
 10
5
 20
5
 40
3.758770483143634
  0
LINE
  5
57
100
AcDbEntity
  8
gear_M1.0000_action_lines
  6
ByLayer
 62
  256
370
   -1
100
AcDbLine
 10
8.213417505174579
 20
6.94994961021802
 11
8.923141121612922
 21
5.780361288064513
  0
LWPOLYLINE
  5
58
100
AcDbEntity
  8
gear_M1.0000_shapes
  6
ByLayer
 62
  256
370
   -1
100
AcDbPolyline
 90
  560
 70
    1
 43
0
 10
15.31062061332273
 20
6.491151360958395
 10
16.15821547603663
 20
7.038143898716317
 10
16.15902452658263
 20
7.038683569501105
 10
16.16141843163486
 20
7.040351315259534
 10
16.16534546450124
 20
7.043218939733592
 10
16.17075146533652
 20
7.047356458572528
 10
16.17757989614149
 20
7.052832026105047
 10
16.18577189782722
 20
7.059711863697775
 10
16.19526634930059
 20
7.068060189755897
 10
16.20599992852573
 20
7.077939151420667
 10
16.21790717551448
 20
7.089408758017294
 10
16.23092055719752
 20
7.102526816305435
 10
16.24497053412696
 20
7.117348867583229
 10
16.25998562895889
 20
7.133928126694505
 10
16.27589249666413
 20
7.152315422987387
 10
16.29261599641332
 20
7.172559143271176
 10
16.31007926508181
 20
7.194705176816917
 10
16.32820379231823
 20
7.218796862445621
 10
16.35472994356449
 20
7.256152978869652
 10
16.38218193824837
 20
7.297563626706856
 10
16.41032479693718
 20
7.343123311096328
 10
16.43891853835358
 20
7.392915567495456
 10
16.46771864340019
 20
7.447012741559337
 10
16.49647652804457
 20
7.50547578756529
 10
16.52494002435026
 20
7.568354085720705
 10
16.55285386892717
 20
7.635685278665614
 10
16.5799601980632
 20
7.707495127454138
 10
16.60599904878853
 20
7.78379738727134
 10
16.63070886511423
 20
7.864593703113925
 10
16.65382700867903
 20
7.949873525634902
 10
16.67509027303009
 20
8.039614047323647
 10
16.69423540075764
 20
8.13378015916383
 10
16.71099960269795
 20
8.232324427882554
 10
16.725121078415
 20
8.335187093874691
 10
16.5392343691313
 20
8.531829565587749
 10
16.34298164863219
 20
8.718127713905005
 10
16.24008963231508
 20
8.704221704066182
 10
16.14151046889127
 20
8.687663929376752
 10
16.04730446614797
 20
8.668716064538415
 10
15.95751960763799
 20
8.647640798794594
 10
15.87219155366526
 20
8.624701315445581
 10
15.7913436629483
 20
8.600160772599033
 10
15.71498703487906
 20
8.574281785945709
 10
15.64312057226562
 20
8.547325914346134
 10
15.57573106441786
 20
8.519553149008765
 10
15.51279329040625
 20
8.49122140703391
 10
15.45427014229534
 20
8.462586030090311
 10
15.40011276812493
 20
8.433899288982957
 10
15.35026073438421
 20
8.405409894861329
 10
15.30464220769595
 20
8.377362517806782
 10
15.26317415540125
 20
8.349997313526458
 10
15.22576256470768
 20
8.323549458868619
 10
15.20163297202461
 20
8.305475428855219
 10
15.1794504120929
 20
8.288058580998239
 10
15.15917171061818
 20
8.271377516245392
 10
15.14075113941168
 20
8.255509193662954
 10
15.12414046914469
 20
8.240528855256496
 10
15.10928902419392
 20
8.226509952351005
 10
15.09614373953395
 20
8.213524073586431
 10
15.08464921963144
 20
8.201640874583518
 10
15.07474779929432
 20
8.190928009333533
 10
15.06637960642799
 20
8.181451063364243
 10
15.05948262664876
 20
8.173273488733209
 10
15.05399276970392
 20
8.166456540898096
 10
15.04984393764618
 20
8.161059217512353
 10
15.04696809470914
 20
8.157138199193186
 10
15.04529533882913
 20
8.154747792307363
 10
15.04475397475771
 20
8.153939873818834
 10
14.49598743945676
 20
7.307492487742396
 10
14.05503944354231
 20
7.539565272358626
 10
13.5794522653207
 20
7.688258743539155
 10
13.7920102077375
 20
8.674380951370097
 10
13.79220068799337
 20
8.675334641369027
 10
13.79271416015425
 20
8.67820666220006
 10
13.7934632750125
 20
8.683011210481318
 10
13.79436022723393
 20
8.689759497959345
 10
13.7953168460279
 20
8.698459738619492
 10
13.79624468615608
 20
8.70911713837824
 10
13.7970551192093
 20
8.721733887365961
 10
13.79765942508156
 20
8.736309154806708
 10
13.79796888357054
 20
8.752839086499726
 10
13.79789486603325
 20
8.771316804905522
 10
13.79734892702595
 20
8.791732411837465
 10
13.79624289585713
 20
8.814072993757915
 10
13.79448896798256
 20
8.838322629676108
 10
13.79199979617128
 20
8.864462401643046
 10
13.78868858137187
 20
8.892470407836793
 10
13.78446916320827
 20
8.92232177822974
 10
13.77681122139106
 20
8.967493362896978
 10
13.76694096309011
 20
9.016186604394056
 10
13.75462540753043
 20
9.068302172395406
 10
13.73963579383505
 20
9.123729443000837
 10
13.72174806478879
 20
9.182346671201778
 10
13.70074334375379
 20
9.244021182726033
 10
13.67640840399266
 20
9.308609584995228
 10
13.64853612966525
 20
9.375957996901271
 10
13.61692596777607
 20
9.445902297080785
 10
13.58138437036165
 20
9.518268390339566
 10
13.54172522622024
 20
9.592872491852523
 10
13.49777028150039
 20
9.669521428738607
 10
13.44934954847986
 20
9.748012958584736
 10
13.39630170188253
 20
9.828136104467733
 10
13.33847446209762
 20
9.909671505998986
 10
13.27572496468354
 20
9.992391785892837
 10
13.005235986799
 20
9.999997258443472
 10
12.73473167331014
 20
9.992958312949867
 10
12.67180906469863
 20
9.910369636625806
 10
12.61381118452222
 20
9.828955526920881
 10
12.56059564487015
 20
9.748943659836421
 10
12.51201062589262
 20
9.670553714213369
 10
12.46789524453606
 20
9.5939970043908
 10
12.42807993702626
 20
9.519476128359418
 10
12.39238685448277
 20
9.447184631910316
 10
12.36063027102977
 20
9.377306689255608
 10
12.33261700375215
 20
9.310016800573274
 10
12.308146843829
 20
9.245479506903637
 10
12.28701299816204
 20
9.183849122799373
 10
12.26900254080205
 20
9.12526948710507
 10
12.25389687346333
 20
9.069873732215761
 10
12.2414721944041
 20
9.01778407213699
 10
12.23149997493908
 20
8.969111609641633
 10
12.22374744284108
 20
8.923956162790841
 10
12.21946551341346
 20
8.89411369499153
 10
12.21609564608824
 20
8.866112685213182
 10
12.21355173276595
 20
8.839978183882597
 10
12.2117470204566
 20
8.81573227456505
 10
12.21059420174243
 20
8.793394058107532
 10
12.2100055056166
 20
8.772979639363157
 10
12.20989278862701
 20
8.754502116505371
 10
12.2101676262546
 20
8.737971572938667
 10
12.21074140445505
 20
8.723395071810712
 10
12.21152541129281
 20
8.71077665312883
 10
12.21243092859648
 20
8.70011733348197
 10
12.21336932356424
 20
8.691415108367325
 10
12.21425214024853
 20
8.684664957118976
 10
12.21499119084875
 20
8.679858850433925
 10
12.21549864674149
 20
8.676985760489144
 10
12.21568712917738
 20
8.676031673641265
 10
12.42617927739011
 20
7.689466448629442
 10
11.9502817195974
 20
7.541769370298692
 10
11.50884863904161
 20
7.310620613322733
 10
10.96185610128368
 20
8.158215476036629
 10
10.9613164304989
 20
8.159024526582627
 10
10.95964868474046
 20
8.161418431634864
 10
10.95678106026641
 20
8.165345464501236
 10
10.95264354142747
 20
8.170751465336521
 10
10.94716797389495
 20
8.177579896141491
 10
10.94028813630223
 20
8.185771897827214
 10
10.9319398102441
 20
8.195266349300585
 10
10.92206084857933
 20
8.205999928525737
 10
10.91059124198271
 20
8.217907175514474
 10
10.89747318369457
 20
8.230920557197523
 10
10.88265113241677
 20
8.24497053412696
 10
10.8660718733055
 20
8.259985628958892
 10
10.84768457701261
 20
8.275892496664131
 10
10.82744085672882
 20
8.292615996413323
 10
10.80529482318308
 20
8.310079265081811
 10
10.78120313755438
 20
8.328203792318233
 10
10.74384702113035
 20
8.354729943564493
 10
10.70243637329314
 20
8.382181938248367
 10
10.65687668890367
 20
8.41032479693718
 10
10.60708443250454
 20
8.438918538353576
 10
10.55298725844066
 20
8.467718643400186
 10
10.49452421243471
 20
8.496476528044571
 10
10.4316459142793
 20
8.52494002435026
 10
10.36431472133439
 20
8.552853868927166
 10
10.29250487254586
 20
8.579960198063205
 10
10.21620261272866
 20
8.605999048788528
 10
10.13540629688607
 20
8.630708865114226
 10
10.0501264743651
 20
8.653827008679027
 10
9.960385952676354
 20
8.675090273030092
 10
9.86621984083617
 20
8.694235400757641
 10
9.767675572117447
 20
8.710999602697949
 10
9.664812906125309
 20
8.725121078414997
 10
9.468170434412251
 20
8.539234369131302
 10
9.281872286094996
 20
8.342981648632184
 10
9.295778295933818
 20
8.24008963231508
 10
9.312336070623248
 20
8.141510468891273
 10
9.331283935461585
 20
8.047304466147974
 10
9.352359201205406
 20
7.957519607637986
 10
9.375298684554419
 20
7.87219155366526
 10
9.399839227400967
 20
7.791343662948303
 10
9.425718214054291
 20
7.714987034879059
 10
9.452674085653866
 20
7.643120572265618
 10
9.480446850991237
 20
7.575731064417856
 10
9.50877859296609
 20
7.512793290406253
 10
9.537413969909689
 20
7.454270142295341
 10
9.566100711017043
 20
7.400112768124936
 10
9.594590105138671
 20
7.350260734384205
 10
9.62263748219322
 20
7.304642207695952
 10
9.650002686473542
 20
7.263174155401248
 10
9.676450541131381
 20
7.225762564707678
 10
9.694524571144781
 20
7.201632972024609
 10
9.711941419001761
 20
7.179450412092905
 10
9.728622483754609
 20
7.159171710618183
 10
9.744490806337046
 20
7.140751139411679
 10
9.759471144743504
 20
7.124140469144688
 10
9.773490047648997
 20
7.10928902419392
 10
9.786475926413569
 20
7.096143739533955
 10
9.798359125416482
 20
7.084649219631435
 10
9.809071990666467
 20
7.07474779929432
 10
9.818548936635757
 20
7.066379606427991
 10
9.826726511266791
 20
7.059482626648763
 10
9.833543459101904
 20
7.053992769703924
 10
9.838940782487649
 20
7.049843937646184
 10
9.842861800806814
 20
7.046968094709138
 10
9.845252207692637
 20
7.045295338829132
 10
9.846060126181166
 20
7.044753974757713
 10
10.6925075122576
 20
6.495987439456764
 10
10.46043472764137
 20
6.055039443542305
 10
10.31174125646085
 20
5.579452265320695
 10
9.325619048629903
 20
5.792010207737505
 10
9.324665358630973
 20
5.792200687993372
 10
9.32179333779994
 20
5.792714160154245
 10
9.316988789518682
 20
5.793463275012496
 10
9.310240502040655
 20
5.794360227233927
 10
9.301540261380508
 20
5.795316846027896
 10
9.29088286162176
 20
5.796244686156082
 10
9.278266112634039
 20
5.797055119209295
 10
9.263690845193292
 20
5.797659425081562
 10
9.247160913500274
 20
5.797968883570544
 10
9.228683195094478
 20
5.797894866033252
 10
9.208267588162535
 20
5.797348927025948
 10
9.185927006242085
 20
5.796242895857135
 10
9.161677370323892
 20
5.794488967982563
 10
9.135537598356954
 20
5.791999796171278
 10
9.107529592163207
 20
5.788688581371868
 10
9.07767822177026
 20
5.784469163208272
 10
9.032506637103022
 20
5.776811221391057
 10
8.983813395605944
 20
5.766940963090106
 10
8.931697827604594
 20
5.754625407530426
 10
8.876270556999163
 20
5.739635793835052
 10
8.817653328798222
 20
5.721748064788795
 10
8.755978817273967
 20
5.700743343753789
 10
8.691390415004772
 20
5.676408403992657
 10
8.624042003098729
 20
5.64853612966525
 10
8.554097702919215
 20
5.616925967776071
 10
8.481731609660434
 20
5.58138437036165
 10
8.407127508147477
 20
5.541725226220243
 10
8.330478571261393
 20
5.49777028150039
 10
8.251987041415264
 20
5.44934954847986
 10
8.171863895532267
 20
5.396301701882529
 10
8.090328494001014
 20
5.338474462097624
 10
8.007608214107163
 20
5.275724964683541
 10
8.000002741556528
 20
5.005235986799001
 10
8.007041687050133
 20
4.734731673310138
 10
8.089630363374194
 20
4.671809064698634
 10
8.171044473079119
 20
4.613811184522218
 10
8.251056340163579
 20
4.560595644870148
 10
8.329446285786631
 20
4.512010625892625
 10
8.4060029956092
 20
4.467895244536063
 10
8.480523871640582
 20
4.428079937026266
 10
8.552815368089684
 20
4.392386854482766
 10
8.622693310744392
 20
4.360630271029765
 10
8.689983199426726
 20
4.332617003752146
 10
8.754520493096363
 20
4.308146843829002
 10
8.816150877200627
 20
4.287012998162043
 10
8.87473051289493
 20
4.269002540802045
 10
8.930126267784239
 20
4.253896873463333
 10
8.98221592786301
 20
4.241472194404096
 10
9.030888390358367
 20
4.231499974939084
 10
9.076043837209159
 20
4.22374744284108
 10
9.10588630500847
 20
4.219465513413457
 10
9.133887314786818
 20
4.216095646088237
 10
9.160021816117403
 20
4.213551732765954
 10
9.18426772543495
 20
4.211747020456603
 10
9.206605941892468
 20
4.210594201742435
 10
9.227020360636843
 20
4.210005505616598
 10
9.245497883494629
 20
4.209892788627005
 10
9.262028427061333
 20
4.210167626254598
 10
9.276604928189288
 20
4.210741404455048
 10
9.28922334687117
 20
4.211525411292813
 10
9.29988266651803
 20
4.212430928596477
 10
9.308584891632675
 20
4.213369323564241
 10
9.315335042881024
 20
4.214252140248526
 10
9.320141149566075
 20
4.214991190848752
 10
9.323014239510856
 20
4.21549864674149
 10
9.323968326358735
 20
4.215687129177384
 10
10.31053355137056
 20
4.426179277390113
 10
10.45823062970131
 20
3.9502817195974
 10
10.68937938667727
 20
3.508848639041605
 10
9.841784523963371
 20
2.961856101283683
 10
9.840975473417373
 20
2.961316430498896
 10
9.838581568365136
 20
2.959648684740466
 10
9.834654535498764
 20
2.956781060266408
 10
9.829248534663479
 20
2.952643541427472
 10
9.822420103858509
 20
2.947167973894953
 10
9.814228102172786
 20
2.940288136302226
 10
9.804733650699413
 20
2.931939810244103
 10
9.794000071474263
 20
2.922060848579334
 10
9.782092824485526
 20
2.910591241982706
 10
9.769079442802475
 20
2.897473183694565
 10
9.75502946587304
 20
2.882651132416771
 10
9.740014371041108
 20
2.866071873305495
 10
9.724107503335869
 20
2.847684577012614
 10
9.707384003586677
 20
2.827440856728824
 10
9.689920734918189
 20
2.805294823183083
 10
9.671796207681767
 20
2.78120313755438
 10
9.645270056435507
 20
2.743847021130348
 10
9.617818061751633
 20
2.702436373293145
 10
9.58967520306282
 20
2.656876688903673
 10
9.561081461646424
 20
2.607084432504544
 10
9.532281356599814
 20
2.552987258440663
 10
9.503523471955429
 20
2.49452421243471
 10
9.47505997564974
 20
2.431645914279295
 10
9.447146131072834
 20
2.364314721334387
 10
9.420039801936795
 20
2.292504872545862
 10
9.394000951211472
 20
2.21620261272866
 10
9.369291134885774
 20
2.135406296886075
 10
9.346172991320973
 20
2.050126474365099
 10
9.324909726969908
 20
1.960385952676353
 10
9.305764599242359
 20
1.866219840836171
 10
9.289000397302049
 20
1.767675572117446
 10
9.274878921585003
 20
1.66481290612531
 10
9.460765630868698
 20
1.468170434412251
 10
9.657018351367814
 20
1.281872286094996
 10
9.75991036768492
 20
1.295778295933819
 10
9.858489531108727
 20
1.312336070623248
 10
9.952695533852026
 20
1.331283935461585
 10
10.04248039236201
 20
1.352359201205406
 10
10.12780844633474
 20
1.37529868455442
 10
10.2086563370517
 20
1.399839227400967
 10
10.28501296512094
 20
1.425718214054291
 10
10.35687942773438
 20
1.452674085653867
 10
10.42426893558214
 20
1.480446850991237
 10
10.48720670959375
 20
1.50877859296609
 10
10.54572985770466
 20
1.53741396990969
 10
10.59988723187506
 20
1.566100711017043
 10
10.64973926561579
 20
1.59459010513867
 10
10.69535779230405
 20
1.622637482193219
 10
10.73682584459875
 20
1.650002686473543
 10
10.77423743529232
 20
1.676450541131381
 10
10.79836702797539
 20
1.694524571144781
 10
10.8205495879071
 20
1.711941419001761
 10
10.84082828938182
 20
1.728622483754608
 10
10.85924886058832
 20
1.744490806337046
 10
10.87585953085531
 20
1.759471144743504
 10
10.89071097580608
 20
1.773490047648997
 10
10.90385626046605
 20
1.78647592641357
 10
10.91535078036856
 20
1.798359125416482
 10
10.92525220070568
 20
1.809071990666467
 10
10.93362039357201
 20
1.818548936635757
 10
10.94051737335124
 20
1.826726511266791
 10
10.94600723029608
 20
1.833543459101904
 10
10.95015606235382
 20
1.838940782487649
 10
10.95303190529086
 20
1.842861800806814
 10
10.95470466117087
 20
1.845252207692637
 10
10.95524602524229
 20
1.846060126181167
 10
11.50401256054324
 20
2.692507512257604
 10
11.94496055645769
 20
2.460434727641374
 10
12.4205477346793
 20
2.311741256460845
 10
12.2079897922625
 20
1.325619048629902
 10
12.20779931200663
 20
1.324665358630974
 10
12.20728583984575
 20
1.32179333779994
 10
12.2065367249875
 20
1.316988789518683
 10
12.20563977276607
 20
1.310240502040655
 10
12.2046831539721
 20
1.301540261380507
 10
12.20375531384392
 20
1.290882861621761
 10
12.2029448807907
 20
1.278266112634038
 10
12.20234057491844
 20
1.263690845193291
 10
12.20203111642946
 20
1.247160913500275
 10
12.20210513396675
 20
1.228683195094477
 10
12.20265107297405
 20
1.208267588162535
 10
12.20375710414286
 20
1.185927006242084
 10
12.20551103201744
 20
1.161677370323891
 10
12.20800020382872
 20
1.135537598356954
 10
12.21131141862813
 20
1.107529592163205
 10
12.21553083679173
 20
1.077678221770261
 10
12.22318877860894
 20
1.032506637103022
 10
12.23305903690989
 20
0.9838133956059441
 10
12.24537459246957
 20
0.9316978276045944
 10
12.26036420616495
 20
0.8762705569991622
 10
12.27825193521121
 20
0.8176533287982206
 10
12.29925665624621
 20
0.7559788172739657
 10
12.32359159600734
 20
0.6913904150047721
 10
12.35146387033475
 20
0.6240420030987295
 10
12.38307403222393
 20
0.5540977029192149
 10
12.41861562963835
 20
0.4817316096604332
 10
12.45827477377976
 20
0.407127508147477
 10
12.50222971849961
 20
0.3304785712613931
 10
12.55065045152014
 20
0.2519870414152638
 10
12.60369829811747
 20
0.1718638955322662
 10
12.66152553790238
 20
0.09032849400101384
 10
12.72427503531646
 20
0.007608214107162503
 10
12.994764013201
 20
2.741556527574573e-06
 10
13.26526832668986
 20
0.007041687050133305
 10
13.32819093530136
 20
0.08963036337419439
 10
13.38618881547778
 20
0.1710444730791192
 10
13.43940435512985
 20
0.2510563401635784
 10
13.48798937410738
 20
0.3294462857866298
 10
13.53210475546394
 20
0.4060029956091995
 10
13.57192006297374
 20
0.4805238716405817
 10
13.60761314551723
 20
0.5528153680896839
 10
13.63936972897023
 20
0.6226933107443919
 10
13.66738299624785
 20
0.6899831994267247
 10
13.691853156171
 20
0.7545204930963632
 10
13.71298700183796
 20
0.8161508772006254
 10
13.73099745919795
 20
0.8747305128949288
 10
13.74610312653667
 20
0.9301262677842388
 10
13.7585278055959
 20
0.9822159278630087
 10
13.76850002506091
 20
1.030888390358365
 10
13.77625255715892
 20
1.076043837209158
 10
13.78053448658654
 20
1.105886305008469
 10
13.78390435391176
 20
1.133887314786819
 10
13.78644826723405
 20
1.160021816117403
 10
13.7882529795434
 20
1.184267725434948
 10
13.78940579825757
 20
1.206605941892468
 10
13.7899944943834
 20
1.227020360636843
 10
13.79010721137299
 20
1.245497883494629
 10
13.7898323737454
 20
1.262028427061333
 10
13.78925859554495
 20
1.276604928189287
 10
13.78847458870719
 20
1.289223346871169
 10
13.78756907140352
 20
1.29988266651803
 10
13.78663067643576
 20
1.308584891632674
 10
13.78574785975147
 20
1.315335042881023
 10
13.78500880915125
 20
1.320141149566074
 10
13.78450135325851
 20
1.323014239510856
 10
13.78431287082262
 20
1.323968326358733
 10
13.57382072260989
 20
2.310533551370557
 10
14.0497182804026
 20
2.458230629701308
 10
14.49115136095839
 20
2.689379386677266
 10
15.03814389871632
 20
1.84178452396337
 10
15.0386835695011
 20
1.840975473417372
 10
15.04035131525953
 20
1.838581568365135
 10
15.04321893973359
 20
1.834654535498763
 10
15.04735645857253
 20
1.829248534663479
 10
15.05283202610505
 20
1.822420103858508
 10
15.05971186369777
 20
1.814228102172785
 10
15.0680601897559
 20
1.804733650699414
 10
15.07793915142067
 20
1.794000071474263
 10
15.08940875801729
 20
1.782092824485525
 10
15.10252681630543
 20
1.769079442802476
 10
15.11734886758323
 20
1.75502946587304
 10
15.1339281266945
 20
1.740014371041108
 10
15.15231542298739
 20
1.72410750333587
 10
15.17255914327118
 20
1.707384003586677
 10
15.19470517681692
 20
1.68992073491819
 10
15.21879686244562
 20
1.671796207681767
 10
15.25615297886965
 20
1.645270056435507
 10
15.29756362670685
 20
1.617818061751633
 10
15.34312331109633
 20
1.589675203062819
 10
15.39291556749546
 20
1.561081461646423
 10
15.44701274155934
 20
1.532281356599814
 10
15.50547578756529
 20
1.503523471955429
 10
15.5683540857207
 20
1.47505997564974
 10
15.63568527866561
 20
1.447146131072834
 10
15.70749512745414
 20
1.420039801936795
 10
15.78379738727134
 20
1.394000951211471
 10
15.86459370311393
 20
1.369291134885774
 10
15.9498735256349
 20
1.346172991320973
 10
16.03961404732365
 20
1.324909726969908
 10
16.13378015916383
 20
1.305764599242359
 10
16.23232442788255
 20
1.289000397302049
 10
16.33518709387469
 20
1.274878921585003
 10
16.53182956558775
 20
1.460765630868698
 10
16.71812771390501
 20
1.657018351367815
 10
16.70422170406618
 20
1.759910367684921
 10
16.68766392937675
 20
1.858489531108728
 10
16.66871606453842
 20
1.952695533852026
 10
16.64764079879459
 20
2.042480392362014
 10
16.62470131544558
 20
2.127808446334739
 10
16.60016077259903
 20
2.208656337051697
 10
16.57428178594571
 20
2.28501296512094
 10
16.54732591434613
 20
2.356879427734382
 10
16.51955314900876
 20
2.424268935582144
 10
16.49122140703391
 20
2.487206709593747
 10
16.46258603009031
 20
2.545729857704659
 10
16.43389928898296
 20
2.599887231875064
 10
16.40540989486133
 20
2.649739265615794
 10
16.37736251780678
 20
2.695357792304047
 10
16.34999731352646
 20
2.736825844598752
 10
16.32354945886862
 20
2.774237435292322
 10
16.30547542885522
 20
2.79836702797539
 10
16.28805858099824
 20
2.820549587907094
 10
16.27137751624539
 20
2.840828289381817
 10
16.25550919366295
 20
2.85924886058832
 10
16.2405288552565
 20
2.875859530855311
 10
16.226509952351
 20
2.890710975806079
 10
16.21352407358643
 20
2.903856260466045
 10
16.20164087458352
 20
2.915350780368564
 10
16.19092800933353
 20
2.92525220070568
 10
16.18145106336424
 20
2.933620393572009
 10
16.17327348873321
 20
2.940517373351236
 10
16.1664565408981
 20
2.946007230296075
 10
16.16105921751235
 20
2.950156062353815
 10
16.15713819919318
 20
2.953031905290861
 10
16.15474779230736
 20
2.954704661170867
 10
16.15393987381883
 20
2.955246025242287
 10
15.3074924877424
 20
3.504012560543235
 10
15.53956527235863
 20
3.944960556457694
 10
15.68825874353915
 20
4.420547734679305
 10
16.6743809513701
 20
4.207989792262494
 10
16.67533464136903
 20
4.207799312006628
 10
16.67820666220006
 20
4.207285839845754
 10
16.68301121048132
 20
4.206536724987503
 10
16.68975949795934
 20
4.205639772766073
 10
16.69845973861949
 20
4.204683153972103
 10
16.70911713837824
 20
4.203755313843917
 10
16.72173388736596
 20
4.202944880790705
 10
16.73630915480671
 20
4.202340574918438
 10
16.75283908649973
 20
4.202031116429456
 10
16.77131680490552
 20
4.202105133966747
 10
16.79173241183747
 20
4.202651072974051
 10
16.81407299375791
 20
4.203757104142865
 10
16.83832262967611
 20
4.205511032017437
 10
16.86446240164305
 20
4.208000203828721
 10
16.89247040783679
 20
4.211311418628132
 10
16.92232177822974
 20
4.215530836791727
 10
16.96749336289698
 20
4.223188778608943
 10
17.01618660439406
 20
4.233059036909893
 10
17.06830217239541
 20
4.245374592469573
 10
17.12372944300084
 20
4.260364206164947
 10
17.18234667120178
 20
4.278251935211205
 10
17.24402118272603
 20
4.29925665624621
 10
17.30860958499523
 20
4.323591596007343
 10
17.37595799690127
 20
4.351463870334749
 10
17.44590229708079
 20
4.383074032223928
 10
17.51826839033957
 20
4.418615629638349
 10
17.59287249185252
 20
4.458274773779756
 10
17.66952142873861
 20
4.502229718499609
 10
17.74801295858474
 20
4.55065045152014
 10
17.82813610446773
 20
4.60369829811747
 10
17.90967150599899
 20
4.661525537902376
 10
17.99239178589283
 20
4.724275035316458
 10
17.99999725844347
 20
4.994764013200999
 10
17.99295831294987
 20
5.265268326689862
 10
17.9103696366258
 20
5.328190935301365
 10
17.82895552692088
 20
5.386188815477782
 10
17.74894365983642
 20
5.439404355129851
 10
17.67055371421337
 20
5.487989374107374
 10
17.5939970043908
 20
5.532104755463936
 10
17.51947612835942
 20
5.571920062973733
 10
17.44718463191032
 20
5.607613145517234
 10
17.37730668925561
 20
5.639369728970234
 10
17.31001680057327
 20
5.667382996247853
 10
17.24547950690364
 20
5.691853156170998
 10
17.18384912279937
 20
5.712987001837956
 10
17.12526948710507
 20
5.730997459197955
 10
17.06987373221576
 20
5.746103126536665
 10
17.01778407213699
 20
5.758527805595903
 10
16.96911160964163
 20
5.768500025060915
 10
16.92395616279084
 20
5.776252557158919
 10
16.89411369499153
 20
5.780534486586543
 10
16.86611268521318
 20
5.783904353911763
 10
16.8399781838826
 20
5.786448267234046
 10
16.81573227456505
 20
5.788252979543397
 10
16.79339405810753
 20
5.789405798257564
 10
16.77297963936316
 20
5.789994494383402
 10
16.75450211650537
 20
5.790107211372995
 10
16.73797157293867
 20
5.789832373745401
 10
16.72339507181071
 20
5.789258595544952
 10
16.71077665312883
 20
5.788474588707187
 10
16.70011733348197
 20
5.787569071403523
 10
16.69141510836733
 20
5.786630676435758
 10
16.68466495711898
 20
5.785747859751473
 10
16.67985885043392
 20
5.785008809151247
 10
16.67698576048915
 20
5.784501353258509
 10
16.67603167364127
 20
5.784312870822615
 10
15.68946644862944
 20
5.573820722609886
 10
15.54176937029869
 20
6.049718280402599
  0
CIRCLE
  5
59
100
AcDbEntity
  8
gear_M1.0000_pitch_circles
  6
ByLayer
 62
  256
370
   -1
100
AcDbCircle
 10
13
 20
5
 40
4
  0
CIRCLE
  5
5A
100
AcDbEntity
  8
gear_M1.0000_addendums
  6
ByLayer
 62
  256
370
   -1
100
AcDbCircle
 10
13
 20
5
 40
5
  0
CIRCLE
  5
5B
100
AcDbEntity
  8
gear_M1.0000_base_lines
  6
ByLayer
 62
  256
370
   -1
100
AcDbCircle
 10
13
 20
5
 40
3.758770483143634
  0
LINE
  5
5C
100
AcDbEntity
  8
gear_M1.0000_action_lines
  6
ByLayer
 62
  256
370
   -1
100
AcDbLine
 10
15.22577034069985
 20
8.028911014772913
 11
16.32820379231823
 21
7.218796862445622
  0
LWPOLYLINE
  5
5D
100
AcDbEntity
  8
0
  6
ByLayer
 62
  256
370
   -1
100
AcDbPolyline
 90
  560
 70
    1
 43
0
 10
-0.6893793866772664
 20
6.491151360958395
 10
0.1582154760366294
 20
7.038143898716317
 10
0.1590245265826273
 20
7.038683569501105
 10
0.1614184316348646
 20
7.040351315259534
 10
0.1653454645012369
 20
7.043218939733592
 10
0.1707514653365205
 20
7.047356458572528
 10
0.1775798961414918
 20
7.052832026105047
 10
0.1857718978272143
 20
7.059711863697775
 10
0.195266349300586
 20
7.068060189755897
 10
0.2059999285257366
 20
7.077939151420667
 10
0.2179071755144744
 20
7.089408758017294
 10
0.2309205571975235
 20
7.102526816305435
 10
0.2449705341269599
 20
7.117348867583229
 10
0.259985628958892
 20
7.133928126694505
 10
0.2758924966641296
 20
7.152315422987387
 10
0.292615996413323
 20
7.172559143271176
 10
0.3100792650818098
 20
7.194705176816917
 10
0.3282037923182322
 20
7.218796862445621
 10
0.3547299435644931
 20
7.256152978869652
 10
0.3821819382483667
 20
7.297563626706856
 10
0.4103247969371804
 20
7.343123311096328
 10
0.438918538353577
 20
7.392915567495456
 10
0.4677186434001857
 20
7.447012741559337
 10
0.4964765280445707
 20
7.50547578756529
 10
0.5249400243502595
 20
7.568354085720705
 10
0.5528538689271651
 20
7.635685278665614
 10
0.5799601980632048
 20
7.707495127454138
 10
0.6059990487885276
 20
7.78379738727134
 10
0.6307088651142254
 20
7.864593703113925
 10
0.653827008679027
 20
7.949873525634902
 10
0.6750902730300914
 20
8.039614047323647
 10
0.6942354007576408
 20
8.13378015916383
 10
0.7109996026979504
 20
8.232324427882554
 10
0.7251210784149964
 20
8.335187093874691
 10
0.5392343691313015
 20
8.531829565587749
 10
0.3429816486321848
 20
8.718127713905005
 10
0.2400896323150787
 20
8.704221704066182
 10
0.1415104688912714
 20
8.687663929376752
 10
0.04730446614797357
 20
8.668716064538415
 10
-0.04248039236201429
 20
8.647640798794594
 10
-0.1278084463347393
 20
8.624701315445581
 10
-0.2086563370516972
 20
8.600160772599033
 10
-0.2850129651209405
 20
8.574281785945709
 10
-0.3568794277343827
 20
8.547325914346134
 10
-0.4242689355821438
 20
8.519553149008765
 10
-0.4872067095937473
 20
8.49122140703391
 10
-0.5457298577046594
 20
8.462586030090311
 10
-0.5998872318750648
 20
8.433899288982957
 10
-0.6497392656157945
 20
8.405409894861329
 10
-0.6953577923040477
 20
8.377362517806782
 10
-0.7368258445987528
 20
8.349997313526458
 10
-0.774237435292322
 20
8.323549458868619
 10
-0.7983670279753912
 20
8.305475428855219
 10
-0.8205495879070952
 20
8.288058580998239
 10
-0.8408282893818173
 20
8.271377516245392
 10
-0.8592488605883206
 20
8.255509193662954
 10
-0.8758595308553123
 20
8.240528855256496
 10
-0.8907109758060798
 20
8.226509952351005
 10
-0.9038562604660454
 20
8.213524073586431
 10
-0.9153507803685645
 20
8.201640874583518
 10
-0.9252522007056805
 20
8.190928009333533
 10
-0.9336203935720095
 20
8.181451063364243
 10
-0.9405173733512369
 20
8.173273488733209
 10
-0.9460072302960763
 20
8.166456540898096
 10
-0.9501560623538161
 20
8.161059217512353
 10
-0.953031905290862
 20
8.157138199193186
 10
-0.9547046611708678
 20
8.154747792307363
 10
-0.9552460252422876
 20
8.153939873818834
 10
-1.504012560543236
 20
7.307492487742396
 10
-1.944960556457695
 20
7.539565272358626
 10
-2.420547734679305
 20
7.688258743539155
 10
-2.207989792262495
 20
8.674380951370097
 10
-2.207799312006629
 20
8.675334641369027
 10
-2.207285839845755
 20
8.67820666220006
 10
-2.206536724987504
 20
8.683011210481318
 10
-2.205639772766073
 20
8.689759497959345
 10
-2.204683153972104
 20
8.698459738619492
 10
-2.203755313843918
 20
8.70911713837824
 10
-2.202944880790705
 20
8.721733887365961
 10
-2.202340574918438
 20
8.736309154806708
 10
-2.202031116429457
 20
8.752839086499726
 10
-2.202105133966748
 20
8.771316804905522
 10
-2.202651072974052
 20
8.791732411837465
 10
-2.203757104142865
 20
8.814072993757915
 10
-2.205511032017437
 20
8.838322629676108
 10
-2.208000203828722
 20
8.864462401643046
 10
-2.211311418628132
 20
8.892470407836793
 10
-2.215530836791728
 20
8.92232177822974
 10
-2.223188778608943
 20
8.967493362896978
 10
-2.233059036909894
 20
9.016186604394056
 10
-2.245374592469574
 20
9.068302172395406
 10
-2.260364206164948
 20
9.123729443000837
 10
-2.278251935211205
 20
9.182346671201778
 10
-2.299256656246211
 20
9.244021182726033
 10
-2.323591596007343
 20
9.308609584995228
 10
-2.35146387033475
 20
9.375957996901271
 10
-2.383074032223929
 20
9.445902297080785
 10
-2.41861562963835
 20
9.518268390339566
 10
-2.458274773779757
 20
9.592872491852523
 10
-2.502229718499609
 20
9.669521428738607
 10
-2.55065045152014
 20
9.748012958584736
 10
-2.603698298117471
 20
9.828136104467733
 10
-2.661525537902377
 20
9.909671505998986
 10
-2.724275035316459
 20
9.992391785892837
 10
-2.994764013200999
 20
9.999997258443472
 10
-3.265268326689861
 20
9.992958312949867
 10
-3.328190935301366
 20
9.910369636625806
 10
-3.386188815477782
 20
9.828955526920881
 10
-3.439404355129852
 20
9.748943659836421
 10
-3.487989374107376
 20
9.670553714213369
 10
-3.532104755463937
 20
9.5939970043908
 10
-3.571920062973734
 20
9.519476128359418
 10
-3.607613145517234
 20
9.447184631910316
 10
-3.639369728970235
 20
9.377306689255608
 10
-3.667382996247854
 20
9.310016800573274
 10
-3.691853156170998
 20
9.245479506903637
 10
-3.712987001837957
 20
9.183849122799373
 10
-3.730997459197955
 20
9.12526948710507
 10
-3.746103126536667
 20
9.069873732215761
 10
-3.758527805595903
 20
9.01778407213699
 10
-3.768500025060916
 20
8.969111609641633
 10
-3.77625255715892
 20
8.923956162790841
 10
-3.780534486586543
 20
8.89411369499153
 10
-3.783904353911763
 20
8.866112685213182
 10
-3.786448267234046
 20
8.839978183882597
 10
-3.788252979543397
 20
8.81573227456505
 10
-3.789405798257565
 20
8.793394058107532
 10
-3.789994494383402
 20
8.772979639363157
 10
-3.790107211372995
 20
8.754502116505371
 10
-3.789832373745402
 20
8.737971572938667
 10
-3.789258595544952
 20
8.723395071810712
 10
-3.788474588707187
 20
8.71077665312883
 10
-3.787569071403523
 20
8.70011733348197
 10
-3.786630676435759
 20
8.691415108367325
 10
-3.785747859751474
 20
8.684664957118976
 10
-3.785008809151248
 20
8.679858850433925
 10
-3.78450135325851
 20
8.676985760489144
 10
-3.784312870822616
 20
8.676031673641265
 10
-3.573820722609887
 20
7.689466448629442
 10
-4.0497182804026
 20
7.541769370298692
 10
-4.491151360958395
 20
7.310620613322733
 10
-5.038143898716317
 20
8.158215476036629
 10
-5.038683569501105
 20
8.159024526582627
 10
-5.040351315259534
 20
8.161418431634864
 10
-5.043218939733592
 20
8.165345464501236
 10
-5.047356458572528
 20
8.170751465336521
 10
-5.052832026105047
 20
8.177579896141491
 10
-5.059711863697775
 20
8.185771897827214
 10
-5.068060189755897
 20
8.195266349300585
 10
-5.077939151420667
 20
8.205999928525737
 10
-5.089408758017294
 20
8.217907175514474
 10
-5.102526816305435
 20
8.230920557197523
 10
-5.117348867583229
 20
8.24497053412696
 10
-5.133928126694505
 20
8.259985628958892
 10
-5.152315422987386
 20
8.275892496664131
 10
-5.172559143271176
 20
8.292615996413323
 10
-5.194705176816917
 20
8.310079265081811
 10
-5.21879686244562
 20
8.328203792318233
 10
-5.256152978869652
 20
8.354729943564493
 10
-5.297563626706856
 20
8.382181938248367
 10
-5.343123311096328
 20
8.41032479693718
 10
-5.392915567495456
 20
8.438918538353576
 10
-5.447012741559337
 20
8.467718643400186
 10
-5.50547578756529
 20
8.496476528044571
 10
-5.568354085720705
 20
8.52494002435026
 10
-5.635685278665614
 20
8.552853868927166
 10
-5.707495127454138
 20
8.579960198063205
 10
-5.78379738727134
 20
8.605999048788528
 10
-5.864593703113925
 20
8.630708865114226
 10
-5.949873525634901
 20
8.653827008679027
 10
-6.039614047323647
 20
8.675090273030092
 10
-6.133780159163829
 20
8.694235400757641
 10
-6.232324427882554
 20
8.710999602697949
 10
-6.335187093874691
 20
8.725121078414997
 10
-6.531829565587749
 20
8.539234369131302
 10
-6.718127713905004
 20
8.342981648632184
 10
-6.704221704066181
 20
8.24008963231508
 10
-6.687663929376752
 20
8.141510468891273
 10
-6.668716064538415
 20
8.047304466147974
 10
-6.647640798794594
 20
7.957519607637986
 10
-6.62470131544558
 20
7.87219155366526
 10
-6.600160772599033
 20
7.791343662948303
 10
-6.574281785945709
 20
7.714987034879059
 10
-6.547325914346134
 20
7.643120572265618
 10
-6.519553149008763
 20
7.575731064417856
 10
-6.49122140703391
 20
7.512793290406253
 10
-6.462586030090311
 20
7.454270142295341
 10
-6.433899288982957
 20
7.400112768124936
 10
-6.40540989486133
 20
7.350260734384205
 10
-6.377362517806781
 20
7.304642207695952
 10
-6.349997313526458
 20
7.263174155401248
 10
-6.323549458868619
 20
7.225762564707678
 10
-6.305475428855219
 20
7.201632972024609
 10
-6.288058580998239
 20
7.179450412092905
 10
-6.271377516245392
 20
7.159171710618183
 10
-6.255509193662954
 20
7.140751139411679
 10
-6.240528855256496
 20
7.124140469144688
 10
-6.226509952351003
 20
7.10928902419392
 10
-6.213524073586431
 20
7.096143739533955
 10
-6.201640874583518
 20
7.084649219631435
 10
-6.190928009333533
 20
7.07474779929432
 10
-6.181451063364244
 20
7.066379606427991
 10
-6.173273488733209
 20
7.059482626648763
 10
-6.166456540898096
 20
7.053992769703924
 10
-6.161059217512351
 20
7.049843937646184
 10
-6.157138199193186
 20
7.046968094709138
 10
-6.154747792307363
 20
7.045295338829132
 10
-6.153939873818834
 20
7.044753974757713
 10
-5.307492487742396
 20
6.495987439456764
 10
-5.539565272358626
 20
6.055039443542305
 10
-5.688258743539155
 20
5.579452265320695
 10
-6.674380951370098
 20
5.792010207737505
 10
-6.675334641369026
 20
5.792200687993372
 10
-6.67820666220006
 20
5.792714160154245
 10
-6.683011210481317
 20
5.793463275012496
 10
-6.689759497959345
 20
5.794360227233927
 10
-6.698459738619492
 20
5.795316846027896
 10
-6.709117138378239
 20
5.796244686156082
 10
-6.721733887365961
 20
5.797055119209295
 10
-6.736309154806708
 20
5.797659425081562
 10
-6.752839086499726
 20
5.797968883570544
 10
-6.771316804905522
 20
5.797894866033252
 10
-6.791732411837465
 20
5.797348927025948
 10
-6.814072993757915
 20
5.796242895857135
 10
-6.838322629676108
 20
5.794488967982563
 10
-6.864462401643046
 20
5.791999796171278
 10
-6.892470407836794
 20
5.788688581371868
 10
-6.922321778229739
 20
5.784469163208272
 10
-6.967493362896978
 20
5.776811221391057
 10
-7.016186604394056
 20
5.766940963090106
 10
-7.068302172395406
 20
5.754625407530426
 10
-7.123729443000838
 20
5.739635793835052
 10
-7.182346671201778
 20
5.721748064788795
 10
-7.244021182726033
 20
5.700743343753789
 10
-7.308609584995228
 20
5.676408403992657
 10
-7.375957996901271
 20
5.64853612966525
 10
-7.445902297080785
 20
5.616925967776071
 10
-7.518268390339566
 20
5.58138437036165
 10
-7.592872491852523
 20
5.541725226220243
 10
-7.669521428738607
 20
5.49777028150039
 10
-7.748012958584736
 20
5.44934954847986
 10
-7.828136104467733
 20
5.396301701882529
 10
-7.909671505998986
 20
5.338474462097624
 10
-7.992391785892837
 20
5.275724964683541
 10
-7.999997258443472
 20
5.005235986799001
 10
-7.992958312949866
 20
4.734731673310138
 10
-7.910369636625805
 20
4.671809064698634
 10
-7.828955526920881
 20
4.613811184522218
 10
-7.748943659836422
 20
4.560595644870148
 10
-7.67055371421337
 20
4.512010625892625
 10
-7.5939970043908
 20
4.467895244536063
 10
-7.519476128359418
 20
4.428079937026266
 10
-7.447184631910316
 20
4.392386854482766
 10
-7.377306689255607
 20
4.360630271029765
 10
-7.310016800573274
 20
4.332617003752146
 10
-7.245479506903637
 20
4.308146843829002
 10
-7.183849122799374
 20
4.287012998162043
 10
-7.12526948710507
 20
4.269002540802045
 10
-7.069873732215761
 20
4.253896873463333
 10
-7.017784072136991
 20
4.241472194404096
 10
-6.969111609641634
 20
4.231499974939084
 10
-6.923956162790842
 20
4.22374744284108
 10
-6.89411369499153
 20
4.219465513413457
 10
-6.866112685213181
 20
4.216095646088237
 10
-6.839978183882597
 20
4.213551732765954
 10
-6.815732274565051
 20
4.211747020456603
 10
-6.793394058107532
 20
4.210594201742435
 10
-6.772979639363157
 20
4.210005505616598
 10
-6.75450211650537
 20
4.209892788627005
 10
-6.737971572938667
 20
4.210167626254598
 10
-6.723395071810712
 20
4.210741404455048
 10
-6.71077665312883
 20
4.211525411292813
 10
-6.70011733348197
 20
4.212430928596477
 10
-6.691415108367325
 20
4.213369323564241
 10
-6.684664957118977
 20
4.214252140248526
 10
-6.679858850433925
 20
4.214991190848752
 10
-6.676985760489144
 20
4.21549864674149
 10
-6.676031673641266
 20
4.215687129177384
 10
-5.689466448629442
 20
4.426179277390113
 10
-5.541769370298692
 20
3.9502817195974
 10
-5.310620613322733
 20
3.508848639041605
 10
-6.158215476036629
 20
2.961856101283683
 10
-6.159024526582627
 20
2.961316430498896
 10
-6.161418431634864
 20
2.959648684740466
 10
-6.165345464501237
 20
2.956781060266408
 10
-6.170751465336521
 20
2.952643541427472
 10
-6.177579896141492
 20
2.947167973894953
 10
-6.185771897827214
 20
2.940288136302226
 10
-6.195266349300587
 20
2.931939810244103
 10
-6.205999928525737
 20
2.922060848579334
 10
-6.217907175514474
 20
2.910591241982706
 10
-6.230920557197524
 20
2.897473183694565
 10
-6.24497053412696
 20
2.882651132416771
 10
-6.259985628958892
 20
2.866071873305495
 10
-6.27589249666413
 20
2.847684577012614
 10
-6.292615996413323
 20
2.827440856728824
 10
-6.31007926508181
 20
2.805294823183083
 10
-6.328203792318233
 20
2.78120313755438
 10
-6.354729943564493
 20
2.743847021130348
 10
-6.382181938248367
 20
2.702436373293145
 10
-6.41032479693718
 20
2.656876688903673
 10
-6.438918538353577
 20
2.607084432504544
 10
-6.467718643400186
 20
2.552987258440663
 10
-6.496476528044571
 20
2.49452421243471
 10
-6.52494002435026
 20
2.431645914279295
 10
-6.552853868927166
 20
2.364314721334387
 10
-6.579960198063205
 20
2.292504872545862
 10
-6.605999048788528
 20
2.21620261272866
 10
-6.630708865114226
 20
2.135406296886075
 10
-6.653827008679027
 20
2.050126474365099
 10
-6.675090273030092
 20
1.960385952676353
 10
-6.694235400757641
 20
1.866219840836171
 10
-6.710999602697951
 20
1.767675572117446
 10
-6.725121078414997
 20
1.66481290612531
 10
-6.539234369131302
 20
1.468170434412251
 10
-6.342981648632185
 20
1.281872286094996
 10
-6.24008963231508
 20
1.295778295933819
 10
-6.141510468891272
 20
1.312336070623248
 10
-6.047304466147974
 20
1.331283935461585
 10
-5.957519607637986
 20
1.352359201205406
 10
-5.872191553665261
 20
1.37529868455442
 10
-5.791343662948303
 20
1.399839227400967
 10
-5.71498703487906
 20
1.425718214054291
 10
-5.643120572265618
 20
1.452674085653867
 10
-5.575731064417856
 20
1.480446850991237
 10
-5.512793290406253
 20
1.50877859296609
 10
-5.454270142295341
 20
1.53741396990969
 10
-5.400112768124936
 20
1.566100711017043
 10
-5.350260734384205
 20
1.59459010513867
 10
-5.304642207695952
 20
1.622637482193219
 10
-5.263174155401248
 20
1.650002686473543
 10
-5.225762564707678
 20
1.676450541131381
 10
-5.201632972024609
 20
1.694524571144781
 10
-5.179450412092905
 20
1.711941419001761
 10
-5.159171710618183
 20
1.728622483754608
 10
-5.14075113941168
 20
1.744490806337046
 10
-5.124140469144688
 20
1.759471144743504
 10
-5.10928902419392
 20
1.773490047648997
 10
-5.096143739533955
 20
1.78647592641357
 10
-5.084649219631435
 20
1.798359125416482
 10
-5.07474779929432
 20
1.809071990666467
 10
-5.066379606427991
 20
1.818548936635757
 10
-5.059482626648763
 20
1.826726511266791
 10
-5.053992769703925
 20
1.833543459101904
 10
-5.049843937646184
 20
1.838940782487649
 10
-5.046968094709138
 20
1.842861800806814
 10
-5.045295338829132
 20
1.845252207692637
 10
-5.044753974757713
 20
1.846060126181167
 10
-4.495987439456764
 20
2.692507512257604
 10
-4.055039443542305
 20
2.460434727641374
 10
-3.579452265320695
 20
2.311741256460845
 10
-3.792010207737505
 20
1.325619048629902
 10
-3.792200687993372
 20
1.324665358630974
 10
-3.792714160154245
 20
1.32179333779994
 10
-3.793463275012497
 20
1.316988789518683
 10
-3.794360227233927
 20
1.310240502040655
 10
-3.795316846027897
 20
1.301540261380507
 10
-3.796244686156083
 20
1.290882861621761
 10
-3.797055119209295
 20
1.278266112634038
 10
-3.797659425081562
 20
1.263690845193291
 10
-3.797968883570544
 20
1.247160913500275
 10
-3.797894866033253
 20
1.228683195094477
 10
-3.797348927025948
 20
1.208267588162535
 10
-3.796242895857135
 20
1.185927006242084
 10
-3.794488967982563
 20
1.161677370323891
 10
-3.791999796171278
 20
1.135537598356954
 10
-3.788688581371868
 20
1.107529592163205
 10
-3.784469163208272
 20
1.077678221770261
 10
-3.776811221391057
 20
1.032506637103022
 10
-3.766940963090107
 20
0.9838133956059441
 10
-3.754625407530427
 20
0.9316978276045944
 10
-3.739635793835052
 20
0.8762705569991622
 10
-3.721748064788795
 20
0.8176533287982206
 10
-3.70074334375379
 20
0.7559788172739657
 10
-3.676408403992657
 20
0.6913904150047721
 10
-3.64853612966525
 20
0.6240420030987295
 10
-3.616925967776072
 20
0.5540977029192149
 10
-3.581384370361651
 20
0.4817316096604332
 10
-3.541725226220244
 20
0.407127508147477
 10
-3.497770281500391
 20
0.3304785712613931
 10
-3.44934954847986
 20
0.2519870414152638
 10
-3.396301701882529
 20
0.1718638955322662
 10
-3.338474462097624
 20
0.09032849400101384
 10
-3.275724964683542
 20
0.007608214107162503
 10
-3.005235986799001
 20
2.741556527574573e-06
 10
-2.734731673310139
 20
0.007041687050133305
 10
-2.671809064698635
 20
0.08963036337419439
 10
-2.613811184522218
 20
0.1710444730791192
 10
-2.560595644870148
 20
0.2510563401635784
 10
-2.512010625892625
 20
0.3294462857866298
 10
-2.467895244536063
 20
0.4060029956091995
 10
-2.428079937026266
 20
0.4805238716405817
 10
-2.392386854482766
 20
0.5528153680896839
 10
-2.360630271029766
 20
0.6226933107443919
 10
-2.332617003752147
 20
0.6899831994267247
 10
-2.308146843829002
 20
0.7545204930963632
 10
-2.287012998162044
 20
0.8161508772006254
 10
-2.269002540802044
 20
0.8747305128949288
 10
-2.253896873463334
 20
0.9301262677842388
 10
-2.241472194404097
 20
0.9822159278630087
 10
-2.231499974939084
 20
1.030888390358365
 10
-2.22374744284108
 20
1.076043837209158
 10
-2.219465513413457
 20
1.105886305008469
 10
-2.216095646088237
 20
1.133887314786819
 10
-2.213551732765954
 20
1.160021816117403
 10
-2.211747020456603
 20
1.184267725434948
 10
-2.210594201742435
 20
1.206605941892468
 10
-2.210005505616598
 20
1.227020360636843
 10
-2.209892788627005
 20
1.245497883494629
 10
-2.210167626254598
 20
1.262028427061333
 10
-2.210741404455048
 20
1.276604928189287
 10
-2.211525411292813
 20
1.289223346871169
 10
-2.212430928596477
 20
1.29988266651803
 10
-2.213369323564241
 20
1.308584891632674
 10
-2.214252140248526
 20
1.315335042881023
 10
-2.214991190848752
 20
1.320141149566074
 10
-2.215498646741491
 20
1.323014239510856
 10
-2.215687129177385
 20
1.323968326358733
 10
-2.426179277390113
 20
2.310533551370557
 10
-1.9502817195974
 20
2.458230629701308
 10
-1.508848639041605
 20
2.689379386677266
 10
-0.9618561012836828
 20
1.84178452396337
 10
-0.9613164304988957
 20
1.840975473417372
 10
-0.9596486847404662
 20
1.838581568365135
 10
-0.9567810602664086
 20
1.834654535498763
 10
-0.9526435414274728
 20
1.829248534663479
 10
-0.9471679738949539
 20
1.822420103858508
 10
-0.9402881363022257
 20
1.814228102172785
 10
-0.9319398102441037
 20
1.804733650699414
 10
-0.9220608485793336
 20
1.794000071474263
 10
-0.910591241982706
 20
1.782092824485525
 10
-0.8974731836945655
 20
1.769079442802476
 10
-0.8826511324167714
 20
1.75502946587304
 10
-0.8660718733054957
 20
1.740014371041108
 10
-0.8476845770126138
 20
1.72410750333587
 10
-0.8274408567288245
 20
1.707384003586677
 10
-0.805294823183083
 20
1.68992073491819
 10
-0.78120313755438
 20
1.671796207681767
 10
-0.7438470211303478
 20
1.645270056435507
 10
-0.7024363732931453
 20
1.617818061751633
 10
-0.6568766889036732
 20
1.589675203062819
 10
-0.6070844325045441
 20
1.561081461646423
 10
-0.552987258440663
 20
1.532281356599814
 10
-0.4945242124347109
 20
1.503523471955429
 10
-0.4316459142792959
 20
1.47505997564974
 10
-0.3643147213343871
 20
1.447146131072834
 10
-0.2925048725458628
 20
1.420039801936795
 10
-0.2162026127286603
 20
1.394000951211471
 10
-0.1354062968860754
 20
1.369291134885774
 10
-0.05012647436509887
 20
1.346172991320973
 10
0.03961404732364615
 20
1.324909726969908
 10
0.133780159163829
 20
1.305764599242359
 10
0.2323244278825531
 20
1.289000397302049
 10
0.3351870938746897
 20
1.274878921585003
 10
0.5318295655877492
 20
1.460765630868698
 10
0.7181277139050035
 20
1.657018351367815
 10
0.7042217040661805
 20
1.759910367684921
 10
0.6876639293767517
 20
1.858489531108728
 10
0.6687160645384149
 20
1.952695533852026
 10
0.647640798794594
 20
2.042480392362014
 10
0.6247013154455794
 20
2.127808446334739
 10
0.6001607725990326
 20
2.208656337051697
 10
0.574281785945709
 20
2.28501296512094
 10
0.5473259143461329
 20
2.356879427734382
 10
0.5195531490087628
 20
2.424268935582144
 10
0.4912214070339096
 20
2.487206709593747
 10
0.4625860300903102
 20
2.545729857704659
 10
0.4338992889829574
 20
2.599887231875064
 10
0.4054098948613296
 20
2.649739265615794
 10
0.3773625178067812
 20
2.695357792304047
 10
0.3499973135264578
 20
2.736825844598752
 10
0.3235494588686194
 20
2.774237435292322
 10
0.3054754288552193
 20
2.79836702797539
 10
0.2880585809982388
 20
2.820549587907094
 10
0.2713775162453915
 20
2.840828289381817
 10
0.2555091936629541
 20
2.85924886058832
 10
0.2405288552564957
 20
2.875859530855311
 10
0.2265099523510035
 20
2.890710975806079
 10
0.2135240735864299
 20
2.903856260466045
 10
0.2016408745835179
 20
2.915350780368564
 10
0.1909280093335335
 20
2.92525220070568
 10
0.1814510633642432
 20
2.933620393572009
 10
0.1732734887332095
 20
2.940517373351236
 10
0.1664565408980963
 20
2.946007230296075
 10
0.1610592175123511
 20
2.950156062353815
 10
0.1571381991931857
 20
2.953031905290861
 10
0.1547477923073632
 20
2.954704661170867
 10
0.1539398738188327
 20
2.955246025242287
 10
-0.6925075122576043
 20
3.504012560543235
 10
-0.4604347276413741
 20
3.944960556457694
 10
-0.3117412564608451
 20
4.420547734679305
 10
0.6743809513700967
 20
4.207989792262494
 10
0.6753346413690258
 20
4.207799312006628
 10
0.67820666220006
 20
4.207285839845754
 10
0.6830112104813173
 20
4.206536724987503
 10
0.6897594979593453
 20
4.205639772766073
 10
0.698459738619492
 20
4.204683153972103
 10
0.7091171383782386
 20
4.203755313843917
 10
0.7217338873659607
 20
4.202944880790705
 10
0.7363091548067082
 20
4.202340574918438
 10
0.7528390864997254
 20
4.202031116429456
 10
0.7713168049055223
 20
4.202105133966747
 10
0.7917324118374647
 20
4.202651072974051
 10
0.8140729937579154
 20
4.203757104142865
 10
0.8383226296761084
 20
4.205511032017437
 10
0.8644624016430464
 20
4.208000203828721
 10
0.892470407836794
 20
4.211311418628132
 10
0.9223217782297395
 20
4.215530836791727
 10
0.9674933628969775
 20
4.223188778608943
 10
1.016186604394056
 20
4.233059036909893
 10
1.068302172395406
 20
4.245374592469573
 10
1.123729443000837
 20
4.260364206164947
 10
1.182346671201779
 20
4.278251935211205
 10
1.244021182726033
 20
4.29925665624621
 10
1.308609584995228
 20
4.323591596007343
 10
1.375957996901271
 20
4.351463870334749
 10
1.445902297080784
 20
4.383074032223928
 10
1.518268390339567
 20
4.418615629638349
 10
1.592872491852523
 20
4.458274773779756
 10
1.669521428738606
 20
4.502229718499609
 10
1.748012958584736
 20
4.55065045152014
 10
1.828136104467733
 20
4.60369829811747
 10
1.909671505998986
 20
4.661525537902376
 10
1.992391785892837
 20
4.724275035316458
 10
1.999997258443472
 20
4.994764013200999
 10
1.992958312949867
 20
5.265268326689862
 10
1.910369636625804
 20
5.328190935301365
 10
1.82895552692088
 20
5.386188815477782
 10
1.748943659836421
 20
5.439404355129851
 10
1.670553714213369
 20
5.487989374107374
 10
1.5939970043908
 20
5.532104755463936
 10
1.519476128359417
 20
5.571920062973733
 10
1.447184631910316
 20
5.607613145517234
 10
1.377306689255607
 20
5.639369728970234
 10
1.310016800573274
 20
5.667382996247853
 10
1.245479506903637
 20
5.691853156170998
 10
1.183849122799374
 20
5.712987001837956
 10
1.125269487105071
 20
5.730997459197955
 10
1.069873732215761
 20
5.746103126536665
 10
1.01778407213699
 20
5.758527805595903
 10
0.9691116096416343
 20
5.768500025060915
 10
0.9239561627908421
 20
5.776252557158919
 10
0.8941136949915305
 20
5.780534486586543
 10
0.8661126852131802
 20
5.783904353911763
 10
0.8399781838825966
 20
5.786448267234046
 10
0.8157322745650513
 20
5.788252979543397
 10
0.7933940581075314
 20
5.789405798257564
 10
0.7729796393631565
 20
5.789994494383402
 10
0.7545021165053702
 20
5.790107211372995
 10
0.7379715729386671
 20
5.789832373745401
 10
0.7233950718107129
 20
5.789258595544952
 10
0.7107766531288302
 20
5.788474588707187
 10
0.7001173334819688
 20
5.787569071403523
 10
0.6914151083673254
 20
5.786630676435758
 10
0.6846649571189767
 20
5.785747859751473
 10
0.6798588504339254
 20
5.785008809151247
 10
0.6769857604891438
 20
5.784501353258509
 10
0.6760316736412664
 20
5.784312870822615
 10
-0.3105335513705572
 20
5.573820722609886
 10
-0.4582306297013088
 20
6.049718280402599
  0
CIRCLE
  5
5E
100
AcDbEntity
  8
0
  6
ByLayer
 62
  256
370
   -1
100
AcDbCircle
 10
-3
 20
5
 40
4
  0
CIRCLE
  5
5F
100
AcDbEntity
  8
0
  6
ByLayer
 62
  256
370
   -1
100
AcDbCircle
 10
-3
 20
5
 40
3.758770483143634
  0
LINE
  5
60
100
AcDbEntity
  8
0
  6
ByLayer
 62
  256
370
   -1
100
AcDbLine
 10
-0.7742296593001448
 20
8.028911014772913
 11
0.3282037923182326
 21
7.218796862445622
  0
LINE
  5
61
100
AcDbEntity
  8
0
  6
ByLayer
 62
  256
370
   -1
100
AcDbLine
 10
-3
 20
5
 11
13
 21
5
  0
LINE
  5
62
100
AcDbEntity
  8
0
  6
ByLayer
 62
  256
370
   -1
100
AcDbLine
 10
13
 20
5
 11
13
 21
-2
  0
LINE
  5
63
100
AcDbEntity
  8
0
  6
ByLayer
 62
  256
370
   -1
100
AcDbLine
 10
13
 20
-2
 11
5
 21
-2
  0
LINE
  5
64
100
AcDbEntity
  8
0
  6
ByLayer
 62
  256
370
   -1
100
AcDbLine
 10
5
 20
-2
 11
5
 21
12
  0
LINE
  5
65
100
AcDbEntity
  8
0
  6
ByLayer
 62
  256
370
   -1
100
AcDbLine
 10
5
 20
12
 11
-3
 21
12
  0
LINE
  5
66
100
AcDbEntity
  8
0
  6
ByLayer
 62
  256
370
   -1
100
AcDbLine
 10
-3
 20
12
 11
-3
 21
-2
  0
MTEXT
  5
67
100
AcDbEntity
  8
0
  6
ByLayer
 62
  256
370
   -1
100
AcDbMText
 10
-2
 20
19
 30
0
 40
1
 41
13.16666718095419
 71
    1
 72
    1
  1
gear: rotate angles\P - 11.25\P - 33,69\P - 11.25
  7
standard
210
0
220
0
230
1
 50
0
 73
    2
 44
1
  0
ENDSEC
  0
SECTION
  2
OBJECTS
  0
DICTIONARY
  5
C
330
0
100
AcDbDictionary
281
    1
  3
ACAD_GROUP
350
D
  0
DICTIONARY
  5
D
330
C
100
AcDbDictionary
281
    1
  0
ENDSEC
  0
EOF
